<svg width="9" height="5" viewBox="0 0 9 5" fill="none" xmlns="http://www.w3.org/2000/svg">
<path d="M4.97241 3.78931V3.28931H3.97241V3.78931H4.97241ZM4.11886 4.34851C4.31412 4.54377 4.6307 4.54377 4.82597 4.34851L8.00795 1.16653C8.20321 0.971268 8.20321 0.654686 8.00795 0.459424C7.81268 0.264162 7.4961 0.264162 7.30084 0.459424L4.47241 3.28785L1.64398 0.459424C1.44872 0.264162 1.13214 0.264162 0.936878 0.459424C0.741616 0.654686 0.741616 0.971268 0.936878 1.16653L4.11886 4.34851ZM3.97241 3.78931V3.99496H4.97241V3.78931H3.97241Z" fill="#3A3A1F"/>
<path d="M4.97241 3.78931V3.28931H3.97241V3.78931H4.97241ZM4.11886 4.34851C4.31412 4.54377 4.6307 4.54377 4.82597 4.34851L8.00795 1.16653C8.20321 0.971268 8.20321 0.654686 8.00795 0.459424C7.81268 0.264162 7.4961 0.264162 7.30084 0.459424L4.47241 3.28785L1.64398 0.459424C1.44872 0.264162 1.13214 0.264162 0.936878 0.459424C0.741616 0.654686 0.741616 0.971268 0.936878 1.16653L4.11886 4.34851ZM3.97241 3.78931V3.99496H4.97241V3.78931H3.97241Z" fill="black" fill-opacity="0.2"/>
</svg>
