<svg width="41" height="24" viewBox="0 0 41 24" fill="none" xmlns="http://www.w3.org/2000/svg">
<rect x="0.5" y="0.5" width="40" height="23" rx="11.5" fill="white"/>
<path d="M31.8536 12.3536C32.0488 12.1583 32.0488 11.8417 31.8536 11.6464L28.6716 8.46447C28.4763 8.2692 28.1597 8.2692 27.9645 8.46447C27.7692 8.65973 27.7692 8.97631 27.9645 9.17157L30.7929 12L27.9645 14.8284C27.7692 15.0237 27.7692 15.3403 27.9645 15.5355C28.1597 15.7308 28.4763 15.7308 28.6716 15.5355L31.8536 12.3536ZM11 12.5H31.5V11.5H11V12.5Z" fill="#3A3A1F"/>
<path d="M31.8536 12.3536C32.0488 12.1583 32.0488 11.8417 31.8536 11.6464L28.6716 8.46447C28.4763 8.2692 28.1597 8.2692 27.9645 8.46447C27.7692 8.65973 27.7692 8.97631 27.9645 9.17157L30.7929 12L27.9645 14.8284C27.7692 15.0237 27.7692 15.3403 27.9645 15.5355C28.1597 15.7308 28.4763 15.7308 28.6716 15.5355L31.8536 12.3536ZM11 12.5H31.5V11.5H11V12.5Z" fill="black" fill-opacity="0.2"/>
<path d="M8.64645 11.6464C8.45119 11.8417 8.45119 12.1583 8.64645 12.3536L11.8284 15.5355C12.0237 15.7308 12.3403 15.7308 12.5355 15.5355C12.7308 15.3403 12.7308 15.0237 12.5355 14.8284L9.70711 12L12.5355 9.17157C12.7308 8.97631 12.7308 8.65973 12.5355 8.46447C12.3403 8.2692 12.0237 8.2692 11.8284 8.46447L8.64645 11.6464ZM29.5 11.5L9 11.5V12.5L29.5 12.5V11.5Z" fill="#3A3A1F"/>
<path d="M8.64645 11.6464C8.45119 11.8417 8.45119 12.1583 8.64645 12.3536L11.8284 15.5355C12.0237 15.7308 12.3403 15.7308 12.5355 15.5355C12.7308 15.3403 12.7308 15.0237 12.5355 14.8284L9.70711 12L12.5355 9.17157C12.7308 8.97631 12.7308 8.65973 12.5355 8.46447C12.3403 8.2692 12.0237 8.2692 11.8284 8.46447L8.64645 11.6464ZM29.5 11.5L9 11.5V12.5L29.5 12.5V11.5Z" fill="black" fill-opacity="0.2"/>
<rect x="0.5" y="0.5" width="40" height="23" rx="11.5" stroke="#3A3A1F"/>
<rect x="0.5" y="0.5" width="40" height="23" rx="11.5" stroke="black" stroke-opacity="0.2"/>
</svg>
