<svg width="67" height="67" viewBox="0 0 67 67" fill="none" xmlns="http://www.w3.org/2000/svg">
<g opacity="0.5">
<path d="M1.2 31.8999C0.499999 31.8999 0 32.4999 0 33.0999C0 33.7999 0.599999 34.2999 1.2 34.2999H32.2V31.7999H1.2V31.8999Z" fill="white"/>
<path d="M65.5999 31.9H34.7V34.4H65.5999C66.2999 34.4 66.8 33.8 66.8 33.2C66.8 32.4 66.2999 31.9 65.5999 31.9Z" fill="white"/>
<path d="M32.1999 64.9C32.1999 65.6 32.7999 66.1 33.3999 66.1C34.0999 66.1 34.5999 65.5 34.5999 64.9V34.4H32.0999V64.9H32.1999Z" fill="white"/>
<path d="M34.6998 1.29998C34.6998 0.599976 34.0998 0.0999756 33.4998 0.0999756C32.7998 0.0999756 32.2998 0.699976 32.2998 1.29998V31.9H34.7998V1.29998H34.6998Z" fill="white"/>
<path d="M34.7 31.9H32.2V34.4H34.7V31.9Z" fill="white"/>
<path d="M1.2 27.3H10.9C11.6 27.3 12.1 26.7 12.1 26.1V16.4C12.1 15.7 11.5 15.2 10.9 15.2H1.2C0.499999 15.2 0 15.8 0 16.4V26.1C0 26.8 0.499999 27.3 1.2 27.3ZM2.5 17.7H9.7V24.9H2.5V17.7Z" fill="white"/>
<path d="M16.7 27.3H26.4C27.1 27.3 27.6 26.7 27.6 26.1V16.4C27.6 15.7 27 15.2 26.4 15.2H16.7C16 15.2 15.5 15.8 15.5 16.4V26.1C15.4 26.8 16 27.3 16.7 27.3ZM17.9 17.7H25.1V24.9H17.9V17.7Z" fill="white"/>
<path d="M1.2 12.2H10.9C11.6 12.2 12.1 11.6 12.1 11V1.29998C12.1 0.599976 11.5 0.0999756 10.9 0.0999756H1.2C0.499999 0.0999756 0 0.699976 0 1.29998V11C0 11.6 0.499999 12.2 1.2 12.2ZM2.5 2.49998H9.7V9.69998H2.5V2.49998Z" fill="white"/>
<path d="M16.7 12.2H26.4C27.1 12.2 27.6 11.6 27.6 11V1.29998C27.6 0.599976 27 0.0999756 26.4 0.0999756H16.7C16 0.0999756 15.5 0.699976 15.5 1.29998V11C15.4 11.6 16 12.2 16.7 12.2ZM17.9 2.49998H25.1V9.69998H17.9V2.49998Z" fill="white"/>
<path d="M40.5 27.3H50.2C50.9 27.3 51.4 26.7 51.4 26.1V16.4C51.4 15.7 50.8 15.2 50.2 15.2H40.5C39.8 15.2 39.3 15.8 39.3 16.4V26.1C39.2 26.8 39.8 27.3 40.5 27.3ZM41.7 17.7H48.9V24.9H41.7V17.7Z" fill="white"/>
<path d="M40.5 12.2H50.2C50.9 12.2 51.4 11.6 51.4 11V1.29998C51.4 0.599976 50.8 0.0999756 50.2 0.0999756H40.5C39.8 0.0999756 39.3 0.699976 39.3 1.29998V11C39.2 11.6 39.8 12.2 40.5 12.2ZM41.7 2.49998H48.9V9.69998H41.7V2.49998Z" fill="white"/>
<path d="M65.5999 0H55.8999C55.1999 0 54.7 0.600001 54.7 1.2V10.9C54.7 11.6 55.2999 12.1 55.8999 12.1H65.5999C66.2999 12.1 66.7999 11.5 66.7999 10.9V1.2C66.7999 0.600001 66.2999 0 65.5999 0ZM64.2999 9.7H57.0999V2.5H64.2999V9.7Z" fill="white"/>
<path d="M65.5999 54H55.8999C55.1999 54 54.7 54.6 54.7 55.2V64.9C54.7 65.6 55.2999 66.1 55.8999 66.1H65.5999C66.2999 66.1 66.7999 65.5 66.7999 64.9V55.2C66.7999 54.6 66.2999 54 65.5999 54ZM64.2999 63.7H57.0999V56.5H64.2999V63.7Z" fill="white"/>
<path d="M10.9 38.9H1.2C0.499999 38.9 0 39.5 0 40.1V49.8C0 50.5 0.599999 51 1.2 51H10.9C11.6 51 12.1 50.4 12.1 49.8V40.1C12.1 39.4 11.6 38.9 10.9 38.9ZM9.6 48.5H2.4V41.3H9.6V48.5Z" fill="white"/>
<path d="M26.2999 38.9H16.5999C15.8999 38.9 15.3999 39.5 15.3999 40.1V49.8C15.3999 50.5 15.9999 51 16.5999 51H26.2999C26.9999 51 27.4999 50.4 27.4999 49.8V40.1C27.5999 39.4 26.9999 38.9 26.2999 38.9ZM25.0999 48.5H17.8999V41.3H25.0999V48.5Z" fill="white"/>
<path d="M50.0999 54H40.4C39.7 54 39.2 54.6 39.2 55.2V64.9C39.2 65.6 39.8 66.1 40.4 66.1H50.0999C50.7999 66.1 51.3 65.5 51.3 64.9V55.2C51.4 54.6 50.7999 54 50.0999 54ZM48.9 63.7H41.7V56.5H48.9V63.7Z" fill="white"/>
<path d="M50.0999 38.9H40.4C39.7 38.9 39.2 39.5 39.2 40.1V49.8C39.2 50.5 39.8 51 40.4 51H50.0999C50.7999 51 51.3 50.4 51.3 49.8V40.1C51.4 39.4 50.7999 38.9 50.0999 38.9ZM48.9 48.5H41.7V41.3H48.9V48.5Z" fill="white"/>
<path d="M65.5999 38.9H55.8999C55.1999 38.9 54.7 39.5 54.7 40.1V49.8C54.7 50.5 55.2999 51 55.8999 51H65.5999C66.2999 51 66.7999 50.4 66.7999 49.8V40.1C66.7999 39.4 66.2999 38.9 65.5999 38.9ZM64.2999 48.5H57.0999V41.3H64.2999V48.5Z" fill="white"/>
</g>
</svg>
