<svg width="56" height="83" viewBox="0 0 56 83" fill="none" xmlns="http://www.w3.org/2000/svg">
<g opacity="0.5">
<path d="M16.1153 50.6H18.2153C18.9153 50.6 19.4153 50 19.4153 49.4C19.4153 48.7 18.8153 48.2 18.2153 48.2H17.4153V45.8C17.4153 45.1 16.8153 44.6 16.2153 44.6C15.5153 44.6 15.0153 45.2 15.0153 45.8V49.5C14.8153 50 15.4153 50.6 16.1153 50.6Z" fill="white"/>
<path d="M1.51521 52.3999L3.81521 51.9999C4.51521 51.8999 4.91521 51.1999 4.81521 50.4999C4.71521 49.7999 4.01521 49.3999 3.31521 49.4999L1.01521 49.8999C0.315206 49.9999 -0.0847937 50.6999 0.0152063 51.3999C0.115206 51.9999 0.615207 52.3999 1.21521 52.3999C1.31521 52.3999 1.41521 52.3999 1.51521 52.3999Z" fill="white"/>
<path d="M1.31517 43.8L3.91517 44.7C4.01517 44.7 4.21517 44.8 4.31517 44.8C4.81517 44.8 5.31517 44.5 5.51517 44C5.71517 43.3 5.41517 42.6 4.71517 42.4L2.11517 41.5C1.41517 41.3 0.715171 41.6 0.515171 42.3C0.315171 42.9 0.615172 43.6 1.31517 43.8Z" fill="white"/>
<path d="M6.6151 38.1001C6.8151 38.4001 7.2151 38.5001 7.5151 38.5001C7.8151 38.5001 8.1151 38.4001 8.3151 38.2001C8.8151 37.7001 8.9151 37.0001 8.4151 36.4001L7.0151 34.8001C6.5151 34.3001 5.8151 34.2001 5.2151 34.7001C4.7151 35.2001 4.6151 35.9001 5.1151 36.5001L6.6151 38.1001Z" fill="white"/>
<path d="M12.8153 34.2C13.0153 34.7 13.5153 35 14.0153 35C14.1153 35 14.3153 35 14.4153 34.9C15.1153 34.7 15.4153 34 15.2153 33.3L14.5153 31.4C14.3153 30.7 13.6153 30.4 12.9153 30.6C12.2153 30.8 11.9153 31.5 12.1153 32.2L12.8153 34.2Z" fill="white"/>
<path d="M48.0152 55.2C47.4152 54.9 46.8152 54.7 46.3152 54.4C45.6152 54 45.1152 53.6 45.8152 51.7C46.5152 49.8 47.0152 48 46.8152 45.5C46.4152 41.5 42.7152 38.2 38.5152 38.2H38.4152C34.3152 38.2 30.5152 41.5 30.1152 45.5C30.0152 46.4 30.0152 47.2 30.1152 48C29.3152 47.8 28.5152 47.6 27.7152 47.6H27.6152C26.8152 47.6 26.0152 47.7 25.2152 48C25.3152 47.2 25.3152 46.4 25.2152 45.5C24.8152 41.5 21.1152 38.2 16.9152 38.2H16.8152C12.7152 38.2 8.91516 41.5 8.51516 45.5C8.21516 48 8.81516 49.9 9.51516 51.7C10.2152 53.6 9.71516 54 9.01516 54.4C8.51516 54.7 7.91516 54.9 7.31516 55.2C5.21516 56.2 2.91516 57.3 1.51516 59.4C0.515162 61 0.415161 62.8 0.515161 64.3V72C0.515161 72.3 0.615161 72.6 0.915161 72.9C1.11516 73.1 1.51516 73.3 1.81516 73.3H11.3152C11.3152 73.4 11.3152 73.6 11.3152 73.7V81.5C11.3152 82.2 11.9152 82.7 12.5152 82.7H42.7152C43.4152 82.7 43.9152 82.1 43.9152 81.5V73.8C43.9152 73.7 43.9152 73.5 43.9152 73.4H53.4152C54.1152 73.4 54.6152 72.8 54.6152 72.2V64.5C54.6152 62.9 54.6152 61.0999 53.6152 59.5999C52.4152 57.2999 50.0152 56.2 48.0152 55.2ZM32.6152 45.8C32.9152 43.1 35.5152 40.8 38.4152 40.8H38.5152C41.4152 40.8 44.0152 43.1 44.3152 45.8C44.5152 47.6 44.1152 49 43.5152 51C43.1152 52.1 43.0152 53.1 43.1152 53.9C41.6152 55.3 40.1152 55.9 38.5152 55.9C37.6152 55.9 36.8152 55.6 36.1152 55.3C36.1152 55.2 36.1152 55.1 36.1152 54.9C35.9152 52.8 34.7152 50.9 33.1152 49.5C32.6152 48.2 32.4152 47.1 32.6152 45.8ZM24.5152 51.1C25.4152 50.5 26.5152 50.2 27.6152 50.2H27.7152C28.8152 50.2 29.9152 50.6 30.8152 51.1C31.6152 51.6 32.3152 52.3 32.7152 53.1C33.0152 53.7 33.3152 54.3 33.4152 55C33.4152 55.1 33.4152 55.1 33.4152 55.2C33.5152 55.8 33.4152 56.3 33.4152 56.8C33.3152 57.9 33.0152 59 32.6152 60.3C32.6152 60.3 32.6152 60.3 32.6152 60.4C32.2152 61.5 32.1152 62.5 32.2152 63.3C31.7152 63.7 31.2152 64.1 30.7152 64.4C29.7152 65 28.6152 65.3 27.6152 65.3C26.4152 65.3 25.3152 64.8 24.5152 64.4C23.9152 64 23.3152 63.6 23.0152 63.3C23.1152 62.5 23.0152 61.5 22.6152 60.4C22.6152 60.4 22.6152 60.4 22.6152 60.3C22.1152 59 21.9152 57.9 21.8152 56.8C21.8152 56.3 21.7152 55.8 21.8152 55.2C21.8152 55.1 21.8152 55.1 21.8152 55C21.9152 54.3 22.1152 53.7 22.5152 53.1C23.0152 52.2 23.7152 51.6 24.5152 51.1ZM11.1152 45.8C11.4152 43.1 14.0152 40.8 16.9152 40.8H17.0152C19.9152 40.8 22.5152 43.1 22.8152 45.8C22.9152 47.1 22.8152 48.3 22.4152 49.6C20.7152 50.9 19.6152 52.8 19.4152 55C19.4152 55.1 19.4152 55.3 19.4152 55.4C18.6152 55.8 17.8152 55.9 17.0152 55.9C14.9152 55.9 13.2152 54.6 12.4152 53.9C12.5152 53.1 12.4152 52.1 12.0152 51C11.2152 48.9 10.9152 47.5 11.1152 45.8ZM12.3152 68.8C11.9152 69.5 11.6152 70.1 11.5152 70.8H3.01516V64.3C3.01516 62.8 3.11516 61.7 3.61516 60.8C4.61516 59.3 6.51516 58.4 8.41516 57.5C9.01516 57.2 9.61516 56.8999 10.2152 56.5999C10.5152 56.3999 10.8152 56.2 11.0152 56C12.2152 56.9 14.2152 58.2 16.8152 58.3C16.9152 58.3 16.9152 58.3 17.0152 58.3C17.8152 58.3 18.6152 58.2 19.4152 57.9C19.6152 59 19.9152 60.0999 20.3152 61.0999C21.0152 62.9999 20.5152 63.4 19.8152 63.8C19.3152 64.1 18.7152 64.2999 18.1152 64.5999C16.1152 65.5999 13.7152 66.7 12.3152 68.8ZM41.5152 80.2H13.8152V73.7C13.8152 73.6 13.8152 73.5 13.8152 73.3C13.8152 72.3 13.9152 71.5 14.1152 70.8C14.2152 70.6 14.3152 70.2999 14.4152 70.0999C15.4152 68.5999 17.3152 67.7 19.2152 66.8C19.8152 66.5 20.4152 66.2 21.0152 65.9C21.3152 65.7 21.6152 65.5 21.8152 65.3C21.9152 65.4 22.0152 65.4 22.0152 65.5C22.6152 66 23.5152 66.5 24.5152 66.9C25.4152 67.3 26.4152 67.4999 27.5152 67.5999C27.6152 67.5999 27.6152 67.5999 27.7152 67.5999C28.7152 67.5999 29.7152 67.4 30.7152 67C31.6152 66.7 32.4152 66.2 33.2152 65.5C33.3152 65.4 33.4152 65.4 33.4152 65.3C33.6152 65.5 33.9152 65.7 34.2152 65.9C34.8152 66.2 35.4152 66.5 36.0152 66.8C37.9152 67.7 39.8152 68.5999 40.8152 70.0999C40.9152 70.2999 41.0152 70.5 41.1152 70.8C41.4152 71.5 41.4152 72.3 41.4152 73.3C41.4152 73.4 41.4152 73.5 41.4152 73.7L41.5152 80.2ZM52.3152 70.8H43.8152C43.6152 70.1 43.4152 69.4 43.0152 68.8C41.6152 66.7 39.3152 65.5999 37.2152 64.5999C36.6152 64.2999 36.0152 64.1 35.5152 63.8C34.9152 63.5 34.3152 62.9999 35.0152 61.0999C35.4152 59.8999 35.7152 58.9 35.9152 57.9C36.6152 58.1 37.4152 58.3 38.3152 58.3C38.4152 58.3 38.4152 58.3 38.5152 58.3C40.5152 58.3 42.5152 57.5 44.3152 56C44.5152 56.2 44.8152 56.3999 45.1152 56.5999C45.7152 56.8999 46.3152 57.2 46.9152 57.5C48.8152 58.4 50.7152 59.3 51.7152 60.8C52.3152 61.7 52.4152 62.8 52.3152 64.4V70.8Z" fill="white"/>
<path d="M37.6153 50.6H39.7153C40.4153 50.6 40.9153 50 40.9153 49.4C40.9153 48.7 40.3153 48.2 39.7153 48.2H38.9153V45.8C38.9153 45.1 38.3153 44.6 37.7153 44.6C37.0153 44.6 36.5153 45.2 36.5153 45.8V49.5C36.3153 50 36.9153 50.6 37.6153 50.6Z" fill="white"/>
<path d="M51.8153 49.4999C51.1153 49.3999 50.5153 49.7999 50.3153 50.4999C50.2153 51.1999 50.6153 51.7999 51.3153 51.9999L53.6153 52.3999C53.7153 52.3999 53.7153 52.3999 53.8153 52.3999C54.4153 52.3999 54.9153 51.9999 55.0153 51.3999C55.1153 50.6999 54.7153 50.0999 54.0153 49.8999L51.8153 49.4999Z" fill="white"/>
<path d="M49.8152 43.9999C50.0152 44.4999 50.5152 44.7999 51.0152 44.7999C51.1152 44.7999 51.3152 44.7999 51.4152 44.6999L54.0152 43.7999C54.7152 43.5999 55.0152 42.8999 54.8152 42.1999C54.6152 41.4999 53.9152 41.1999 53.2152 41.3999L50.5152 42.3999C49.9152 42.5999 49.5152 43.2999 49.8152 43.9999Z" fill="white"/>
<path d="M47.6152 38.5001C47.9152 38.5001 48.3152 38.4001 48.5152 38.1001L49.9152 36.5001C50.4152 36.0001 50.3152 35.2001 49.8152 34.7001C49.3152 34.2001 48.5152 34.3001 48.0152 34.8001L46.7152 36.4001C46.2152 36.9001 46.3152 37.7001 46.8152 38.2001C47.0152 38.4001 47.3152 38.5001 47.6152 38.5001Z" fill="white"/>
<path d="M40.8152 34.9C40.9152 34.9 41.1152 35 41.2152 35C41.7152 35 42.2152 34.7 42.4152 34.2L43.1152 32.3C43.3152 31.6 43.0152 30.9 42.3152 30.7C41.6152 30.4 40.9152 30.8 40.7152 31.4L40.0152 33.3C39.8152 34 40.1152 34.7 40.8152 34.9Z" fill="white"/>
<path d="M26.1151 59.7C26.3151 59.9 26.5151 60 26.8151 60H28.9151C29.1151 60 29.2151 60 29.4151 59.9C29.8151 59.7 30.2151 59.3 30.2151 58.8C30.2151 58.3 29.9151 58 29.6151 57.8C29.4151 57.7 29.2151 57.6 29.0151 57.6H28.2151V56.1V55.7V55.1C28.2151 54.4 27.6151 53.9 27.0151 53.9C26.4151 53.9 25.9151 54.4 25.8151 54.9C25.8151 55 25.8151 55 25.8151 55.1V57.1V57.7V58.9C25.6151 59.1 25.8151 59.5 26.1151 59.7Z" fill="white"/>
<path d="M17.3152 21.1C18.9152 23.9 19.7152 28.1 19.8152 28.8V33.7C19.8152 34.4 20.4152 34.9 21.0152 34.9H23.0152V37.6C23.0152 38.3 23.6152 38.8 24.2152 38.8H30.7152C31.4152 38.8 31.9152 38.2 31.9152 37.6V34.9H33.9152C34.6152 34.9 35.1152 34.3 35.1152 33.7V28.7C35.3152 27.8 36.1152 23.7 37.6152 21C38.1152 20.1 38.7152 19 39.2152 17.9C40.3152 15.2 40.6152 12.8 40.2152 10.4C39.0152 4.5 33.3152 0 27.0152 0C24.5152 0 22.1152 0.699999 20.1152 2.1C17.3152 4.1 15.3152 7.1 14.6152 10.4C14.1152 12.8 14.4152 15.2 15.6152 17.9C16.2152 19.1 16.8152 20.2 17.3152 21.1ZM29.5152 36.5H25.5152V35H29.5152V36.5ZM32.8152 32.5H22.3152V30H32.8152V32.5ZM17.2152 11C17.8152 8.3 19.4152 5.9 21.7152 4.3C23.3152 3.2 25.2152 2.6 27.2152 2.6C32.3152 2.6 36.9152 6.2 37.9152 11C38.3152 12.9 38.0152 14.8 37.1152 17C36.7152 18 36.1152 19 35.6152 19.9C34.2152 22.4 33.3152 25.8 33.0152 27.5H28.8152V21.5L33.5152 13.4C33.7152 13 33.7152 12.5 33.5152 12.2C33.3152 11.8 32.9152 11.6 32.4152 11.6H22.7152C22.3152 11.6 21.8152 11.8 21.6152 12.2C21.4152 12.6 21.4152 13.1 21.6152 13.4L26.3152 21.6V27.5H22.1152C21.7152 25.8 20.9152 22.4 19.5152 19.9C19.0152 19 18.5152 18 18.0152 17C17.1152 14.8 16.8152 12.9 17.2152 11ZM27.5152 18.8L24.8152 14.1H30.2152L27.5152 18.8Z" fill="white"/>
</g>
</svg>
