<svg width="60" height="75" viewBox="0 0 60 75" fill="none" xmlns="http://www.w3.org/2000/svg">
<g opacity="0.5">
<path d="M33.1 26H40.2C45.3 26 49.4 21.9 49.4 16.7V9.2C49.4 4.1 45.3 0 40.2 0H16.7C11.6 0 7.5 4.1 7.5 9.2V16.7C7.5 21.8 11.6 26 16.7 26H22.1C21.9 27.9 21.5 31.1 21.3 32.8C21.2 33.2 21.4 33.5 21.6 33.8C21.8 34.1 22.2 34.2 22.5 34.2C22.6 34.2 30.1 33.8 33.1 26ZM24 31.5C24.4 28.8 24.7 25.1 24.7 24.9C24.7 24.5 24.6 24.2 24.4 23.9C24.2 23.6 23.8 23.5 23.5 23.5H16.7C13 23.5 10 20.5 10 16.7V9.2C10 5.5 13 2.4 16.7 2.4H40.2C43.9 2.4 47 5.4 47 9.2V16.7C47 20.4 44 23.5 40.2 23.5H32.2C31.7 23.5 31.2 23.9 31 24.4C29.4 29.3 26 30.9 24 31.5Z" fill="white"/>
<path d="M41.4001 16.9C41.4001 16.2 40.8001 15.7 40.2001 15.7H17C16.3 15.7 15.8 16.3 15.8 16.9C15.8 17.5 16.4 18.1 17 18.1H40.1C40.8 18.1 41.4001 17.6 41.4001 16.9Z" fill="white"/>
<path d="M17 11.1H33.3C34 11.1 34.5 10.5 34.5 9.89995C34.5 9.19995 33.9 8.69995 33.3 8.69995H17C16.3 8.69995 15.8 9.29995 15.8 9.89995C15.7 10.5 16.3 11.1 17 11.1Z" fill="white"/>
<path d="M48 31.7999C44.1 31.7999 41 34.8999 41 38.7999C41 42.6999 44.1 45.7999 48 45.7999C51.9 45.7999 55 42.6999 55 38.7999C55 34.8999 51.8 31.7999 48 31.7999ZM48 43.2999C45.5 43.2999 43.5 41.2999 43.5 38.7999C43.5 36.2999 45.5 34.2999 48 34.2999C50.5 34.2999 52.5 36.2999 52.5 38.7999C52.5 41.2999 50.5 43.2999 48 43.2999Z" fill="white"/>
<path d="M49.2 48.1999C43.7 48.1999 39.1 52.3999 38.5 57.7999C38 56.7999 37.5 55.7999 37.2 55.0999C37 54.5999 36.8 54.0999 36.6 53.6999C36.1 52.4999 34.6 50.5999 32 50.5999L31.1 47.9999H31.2C32.1 47.6999 32.8 46.9999 33.2 46.1999C33.6 45.2999 33.7 44.3999 33.3 43.4999L32.1 40.2999C31.6 38.8999 30.2 37.8999 28.7 37.8999C28.3 37.8999 27.9 37.9999 27.5 38.0999L25.1 38.9999C23.2 39.6999 22.3 41.6999 22.9 43.5999L24.1 46.7999C24.6 48.1999 26 49.1999 27.5 49.1999C27.9 49.1999 28.3 49.0999 28.7 48.9999L29.5 51.2999C29 51.5999 28.5 51.9999 28.2 52.4999C27.2 54.0999 27.6 55.9999 27.7 56.3999C28.6 62.4999 33 73.5999 42.8 73.5999C43.1 73.5999 43.3 73.5999 43.6 73.5999C43.8 73.5999 46.8 73.2999 50.2 71.8999C52.5 70.8999 55.1 69.3999 56.9 67.0999C57.1 66.8999 57.2 66.5999 57.4 66.3999V73.1999V73.3999C57.4 74.0999 58 74.5999 58.6 74.5999C59.3 74.5999 59.8 73.9999 59.8 73.3999V58.8999C60 52.9999 55.2 48.1999 49.2 48.1999ZM55.1 65.2999C52.2 68.9999 47.2 70.2999 44.8 70.6999C44 70.7999 43.5 70.8999 43.5 70.8999C42.5 70.9999 41.5 70.8999 40.6 70.5999C39.8 70.3999 39.1 70.0999 38.4 69.7999C32 66.2999 30.3 55.8999 30.3 55.7999V55.6999C30.2 55.3999 30.1 54.2999 30.5 53.5999C30.6 53.3999 30.8 53.1999 31.4 52.9999C33.5 52.5999 34.2 54.1999 34.4 54.4999V54.5999C34.6 54.8999 34.8 55.3999 35 55.8999C36 58.2999 37.1 60.6999 38.5 62.2999C38.9 62.7999 39.3 63.1999 39.7 63.4999C40.1 63.7999 40.5 63.9999 40.9 64.1999C41.1 64.2999 41.3 64.2999 41.5 64.3999C42.4 64.5999 43.7 64.3999 45.1 62.8999C47.1 60.6999 47.8 56.7999 47.8 56.5999C47.8 56.4999 47.8 56.3999 47.8 56.3999C47.8 55.7999 47.4 55.2999 46.8 55.1999C46.1 55.0999 45.5 55.4999 45.4 56.1999C45.2 57.0999 44.6 59.8999 43.3 61.1999C42.5 61.9999 42.1 61.8999 41.9 61.8999C41.6 61.7999 41.2 61.5999 40.9 61.2999V58.7999C40.9 54.1999 44.6 50.4999 49.2 50.4999C52.8 50.4999 55.9 52.8999 57 56.0999C57 56.0999 57 56.0999 57 56.1999V56.2999C57.6 59.9999 56.9 62.8999 55.1 65.2999ZM26.6 45.7999L25.5 42.5999C25.3 41.9999 25.6 41.3999 26.2 41.1999L28.6 40.2999C28.7 40.2999 28.8 40.1999 29 40.1999C29.5 40.1999 29.9 40.4999 30 40.8999L31.2 44.0999C31.3 44.3999 31.3 44.6999 31.2 44.8999C31.1 45.1999 30.9 45.3999 30.6 45.4999L28.2 46.3999C27.5 46.6999 26.8 46.3999 26.6 45.7999Z" fill="white"/>
<path d="M18.8 37.1C18.8 33.2 15.7 30.1 11.8 30.1C7.90005 30.1 4.80005 33.2 4.80005 37.1C4.80005 41 7.90005 44.1 11.8 44.1C15.6 44 18.8 40.9 18.8 37.1ZM11.8 32.6C14.3 32.6 16.3 34.6 16.3 37.1C16.3 39.6 14.3 41.6 11.8 41.6C9.30005 41.6 7.30005 39.6 7.30005 37.1C7.30005 34.6 9.30005 32.6 11.8 32.6Z" fill="white"/>
<path d="M10.8 46.2999C4.9 46.2999 0 51.0999 0 57.0999V67.9999C0 68.6999 0.600001 69.1999 1.2 69.1999C1.9 69.1999 2.4 68.5999 2.4 67.9999V57.0999C2.4 52.4999 6.1 48.7999 10.7 48.7999C15.3 48.7999 19 52.4999 19 57.0999V67.9999C19 68.6999 19.6 69.1999 20.2 69.1999C20.8 69.1999 21.4 68.5999 21.4 67.9999V57.0999C21.6 51.0999 16.7 46.2999 10.8 46.2999Z" fill="white"/>
</g>
</svg>
