<svg width="90" height="83" viewBox="0 0 90 83" fill="none" xmlns="http://www.w3.org/2000/svg">
<g opacity="0.5">
<path d="M87.45 65H83.55H14.95V22.5C14.95 21.8 14.65 21.2 14.25 20.7L12.45 19L4.25 10.8C3.25 9.80005 1.65 9.80005 0.75 10.8C-0.25 11.8 -0.25 13.4 0.75 14.3L10.05 23.6V67.6C10.05 69 11.15 70.1 12.55 70.1H24.45C23.25 71.4 22.55 73.2 22.55 75.1C22.55 79.2 25.95 82.6 30.05 82.6C34.15 82.6 37.55 79.2 37.55 75.1C37.55 73.2 36.85 71.4 35.65 70.1H67.05C65.85 71.4 65.15 73.2 65.15 75.1C65.15 79.2 68.55 82.6 72.65 82.6C76.75 82.6 79.95 79.1 79.95 75C79.95 73.1 79.25 71.3 78.05 70H87.45C88.85 70 89.95 68.9 89.95 67.5C89.95 66.1 88.85 65 87.45 65ZM29.95 77.5C28.55 77.5 27.45 76.4 27.45 75C27.45 73.6 28.55 72.5 29.95 72.5C31.35 72.5 32.45 73.6 32.45 75C32.45 76.4 31.35 77.5 29.95 77.5ZM72.45 77.5C71.05 77.5 69.95 76.4 69.95 75C69.95 73.6 71.05 72.5 72.45 72.5C73.85 72.5 74.95 73.6 74.95 75C74.95 76.4 73.85 77.5 72.45 77.5Z" fill="white"/>
<path d="M75.85 60H82.45C83.85 60 84.95 58.9 84.95 57.5V22.5C84.95 21.1 83.85 20 82.45 20H74.85C73.55 8.8 64.05 0 52.45 0C40.85 0 31.3499 8.8 30.0499 20H22.45C21.05 20 19.95 21.1 19.95 22.5V23.8V57.5C19.95 58.9 21.05 60 22.45 60H75.85ZM52.45 5C62.05 5 69.95 12.9 69.95 22.5C69.95 32.1 62.05 40 52.45 40C42.85 40 34.95 32.1 34.95 22.5C34.95 12.9 42.85 5 52.45 5ZM24.95 25H30.0499C31.2499 36.2 40.85 45 52.45 45C64.05 45 73.55 36.2 74.85 25H79.95V55H24.95V25Z" fill="white"/>
<path d="M48.15 31.8C48.65 32.3 49.25 32.5 49.95 32.5C50.65 32.5 51.25 32.3 51.75 31.8L64.25 19.3C65.25 18.3 65.25 16.7 64.25 15.8C63.25 14.8 61.65 14.8 60.75 15.8L49.95 26.5L44.25 20.8C43.25 19.8 41.65 19.8 40.75 20.8C39.75 21.8 39.75 23.4 40.75 24.3L48.15 31.8Z" fill="white"/>
</g>
</svg>
