<svg width="126" height="127" viewBox="0 0 126 127" fill="none" xmlns="http://www.w3.org/2000/svg">
<g opacity="0.5">
<path d="M63 103.232C68.5 103.232 73 98.7324 73 93.2324V37.1324C73 36.3324 73.5 35.9324 73.7 35.7324C73.9 35.6324 74.5 35.2324 75.3 35.5324C79.3 37.1324 82.9 38.2324 86.4 38.9324C87.7 39.2324 89.1 39.4324 90.5 39.6324L94.5 40.2324C100.5 41.0324 106.1 36.8324 106.9 30.8324C107.3 27.9324 106.6 25.0324 104.8 22.7324C103 20.4324 100.4 18.8324 97.5 18.4324L93.5 17.8324C82 16.2324 71.7 10.3324 64.4 1.13243C63.4 -0.167571 61.5 -0.367571 60.2 0.632429C58.9 1.63243 58.7 3.53243 59.7 4.83243C67.9 15.1324 79.6 21.8324 92.7 23.6324L96.7 24.2324C98 24.4324 99.2 25.1324 100 26.1324C100.8 27.2324 101.1 28.5324 101 29.8324C100.6 32.5324 98.1 34.4324 95.4 34.1324L91.4 33.5324C90.2 33.3324 88.9 33.1324 87.7 32.9324C84.5 32.3324 81.2 31.3324 77.6 29.8324C75.2 28.9324 72.6 29.2324 70.5 30.6324C68.4 32.0324 67.1 34.4324 67.1 36.9324V93.2324C67.1 95.4324 65.3 97.2324 63.1 97.2324C60.9 97.2324 59.1 95.4324 59.1 93.2324V63.8324C59.1 59.4324 56 55.7324 51.7 54.9324L22.8 49.7324C19.4 49.1324 17 46.2324 17 42.9324V3.03243C17 1.33243 15.7 0.032429 14 0.032429C12.3 0.032429 11 1.33243 11 3.03243V42.9324C11 49.2324 15.5 54.6324 21.7 55.7324L50.6 60.9324C52 61.2324 53.1 62.4324 53.1 63.9324V93.2324C53 98.7324 57.5 103.232 63 103.232Z" fill="white"/>
<path d="M3 112.232H46.3C47.7 120.232 54.7 126.232 63 126.232C71.3 126.232 78.3 120.232 79.7 112.232H108C109.7 112.232 111 110.932 111 109.232C111 107.532 109.7 106.232 108 106.232H3C1.3 106.232 0 107.532 0 109.232C0 110.932 1.3 112.232 3 112.232Z" fill="white"/>
<path d="M123 112.232C124.657 112.232 126 110.889 126 109.232C126 107.576 124.657 106.232 123 106.232C121.343 106.232 120 107.576 120 109.232C120 110.889 121.343 112.232 123 112.232Z" fill="white"/>
</g>
</svg>
