<svg width="66" height="72" viewBox="0 0 66 72" fill="none" xmlns="http://www.w3.org/2000/svg">
<g opacity="0.5">
<path d="M43 10.6H51.8C52.5 10.6 53 9.99995 53 9.39995C53 8.69995 52.4 8.19995 51.8 8.19995H43C42.3 8.19995 41.8 8.79995 41.8 9.39995C41.7 10.1 42.3 10.6 43 10.6Z" fill="white"/>
<path d="M54.3999 18.3H45.5999C44.8999 18.3 44.3999 18.9 44.3999 19.5C44.3999 20.2 44.9999 20.7001 45.5999 20.7001H54.3999C55.0999 20.7001 55.5999 20.1 55.5999 19.5C55.5999 18.9 54.9999 18.3 54.3999 18.3Z" fill="white"/>
<path d="M59.1001 14.5C59.1001 13.8 58.5 13.3 57.9 13.3H41C40.3 13.3 39.8 13.9 39.8 14.5C39.8 15.2 40.4 15.7 41 15.7H57.8C58.6 15.8 59.1001 15.2 59.1001 14.5Z" fill="white"/>
<path d="M45.0999 26.1C44.7999 27.6 44.3999 28.8 43.9999 29.6C43.6999 30 43.6999 30.5 43.9999 30.9C44.1999 31.3 44.5999 31.5 45.0999 31.5H45.1999C45.4999 31.5 51.6999 30.8 54.4999 26.1H54.8999C60.2999 26.1 64.5999 21.7 64.5999 16.4V11.1C64.5999 5.70002 60.1999 1.40002 54.8999 1.40002H43.5999C38.1999 1.40002 33.8999 5.80002 33.8999 11.1V16.4C33.8999 21.8 38.2999 26.1 43.5999 26.1H45.0999ZM36.3999 16.4V11.1C36.3999 7.10002 39.5999 3.90003 43.5999 3.90003H54.7999C58.7999 3.90003 61.9999 7.10002 61.9999 11.1V16.4C61.9999 20.4 58.7999 23.6 54.7999 23.6H53.5999C53.0999 23.6 52.6999 23.9 52.4999 24.3C51.3999 26.7 48.8999 27.9 47.0999 28.5C47.4999 27.2 47.6999 25.9 47.7999 25C47.7999 24.6 47.6999 24.3 47.4999 24C47.2999 23.7 46.8999 23.6 46.5999 23.6H43.6999C39.5999 23.6 36.3999 20.4 36.3999 16.4Z" fill="white"/>
<path d="M65.4 64.3C65.4 64.2 65.4 64.2001 65.4 64.1001L64.5 36C64.5 35.3 63.9 34.8 63.3 34.8H42.5C41.8 34.8 41.3 35.3 41.3 36L40.5 64.0001C40.5 64.1001 40.5 64.1001 40.5 64.2001V64.3L40.3 69.8C40.3 70.1 40.4001 70.5001 40.7001 70.7001C40.9001 70.9001 41.3 71.1001 41.6 71.1001H46.8C47.4 71.1001 47.9 70.7001 48 70.2001L49.5 64.9C49.6 64.7 49.7001 64.5001 49.7001 64.2001C49.7001 64.2001 49.7001 64.2001 49.7001 64.1001L52.8 52.7001L56 64.2001V64.3C56 64.6 56.1001 64.8001 56.2001 65.0001L57.7001 70.3C57.9001 70.8 58.3 71.2001 58.9 71.2001H64.2001C64.5001 71.2001 64.9001 71.1 65.1001 70.8C65.3001 70.6 65.5 70.2 65.5 69.9L65.4 64.3ZM45.8 68.7001H42.7001L42.8 65.5001H46.7001L45.8 68.7001ZM54 47.7001C53.8 47.2001 53.4 46.8 52.8 46.8C52.2 46.8 51.7001 47.2001 51.6001 47.7001L47.4 63.0001H42.9L43.7001 37.4001H62L62.8 63.0001H58.3L54 47.7001ZM59.9 68.7001L59 65.5001H62.9L63 68.7001H59.9Z" fill="white"/>
<path d="M0.800041 20.8C1.00004 21 1.30004 21.1 1.60004 21.1H4.10004L4.40004 25.1C4.40004 25.2 4.40004 25.3 4.40004 25.4C4.50004 27.5 5.60004 30 7.30004 30.6C7.80004 30.8 8.90004 30.9 9.80004 31C9.80004 31.5 9.80004 32.1 9.80004 32.6V33.9C9.80004 34.6 10.4 35.1 11 35.1H22.5C23.2 35.1 23.7 34.5 23.7 33.9V28.9C23.8 28.8 24 28.7 24.1 28.6C24.3 28.4 24.5 28.3 24.6 28.2C25.4 27.5 25.9 26.6 26.4 25.8C27.7 23.5 28.2 20.8 28.4 19C28.9 15.6 28.7 12.4 27.9 9.5C27.2 7.4 26.2 5.5 24.7 4C22.3 1.5 18.8 0 15.2 0C12 0 9.00004 1.2 6.80004 3.3C5.60004 4.4 4.60004 5.8 3.80004 7.6C2.90004 9.5 1.80004 12.4 1.00004 15.3C0.100042 19.8 0.200041 20.3 0.800041 20.8ZM8.80004 5.3C10.6 3.6 12.9 2.7 15.5 2.7C18.4 2.7 21.2 3.9 23.2 5.9C24.3 7.1 25.2 8.6 25.8 10.4C26.6 12.9 26.7 15.7 26.2 18.8C26 20.4 25.5 22.8 24.4 24.7C24 25.3 23.7 26 23.2 26.4C23.2 26.4 23.1 26.4 23.1 26.5V26.4C23 26.2 22.9 26 22.8 25.7C22.8 25.6 22.7 25.6 22.7 25.5C22.6 25.2 22.4 24.9 22.3 24.6C22.3 24.6 22.3 24.5 22.2 24.5C22.1 24.2 21.9 23.9 21.8 23.6V23.5C21.7 23.2 21.6 22.9 21.5 22.6C22.2 22.3 22.9 21.8 23.6 21.1C24.3 20.2 25.1 18.7 24.6 16.3C24.6 16.1 24.5 15.8 24.4 15.6C24.4 15.5 24.3 15.4 24.3 15.4C24.2 15.3 24.2 15.1 24.1 15C24.1 14.9 24 14.8 24 14.8C23.9 14.6 23.7 14.4 23.6 14.3L23.5 14.2C23.4 14.1 23.2 13.9 23.1 13.8C23 13.8 23 13.7 22.9 13.7C22.8 13.6 22.6 13.5 22.4 13.4L22.3 13.3C22.1 13.2 21.9 13.1 21.6 13C21.4 12.9 21.1 12.8 20.9 12.8C20.8 12.8 20.8 12.8 20.7 12.8C20.5 12.8 20.3 12.8 20.1 12.7H20C19.9 12.7 19.8 12.7 19.7 12.7C19.6 12.7 19.5 12.7 19.5 12.7C19.3 12.7 19.1 12.8 18.8 12.8C18.3 11.5 17.3 9.7 15 8.2C14.9 8.1 14.7 8 14.5 7.9C14.3 7.8 14.1 7.7 13.9 7.6C13.7 7.5 13.5 7.4 13.3 7.3C12.2 6.9 11 6.6 9.70004 6.5H9.60004C9.40004 6.5 9.30004 6.5 9.10004 6.5C9.00004 6.5 8.90004 6.5 8.80004 6.5H8.70004C8.50004 6.5 8.20004 6.5 8.00004 6.5H7.90004C8.20004 6 8.50004 5.6 8.80004 5.3ZM3.70004 16.1C4.40004 13.5 5.40004 10.9 6.20004 9.1H6.30004C6.40004 9.1 6.40004 9 6.50004 9H6.60004C6.70004 9 6.70004 9 6.80004 8.9H6.90004C7.00004 8.9 7.10004 8.9 7.10004 8.9H7.20004C7.30004 8.9 7.40004 8.9 7.40004 8.9H7.50004C7.60004 8.9 7.70004 8.9 7.70004 8.9H7.80004C7.90004 8.9 7.90004 8.9 8.00004 8.9H8.10004C8.20004 8.9 8.30004 8.9 8.30004 8.9C8.40004 8.9 8.60004 8.9 8.70004 8.9C10.3 8.9 11.8 9.3 12.9 10C13 10.1 13.1 10.1 13.2 10.2C16.2 12.2 16.3 14.5 16.3 14.6C16.3 15.1 16.6 15.5 17 15.7C17.4 15.9 17.9 15.9 18.3 15.6C18.4 15.5 18.5 15.4 18.6 15.4C18.7 15.3 18.8 15.3 18.9 15.3C18.9 15.3 18.9 15.3 19 15.3C19.1 15.3 19.2 15.2 19.3 15.2C19.3 15.2 19.3 15.2 19.4 15.2C19.5 15.2 19.6 15.2 19.7 15.2C19.8 15.2 19.9 15.2 20.1 15.2C20.2 15.2 20.4 15.3 20.5 15.3C20.7 15.4 20.8 15.4 20.9 15.5C20.9 15.5 21 15.5 21 15.6C21.1 15.7 21.3 15.8 21.4 15.9C21.5 16 21.6 16.2 21.7 16.3C21.7 16.3 21.7 16.4 21.8 16.4C21.9 16.5 21.9 16.7 22 16.8C22.2 17.9 22.1 18.8 21.6 19.5C21 20.4 19.9 20.6 20 20.6C19.7 20.6 19.3 20.7 19.1 21C19 21.1 19 21.1 19 21.2C19 21.2 19 21.2 19 21.3C19 21.4 18.9 21.5 18.9 21.5C18.9 21.6 18.8 21.7 18.8 21.8C18.8 21.9 18.8 22.1 18.8 22.2C19 24.1 20.2 26.6 20.9 28.1C21 28.3 21.1 28.4 21.1 28.5C21.1 28.5 21.1 28.6 21.2 28.6C21.2 28.6 21.2 28.7 21.3 28.7V32.7H12.3C12.3 31.8 12.3 31 12.3 30C12.3 29.7 12.2 29.3 11.9 29.1C11.8 28.8 11.4 28.7 11.1 28.7C10.6 28.7 8.70004 28.5 8.30004 28.3C8.00004 28.2 7.50004 27.4 7.20004 26.4C7.90004 26.4 8.80004 26.3 9.70004 26.2C10.4 26.1 10.8 25.4 10.7 24.8C10.6 24.1 9.90004 23.7 9.30004 23.8C8.30004 24 7.50004 24 6.90004 24L6.60004 19.9C6.50004 19.3 6.00004 18.8 5.40004 18.8H3.20004C3.20004 18 3.40004 17.2 3.70004 16.1Z" fill="white"/>
<path d="M9.30005 17C10.1285 17 10.8 16.3284 10.8 15.5C10.8 14.6716 10.1285 14 9.30005 14C8.47162 14 7.80005 14.6716 7.80005 15.5C7.80005 16.3284 8.47162 17 9.30005 17Z" fill="white"/>
<path d="M34.1 47.6C34.1 42.5 30 38.4 24.9 38.4H9.6C4.5 38.4 0.4 42.5 0.4 47.5L0 59.2C0 61.1 1.3 64.6 5.8 65V68C5.8 68.3 5.9 68.7 6.1 68.9C6.3 69.1 6.7 69.3 7 69.3H27.3C27.6 69.3 28 69.2 28.2 68.9C28.4 68.7 28.6 68.3 28.5 68L28.4 65.1C30.2 64.9 31.7 64.3 32.7 63.2C34.4 61.4 34.3 59.2 34.3 59.1L34.1 47.6ZM31 61.5C30.4 62.1 29.5 62.5 28.4 62.6L27.8 47.8C27.8 47.1 27.2 46.6 26.5 46.6C25.8 46.6 25.3 47.2 25.3 47.9L26.1 66.8H8.3L9.2 48C9.2 47.3 8.7 46.7 8 46.7C7.3 46.7 6.7 47.2 6.7 47.9L6 62.7C2.8 62.3 2.5 59.9 2.5 59.4L2.9 47.7C2.9 44 5.9 41 9.6 41H24.8C28.5 41 31.5 44 31.5 47.7L31.9 59.3C31.9 59.2 31.9 60.5 31 61.5Z" fill="white"/>
<path d="M21.9 46.5H16.7C16 46.5 15.5 47.1 15.5 47.7V53.4C15.5 54.1 16.1 54.6 16.7 54.6H21.9C22.6 54.6 23.1 54 23.1 53.4V47.7C23.2 47 22.6 46.5 21.9 46.5ZM20.7 52.2H18V49H20.7V52.2Z" fill="white"/>
</g>
</svg>
