<svg width="251" height="239" viewBox="0 0 251 239" fill="none" xmlns="http://www.w3.org/2000/svg">
<g opacity="0.5">
<path fill-rule="evenodd" clip-rule="evenodd" d="M38.6994 0C27.2277 0 17.8593 9.39703 17.8593 20.8738V36.4344H16.0742C7.24348 36.4344 0 43.7094 0 52.5423C0 61.3751 7.24348 68.6081 16.0742 68.6081H17.8593V103.426H16.0742C7.24348 103.426 0 110.667 0 119.5C0 128.333 7.24348 135.566 16.0742 135.566H17.8593V170.383H16.0742C7.24348 170.383 0 177.625 0 186.458C0 195.291 7.24348 202.557 16.0742 202.557H17.8593V218.151C17.8593 229.628 27.2277 239 38.6994 239H135.035C135.604 239.002 136.168 238.892 136.694 238.675C137.22 238.458 137.698 238.14 138.101 237.737C138.503 237.335 138.822 236.857 139.038 236.331C139.255 235.805 139.366 235.241 139.363 234.672C139.361 234.106 139.247 233.546 139.029 233.023C138.81 232.501 138.491 232.027 138.089 231.628C137.687 231.23 137.21 230.914 136.686 230.699C136.163 230.485 135.601 230.375 135.035 230.378H38.6994C31.8605 230.378 26.4816 225.006 26.4816 218.151V202.557H28.2667C37.0975 202.557 44.3325 195.291 44.3325 186.458C44.3325 177.625 37.0975 170.383 28.2667 170.383H26.4816V135.566H28.2667C37.0975 135.566 44.3325 128.333 44.3325 119.5C44.3325 110.667 37.0975 103.426 28.2667 103.426H26.4816V68.6081H28.2667C37.0975 68.6081 44.3325 61.3751 44.3325 52.5423C44.3325 43.7094 37.0975 36.4344 28.2667 36.4344H26.4816V20.8738C26.4816 14.0196 31.8604 8.62233 38.6994 8.62233H179.62C186.459 8.62233 191.813 14.0196 191.813 20.8738V105.623C191.815 106.19 191.929 106.75 192.148 107.272C192.366 107.794 192.686 108.268 193.088 108.667C193.489 109.066 193.966 109.381 194.49 109.596C195.014 109.811 195.575 109.92 196.141 109.918C197.279 109.913 198.368 109.459 199.173 108.655C199.977 107.851 200.431 106.761 200.435 105.623V20.8738C200.435 9.39703 191.092 0 179.62 0H38.6994ZM98.3652 32.6368C97.2246 32.601 96.1164 33.0188 95.2834 33.7988L74.5696 53.4264L65.7873 44.1725C65.0054 43.3431 63.9269 42.8571 62.7876 42.8208C61.6483 42.7845 60.541 43.2008 59.7079 43.9788C59.2922 44.3665 58.9573 44.8326 58.7224 45.3503C58.4875 45.8679 58.3573 46.4269 58.3393 46.9951C58.3213 47.5632 58.4159 48.1293 58.6175 48.6608C58.8191 49.1923 59.1239 49.6787 59.5142 50.0919L71.2941 62.5033C72.0807 63.328 73.1617 63.8077 74.3009 63.8376C75.4401 63.8675 76.5448 63.4452 77.3736 62.663L101.203 40.0631C102.028 39.2767 102.507 38.1957 102.537 37.0564C102.567 35.9172 102.145 34.8124 101.363 33.9837C100.581 33.1564 99.5031 32.6725 98.3652 32.6368ZM128.577 43.9115C128.008 43.9093 127.444 44.0197 126.918 44.2365C126.392 44.4532 125.914 44.7719 125.512 45.1742C125.109 45.5765 124.791 46.0545 124.574 46.5806C124.357 47.1067 124.247 47.6705 124.249 48.2395C124.25 48.8064 124.363 49.3675 124.581 49.8906C124.799 50.4138 125.119 50.8888 125.521 51.2885C125.923 51.6882 126.399 52.0046 126.924 52.2198C127.448 52.4349 128.01 52.5445 128.577 52.5423H162.342C163.481 52.5378 164.572 52.0828 165.377 51.2766C166.181 50.4704 166.634 49.3785 166.636 48.2395C166.639 47.6734 166.529 47.1123 166.315 46.5884C166.1 46.0645 165.784 45.588 165.386 45.1861C164.987 44.7843 164.513 44.4648 163.991 44.2461C163.468 44.0275 162.908 43.9138 162.342 43.9115H128.577ZM16.0742 45.0567H28.2667C32.4647 45.0567 35.7102 48.332 35.7102 52.5423C35.7102 56.7526 32.4647 59.9858 28.2667 59.9858H16.0742C11.8762 59.9858 8.63073 56.7526 8.63073 52.5423C8.63073 48.332 11.8762 45.0567 16.0742 45.0567ZM98.3736 93.7172C97.8063 93.7006 97.2412 93.7962 96.7109 93.9985C96.1806 94.2008 95.6955 94.5059 95.2834 94.8961L74.6033 114.532L65.7873 105.245C65.0008 104.42 63.9198 103.94 62.7806 103.91C61.6413 103.88 60.5366 104.303 59.7079 105.085C58.881 105.866 58.3966 106.943 58.3604 108.08C58.3241 109.218 58.7389 110.323 59.5142 111.156L71.2941 123.567C72.0807 124.392 73.1617 124.872 74.3009 124.902C75.4401 124.931 76.5448 124.509 77.3736 123.727L101.203 101.169C101.616 100.779 101.948 100.311 102.18 99.7925C102.412 99.2736 102.539 98.714 102.554 98.1459C102.569 97.5777 102.472 97.0123 102.267 96.482C102.063 95.9517 101.755 95.4671 101.363 95.0561C100.581 94.2339 99.5073 93.7529 98.3736 93.7172ZM128.577 105.017C128.011 105.015 127.45 105.124 126.926 105.339C126.402 105.553 125.925 105.869 125.524 106.268C125.122 106.667 124.802 107.141 124.584 107.663C124.365 108.185 124.251 108.745 124.249 109.312C124.247 109.88 124.357 110.444 124.574 110.97C124.791 111.496 125.109 111.974 125.512 112.377C125.914 112.779 126.392 113.098 126.918 113.315C127.444 113.531 128.008 113.642 128.577 113.639H162.342C162.908 113.637 163.468 113.524 163.991 113.305C164.513 113.086 164.987 112.767 165.386 112.365C165.784 111.963 166.1 111.486 166.315 110.963C166.529 110.439 166.639 109.878 166.636 109.312C166.632 108.174 166.178 107.084 165.374 106.28C164.569 105.475 163.48 105.022 162.342 105.017H128.577ZM16.0742 112.048H28.2667C32.4647 112.048 35.7102 115.29 35.7102 119.5C35.7102 123.71 32.4647 126.943 28.2667 126.943H16.0742C11.8762 126.943 8.63073 123.71 8.63073 119.5C8.63073 115.29 11.8762 112.048 16.0742 112.048ZM195.442 129.646C165.323 129.646 140.828 154.183 140.828 184.327C140.828 214.472 165.323 239 195.442 239C225.561 239 250.047 214.472 250.047 184.327C250.047 154.183 225.561 129.646 195.442 129.646ZM195.442 138.277C220.896 138.277 241.425 158.837 241.425 184.327C241.425 209.818 220.896 230.378 195.442 230.378C169.988 230.378 149.451 209.818 149.451 184.327C149.451 158.837 169.988 138.277 195.442 138.277ZM98.3736 154.789C97.8063 154.773 97.2412 154.868 96.7109 155.071C96.1806 155.273 95.6955 155.578 95.2834 155.968L74.6033 175.604L65.7873 166.308C65.0008 165.483 63.9198 165.004 62.7806 164.974C61.6413 164.944 60.5366 165.366 59.7079 166.148C59.2922 166.536 58.9573 167.002 58.7224 167.52C58.4875 168.037 58.3573 168.596 58.3393 169.165C58.3213 169.733 58.4159 170.299 58.6175 170.83C58.8191 171.362 59.1239 171.848 59.5142 172.261L71.2941 184.673C72.0807 185.498 73.1617 185.977 74.3009 186.007C75.4401 186.037 76.5448 185.615 77.3736 184.833L101.203 162.241C102.028 161.455 102.507 160.374 102.537 159.234C102.567 158.095 102.145 156.99 101.363 156.162C100.587 155.327 99.5122 154.834 98.3736 154.789ZM192.284 157.021C191.718 157.023 191.158 157.136 190.636 157.355C190.114 157.574 189.64 157.893 189.241 158.295C188.842 158.697 188.526 159.174 188.312 159.697C188.097 160.221 187.988 160.782 187.99 161.349V192.377C187.985 193.147 188.186 193.905 188.572 194.572C188.958 195.238 189.516 195.789 190.188 196.166L206.927 205.487C207.422 205.767 207.968 205.945 208.532 206.013C209.096 206.081 209.668 206.036 210.215 205.882C210.762 205.728 211.273 205.467 211.719 205.115C212.165 204.762 212.537 204.325 212.813 203.829C213.364 202.829 213.497 201.651 213.181 200.554C212.865 199.457 212.127 198.53 211.129 197.977L196.612 189.859V161.349C196.615 160.78 196.504 160.216 196.288 159.69C196.071 159.164 195.752 158.686 195.35 158.283C194.947 157.881 194.469 157.562 193.943 157.345C193.417 157.129 192.853 157.018 192.284 157.021ZM16.0742 179.006H28.2667C32.4647 179.006 35.7102 182.247 35.7102 186.458C35.7102 190.668 32.4647 193.935 28.2667 193.935H16.0742C11.8762 193.935 8.63073 190.668 8.63073 186.458C8.63073 182.247 11.8762 179.006 16.0742 179.006Z" fill="white"/>
</g>
</svg>
