<svg width="67" height="75" viewBox="0 0 67 75" fill="none" xmlns="http://www.w3.org/2000/svg">
<g opacity="0.5">
<path d="M7.10635 23.7C7.00635 22.5 7.00635 21.4 7.00635 20.4C6.90635 15.5 8.50635 12.7 11.8063 12.3C13.0063 12.1 13.9063 12.6 14.3063 13C14.5063 13.2 14.7063 13.4 14.9063 13.7C15.2063 14.2 15.5063 14.8 15.6063 15.5C15.8063 16.4 15.8063 17.4 15.9063 18.2C15.9063 18.6 15.9063 19 16.0063 19.3C16.1063 20.1 16.1063 20.8 16.2063 21.6V21.7L17.0063 21.5L18.2063 21.2L21.4063 20.5L20.6063 17.3L28.0063 18.3L25.4063 6.80005L19.3063 11.4L18.5063 7.70005L0.00634766 11.8L2.90635 24.6L7.10635 23.7Z" fill="white"/>
<path d="M49.4065 13.5C53.1065 13.5 56.2065 10.5 56.2065 6.7C56.2065 3 53.2065 0 49.4065 0C45.7065 0 42.7065 3 42.7065 6.7C42.6065 10.5 45.7065 13.5 49.4065 13.5ZM49.4065 2.5C51.7065 2.5 53.7065 4.4 53.7065 6.7C53.7065 9 51.8065 10.9 49.4065 10.9C47.1065 10.9 45.2065 9 45.2065 6.7C45.1065 4.4 47.0065 2.5 49.4065 2.5Z" fill="white"/>
<path d="M66.0065 42.7L65.0065 25.8C65.0065 21 60.5065 16.5 55.8065 16.5H42.5065C37.3065 16.5 33.1065 21.6 33.2065 25.7L32.5065 37C30.1065 34.9 27.7065 32.8 25.5065 30.6C25.2065 30.3 24.9065 30 24.5065 29.6C23.0065 28.2 20.5065 25.7 19.1065 23.6L17.8065 23.9L16.5065 24.2H16.3065C16.5065 26.3 16.7065 28.4 16.9065 30.5C17.1065 32.9 17.3065 35.3 17.6065 37.7C18.0065 42.1 17.9065 46.5 14.8065 50.1C14.5065 50.4 14.2065 50.7 13.9065 51C13.6065 51.3 13.3065 51.6 12.9065 51.8L37.2065 74.1C37.3065 74.2 37.4065 74.2 37.4065 74.2L37.5065 74.3C37.6065 74.4 37.8065 74.4 38.0065 74.4H44.2065C44.8065 74.4 45.3065 74 45.4065 73.4L46.6065 66.8L53.6065 74C53.6065 74 53.6065 74 53.7065 74C53.8065 74.1 53.9065 74.1 54.0065 74.2C54.0065 74.2 54.1065 74.2 54.1065 74.3C54.2065 74.4 54.4065 74.4 54.6065 74.4H59.9065C60.2065 74.4 60.6065 74.3 60.8065 74C61.0065 73.8 61.2065 73.4 61.1065 73.1L60.0065 50.5L59.9065 48.2C61.1065 48.1 63.1065 47.7 64.5065 46.3C65.5065 45.4 66.0065 44.2 66.0065 42.7ZM62.8065 44.6C62.0065 45.3 60.7065 45.6 59.8065 45.8L58.6065 26.5C58.6065 25.8 58.0065 25.3 57.3065 25.3C56.6065 25.3 56.2065 25.9 56.1065 26.5V26.6L57.3065 47L57.5065 50.6L58.6065 71.9H55.6065L50.2065 47.8C50.1065 47.2 49.6065 46.9 49.0065 46.8C49.0065 46.8 49.0065 46.8 48.9065 46.8C48.3065 46.8 47.8065 47.2 47.7065 47.8L44.6065 64L43.1065 71.9H39.6065H39.4065L39.7065 64.7L40.1065 56.1L40.4065 50.6L40.6065 47.1V46.6L40.7065 45.6L40.8065 44.1L42.1065 26.3C42.1065 26.3 42.1065 26.3 42.1065 26.2C42.1065 25.5 41.6065 25 40.9065 24.9C40.2065 24.8 39.6065 25.4 39.6065 26.1L38.5065 42.1L38.4065 43.6L38.3065 45.1V45.2C35.2065 44.8 34.8065 43.1 34.7065 42.7V42.2L34.8065 40.6L34.9065 39L35.7065 25.8C35.7065 22.8 38.9065 19 42.6065 19H55.8065C59.2065 19 62.5065 22.3 62.5065 25.8L63.5065 42.7C63.5065 43.5 63.3065 44.1 62.8065 44.6Z" fill="white"/>
<path d="M15.0064 37.9C14.8064 35.5 14.6064 33.1 14.3064 30.7C14.1064 28.7 13.9064 26.7 13.8064 24.7C13.8064 24.3 13.7064 23.9 13.7064 23.4C13.7064 23.3 13.7064 23.3 13.7064 23.2L13.6064 22.2V21.7C13.5064 20.9 13.5064 20.2 13.4064 19.4C13.4064 19 13.3064 18.6 13.3064 18.2C13.3064 18.1 13.3064 17.9 13.3064 17.7C13.3064 17.4 13.3064 17 13.2064 16.6C13.1064 15.8 13.0064 15.1 12.6064 14.8C12.6064 14.8 12.5064 14.7 12.2064 14.7C12.1064 14.7 12.1064 14.7 12.0064 14.7C10.7064 14.9 9.30644 15.7 9.40644 20.2C9.40644 21 9.50644 22 9.50644 23C9.50644 23.4 9.50644 23.7999 9.60644 24.2999C9.60644 24.6999 9.70644 25.1 9.70644 25.6C9.70644 25.7 9.70644 25.6999 9.70644 25.7999C10.2064 33.4999 10.4064 38.7 9.10644 40.7C8.70644 41.3 8.00644 41.4 7.40644 41.1C6.80644 40.7 6.60644 40 7.00644 39.4C7.90644 38.1 7.60645 32.3 7.30645 27.7C4.30645 30.4 -0.193556 35 0.00644399 38.1C0.306444 43.2 3.40644 48.7 6.90644 50.4C8.40644 51.1 9.70644 51 11.0064 50.1C11.9064 49.4 12.7064 48.7 13.3064 47.9C15.2064 45.3 15.4064 42 15.0064 37.9Z" fill="white"/>
</g>
</svg>
