<svg width="168" height="162" viewBox="0 0 168 162" fill="none" xmlns="http://www.w3.org/2000/svg">
<g opacity="0.5">
<path d="M168 59.9482C168 59.7064 168 59.4647 168 59.223C168 58.4978 167.758 58.0143 167.516 57.5309L153.255 28.0402V20.5467C153.255 18.8546 151.804 17.646 150.354 17.646C148.662 17.646 147.453 19.0964 147.453 20.5467V28.0402L132.95 58.0143C132.708 58.4978 132.708 58.9812 132.708 59.223V131.258V144.311C132.708 152.529 139.476 159.298 147.695 159.298H153.013C161.232 159.298 168 152.529 168 144.311V131.741C168 131.499 168 131.499 168 131.258V131.016V59.9482ZM161.957 144.311C161.957 149.387 157.847 153.496 152.771 153.496H147.453C142.377 153.496 138.267 149.387 138.267 144.311V138.268C141.652 139.718 145.761 140.201 150.112 140.201C154.221 140.201 158.573 139.476 161.715 138.268V144.311H161.957ZM150.112 35.5338L161.715 59.223C160.748 60.1899 156.639 61.882 150.112 61.882C143.585 61.882 139.476 59.9482 138.509 59.223L150.112 35.5338ZM150.112 68.1669C154.221 68.1669 158.573 67.4417 161.715 66.233V131.258C160.99 132.224 156.88 134.158 150.112 134.158C142.86 134.158 138.751 131.983 138.267 131.258V66.233C141.652 67.4417 146.003 68.1669 150.112 68.1669Z" fill="white"/>
<path d="M116.029 7.01007H86.5381V2.90072C86.5381 1.20863 85.0878 0 83.6374 0H35.2921C33.6 0 32.3914 1.45036 32.3914 2.90072V7.01007H2.90072C1.20863 7.01007 0 8.46043 0 9.91079V158.814C0 160.506 1.45036 161.715 2.90072 161.715H116.029C117.721 161.715 118.929 160.265 118.929 158.814V9.91079C119.171 8.21871 117.721 7.01007 116.029 7.01007ZM113.128 143.586H5.80144V13.0532H32.1496V17.4043C32.1496 19.0964 33.6 20.305 35.0504 20.305H83.3957C85.0878 20.305 86.2964 18.8547 86.2964 17.4043V13.0532H112.645V143.586H113.128ZM113.128 155.672H5.80144V149.387H112.886V155.672H113.128ZM38.1928 7.01007V5.80144H80.495V7.01007V9.91079V13.0532V14.2619H38.1928V13.0532V10.1525V7.01007Z" fill="white"/>
<path d="M22.4808 44.9611C20.7887 44.9611 19.5801 46.4115 19.5801 47.8618V87.505C19.5801 89.1971 21.0304 90.4057 22.4808 90.4057H98.1412C99.8333 90.4057 101.042 88.9554 101.042 87.505V47.8618C101.042 46.1698 99.5916 44.9611 98.1412 44.9611H22.4808ZM94.9988 84.3626H25.3815V51.0043H94.9988V84.3626Z" fill="white"/>
<path d="M49.3125 98.8663H22.4808C20.7887 98.8663 19.5801 100.317 19.5801 101.767V128.115C19.5801 129.807 21.0304 131.016 22.4808 131.016H49.5542C51.2463 131.016 52.4549 129.566 52.4549 128.115V101.767C52.4549 100.075 51.0045 98.8663 49.3125 98.8663ZM46.4117 125.214H25.3815V104.909H46.4117V125.214Z" fill="white"/>
<path d="M68.8921 33.6V30.4575H49.554V33.6V36.5007H68.8921V33.6Z" fill="white"/>
<path d="M79.7698 33.6V36.5007H99.1079V33.6V30.4575H79.7698V33.6Z" fill="white"/>
<path d="M62.6069 102.734V105.876H99.1077V102.734V99.8331H62.6069V102.734Z" fill="white"/>
<path d="M62.6069 114.82V117.963H99.1077V114.82V111.919H62.6069V114.82Z" fill="white"/>
<path d="M62.6069 126.906V130.049H99.1077V126.906V124.006H62.6069V126.906Z" fill="white"/>
<path d="M39.1597 33.6V30.4575H19.8215V33.6V36.5007H39.1597V33.6Z" fill="white"/>
</g>
</svg>
