<svg width="195" height="195" viewBox="0 0 195 195" fill="none" xmlns="http://www.w3.org/2000/svg">
<path opacity="0.5" d="M179.374 78.8209C175.85 63.4101 168.051 49.3056 156.873 38.1273C145.694 26.949 131.59 19.1501 116.179 15.6263C115.393 11.2443 113.091 7.27823 109.677 4.42169C106.262 1.56515 101.952 0 97.5 0C93.0481 0 88.7379 1.56515 85.3233 4.42169C81.9086 7.27823 79.607 11.2443 78.8209 15.6263C63.4101 19.1501 49.3056 26.949 38.1273 38.1273C26.949 49.3056 19.1501 63.4101 15.6263 78.8209C11.2443 79.607 7.27823 81.9086 4.42169 85.3233C1.56515 88.7379 0 93.0481 0 97.5C0 101.952 1.56515 106.262 4.42169 109.677C7.27823 113.091 11.2443 115.393 15.6263 116.179C19.1501 131.59 26.949 145.694 38.1273 156.873C49.3056 168.051 63.4101 175.85 78.8209 179.374C79.607 183.756 81.9086 187.722 85.3233 190.578C88.7379 193.435 93.0481 195 97.5 195C101.952 195 106.262 193.435 109.677 190.578C113.091 187.722 115.393 183.756 116.179 179.374C131.59 175.85 145.694 168.051 156.873 156.873C168.051 145.694 175.85 131.59 179.374 116.179C183.756 115.393 187.722 113.091 190.578 109.677C193.435 106.262 195 101.952 195 97.5C195 93.0481 193.435 88.7379 190.578 85.3233C187.722 81.9086 183.756 79.607 179.374 78.8209ZM97.5 10.7464C99.1086 10.7464 100.681 11.2234 102.019 12.1171C103.356 13.0107 104.398 14.281 105.014 15.7671C105.63 17.2532 105.791 18.8886 105.477 20.4662C105.163 22.0439 104.388 23.4931 103.251 24.6305C102.114 25.768 100.664 26.5426 99.0867 26.8564C97.509 27.1702 95.8737 27.0092 94.3876 26.3936C92.9014 25.778 91.6312 24.7356 90.7375 23.3981C89.8438 22.0606 89.3668 20.4881 89.3668 18.8795C89.3668 16.7225 90.2237 14.6538 91.749 13.1285C93.2742 11.6033 95.3429 10.7464 97.5 10.7464ZM18.8795 105.633C17.2709 105.633 15.6985 105.156 14.361 104.262C13.0235 103.369 11.9811 102.099 11.3655 100.612C10.7499 99.1263 10.5888 97.491 10.9027 95.9133C11.2165 94.3356 11.9911 92.8864 13.1285 91.749C14.266 90.6115 15.7152 89.8369 17.2928 89.5231C18.8705 89.2093 20.5058 89.3704 21.992 89.9859C23.4781 90.6015 24.7483 91.644 25.642 92.9815C26.5357 94.3189 27.0127 95.8914 27.0127 97.5C27.0127 99.657 26.1558 101.726 24.6305 103.251C23.1053 104.776 21.0366 105.633 18.8795 105.633ZM97.5 184.254C95.8914 184.254 94.3189 183.777 92.9815 182.883C91.644 181.989 90.6015 180.719 89.9859 179.233C89.3704 177.747 89.2093 176.111 89.5231 174.534C89.8369 172.956 90.6115 171.507 91.749 170.369C92.8864 169.232 94.3356 168.457 95.9133 168.144C97.491 167.83 99.1263 167.991 100.612 168.606C102.099 169.222 103.369 170.264 104.262 171.602C105.156 172.939 105.633 174.512 105.633 176.12C105.633 178.278 104.776 180.346 103.251 181.871C101.726 183.397 99.657 184.254 97.5 184.254ZM114.905 168.557C113.789 166.028 112.141 163.769 110.073 161.935C108.005 160.101 105.566 158.735 102.922 157.929V124.15L107.233 128.433C108.27 129.321 109.604 129.786 110.969 129.733C112.333 129.68 113.628 129.114 114.594 128.149C115.559 127.183 116.125 125.889 116.178 124.524C116.23 123.159 115.766 121.825 114.878 120.788L101.323 107.233C100.307 106.223 98.9324 105.656 97.5 105.656C96.0675 105.656 94.6933 106.223 93.6774 107.233L80.1222 120.788C79.2339 121.825 78.7697 123.159 78.8224 124.524C78.8751 125.889 79.4408 127.183 80.4065 128.149C81.3721 129.114 82.6666 129.68 84.0312 129.733C85.3958 129.786 86.7301 129.321 87.7673 128.433L92.0779 124.15V157.929C89.424 158.723 86.976 160.088 84.9059 161.929C82.8358 163.769 81.1938 166.041 80.095 168.584C67.1002 165.395 55.228 158.705 45.769 149.241C36.3099 139.777 29.6259 127.901 26.4434 114.905C28.9722 113.789 31.2306 112.141 33.0646 110.073C34.8986 108.005 36.265 105.566 37.0707 102.922H70.8504L66.5669 107.233C65.9993 107.719 65.5383 108.317 65.2129 108.99C64.8874 109.662 64.7045 110.395 64.6757 111.142C64.6468 111.888 64.7727 112.633 65.0453 113.329C65.3179 114.025 65.7313 114.657 66.2597 115.185C66.7881 115.713 67.4201 116.127 68.1159 116.399C68.8117 116.672 69.5563 116.798 70.303 116.769C71.0497 116.74 71.7824 116.557 72.4551 116.232C73.1278 115.906 73.726 115.445 74.2121 114.878L87.7673 101.323C88.7772 100.307 89.344 98.9324 89.344 97.5C89.344 96.0675 88.7772 94.6933 87.7673 93.6774L74.2121 80.1222C73.1748 79.2339 71.8406 78.7697 70.4759 78.8224C69.1113 78.8751 67.8169 79.4408 66.8512 80.4065C65.8856 81.3721 65.3199 82.6666 65.2672 84.0312C65.2145 85.3958 65.6786 86.7301 66.5669 87.7673L70.8504 92.0779H37.0707C36.2769 89.424 34.9118 86.976 33.0712 84.9059C31.2306 82.8358 28.9591 81.1938 26.4163 80.095C29.6053 67.1002 36.2954 55.228 45.7592 45.769C55.223 36.3099 67.0986 29.6259 80.095 26.4434C81.2108 28.9722 82.8589 31.2306 84.9268 33.0646C86.9947 34.8986 89.4339 36.265 92.0779 37.0707V70.8504L87.7673 66.5669C86.7301 65.6786 85.3958 65.2145 84.0312 65.2672C82.6666 65.3199 81.3721 65.8856 80.4065 66.8512C79.4408 67.8169 78.8751 69.1113 78.8224 70.4759C78.7697 71.8406 79.2339 73.1748 80.1222 74.2121L93.6774 87.7673C94.6933 88.7772 96.0675 89.344 97.5 89.344C98.9324 89.344 100.307 88.7772 101.323 87.7673L114.878 74.2121C115.766 73.1748 116.23 71.8406 116.178 70.4759C116.125 69.1113 115.559 67.8169 114.594 66.8512C113.628 65.8856 112.333 65.3199 110.969 65.2672C109.604 65.2145 108.27 65.6786 107.233 66.5669L102.922 70.8504V37.0707C105.576 36.2769 108.024 34.9118 110.094 33.0712C112.164 31.2306 113.806 28.9591 114.905 26.4163C127.9 29.6053 139.772 36.2954 149.231 45.7592C158.69 55.223 165.374 67.0986 168.557 80.095C166.028 81.2108 163.769 82.8589 161.935 84.9268C160.101 86.9947 158.735 89.4339 157.929 92.0779H124.15L128.433 87.7673C129.366 86.7343 129.866 85.382 129.829 83.9907C129.792 82.5993 129.222 81.2753 128.236 80.2928C127.25 79.3104 125.924 78.7447 124.532 78.7129C123.141 78.6812 121.791 79.1857 120.761 80.1222L107.206 93.6774C106.196 94.6933 105.629 96.0675 105.629 97.5C105.629 98.9324 106.196 100.307 107.206 101.323L120.761 114.878C121.265 115.385 121.865 115.788 122.526 116.062C123.186 116.337 123.895 116.478 124.61 116.477C125.68 116.473 126.723 116.152 127.611 115.556C128.498 114.96 129.19 114.115 129.598 113.127C130.007 112.139 130.114 111.053 129.907 110.004C129.7 108.955 129.187 107.991 128.433 107.233L124.15 102.922H157.929C158.723 105.576 160.088 108.024 161.929 110.094C163.769 112.164 166.041 113.806 168.584 114.905C165.395 127.9 158.705 139.772 149.241 149.231C139.777 158.69 127.901 165.374 114.905 168.557ZM176.12 105.633C174.512 105.633 172.939 105.156 171.602 104.262C170.264 103.369 169.222 102.099 168.606 100.612C167.991 99.1263 167.83 97.491 168.144 95.9133C168.457 94.3356 169.232 92.8864 170.369 91.749C171.507 90.6115 172.956 89.8369 174.534 89.5231C176.111 89.2093 177.747 89.3704 179.233 89.9859C180.719 90.6015 181.989 91.644 182.883 92.9815C183.777 94.3189 184.254 95.8914 184.254 97.5C184.254 99.657 183.397 101.726 181.871 103.251C180.346 104.776 178.278 105.633 176.12 105.633Z" fill="white"/>
</svg>
