<svg width="54" height="84" viewBox="0 0 54 84" fill="none" xmlns="http://www.w3.org/2000/svg">
<g opacity="0.5">
<path d="M16.4657 47.5V46.3C16.4657 46.1 16.4657 46 16.4657 45.8C16.3657 43.2 15.0657 39.9 12.5657 38.4C11.3657 37.7 9.46569 37.1 6.96569 38.3C3.36569 40 1.36569 45.2 1.06569 49.3C0.865685 51.1 0.965686 53.1 1.26569 55.5C1.36569 56 1.96569 58 2.26569 58.9C3.16569 61.9 3.36569 62.6 4.26569 62.6C4.36569 62.6 4.46569 62.6 4.56569 62.6H4.76569C4.76569 63 4.86569 63.5 4.96569 63.9L5.16569 71.4L0.165686 80.2C-0.0343143 80.5 -0.0343147 80.9 0.0656853 81.2C0.165685 81.5 0.365686 81.8 0.765686 82L4.46569 83.7C4.66569 83.8 4.86569 83.8 4.96569 83.8C5.36569 83.8 5.66569 83.6 5.96569 83.3L11.8657 76L13.9657 82.8C14.1657 83.3 14.5657 83.7 15.1657 83.7H18.8657C19.1657 83.7 19.5657 83.6 19.7657 83.3C19.9657 83.1 20.1657 82.7 20.1657 82.4L19.7657 69.6C19.7657 69.5 19.7657 69.4 19.7657 69.3L16.5657 58.2V57.3C17.0657 57.6 17.5657 57.9 18.0657 58.2C18.7657 58.6 19.4657 59 20.1657 59.4C20.3657 59.5 20.5657 59.6 20.8657 59.6C21.2657 59.6 21.6657 59.4 21.8657 59L23.5657 56.4C23.8657 55.9 23.8657 55.3 23.4657 54.9L16.4657 47.5ZM19.3657 56.1C18.3657 55.5 17.4657 54.9 16.5657 54.4V51.2L20.9657 56L20.4657 56.8C20.0657 56.5 19.6657 56.3 19.3657 56.1ZM13.9657 55.7V57.1H9.06569L8.86568 54.6L8.56569 51.3C8.96569 50.7 9.36569 49.9 9.76569 49.1C10.3657 47.9 11.0657 46.6 11.6657 45.2C11.9657 44.6 11.6657 43.8 11.0657 43.5C10.4657 43.2 9.66568 43.5 9.36568 44.1C8.56568 45.8 7.16569 48.7 6.16569 50.2C5.96569 50.4 5.96569 50.7 5.96569 51L6.46569 57.3L6.76569 59.7L5.26569 59.9C5.06569 59.4 4.86569 58.8 4.66569 58.1C4.26569 56.8 3.86569 55.4 3.76569 55.1C3.46569 52.9 3.36569 51 3.56569 49.4C3.86569 46 5.56569 41.7 8.06569 40.5C8.66569 40.2 9.16569 40.1 9.76569 40.1C10.2657 40.1 10.7657 40.2 11.2657 40.5C12.7657 41.4 13.8657 43.6 13.9657 45.9C13.9657 46 13.9657 46.2 13.9657 46.3V48V51.2V52.7V54.2V55.7ZM4.66569 80.8L3.06569 80L7.56569 72.1C7.66569 71.9 7.76569 71.7 7.76569 71.4L7.66569 67.7L10.7657 71.8L11.0657 72.9L4.66569 80.8ZM17.2657 69.9L17.6657 81.1H16.1657L12.9657 71C12.9657 70.9 12.8657 70.7 12.7657 70.6L7.46569 63.5V63.4C7.46569 63.3 7.46569 63.3 7.36569 63.2C7.26569 63 7.26569 62.6 7.26569 62.2L8.26569 62.1C8.96569 62 9.36568 61.4 9.36568 60.8L9.26569 59.7H14.2657L17.2657 69.9Z" fill="white"/>
<path d="M48.5657 25.3C46.0657 25.3 44.0657 27 43.4657 29.3H34.6657C34.0657 27 32.0657 25.3 29.5657 25.3C27.0657 25.3 25.0657 27 24.4657 29.3H15.7657C15.1657 27 13.1657 25.3 10.6657 25.3C7.76572 25.3 5.36572 27.7 5.36572 30.5C5.36572 33.3 7.76572 35.7001 10.6657 35.7001C13.1657 35.7001 15.1657 34.0001 15.7657 31.7001H24.5657C25.1657 34.0001 27.1657 35.7001 29.6657 35.7001C32.1657 35.7001 34.1657 34.0001 34.7657 31.7001H43.5657C44.1657 34.0001 46.1657 35.7001 48.6657 35.7001C51.5657 35.7001 53.8657 33.3 53.8657 30.5C53.8657 27.7 51.4657 25.3 48.5657 25.3ZM48.5657 33.3C47.4657 33.3 46.5657 32.7 46.1657 31.8C45.9657 31.4 45.8657 31.0001 45.8657 30.6001C45.8657 30.2001 45.9657 29.7001 46.1657 29.4001C46.6657 28.5001 47.5657 27.9001 48.5657 27.9001C50.0657 27.9001 51.3657 29.1001 51.3657 30.7001C51.3657 32.3001 50.1657 33.3 48.5657 33.3ZM32.3657 30.5C32.3657 31 32.2657 31.4001 32.0657 31.7001C31.5657 32.6001 30.6657 33.2001 29.6657 33.2001C28.5657 33.2001 27.6657 32.6001 27.2657 31.7001C27.0657 31.3001 26.9657 30.9 26.9657 30.5C26.9657 30.1 27.0657 29.6 27.2657 29.3C27.7657 28.4 28.6657 27.8 29.6657 27.8C30.7657 27.8 31.6657 28.4 32.0657 29.3C32.2657 29.6 32.3657 30.1 32.3657 30.5ZM13.3657 30.5C13.3657 31 13.2657 31.4001 13.0657 31.7001C12.5657 32.6001 11.6657 33.2001 10.6657 33.2001C9.16572 33.2001 7.86572 32.0001 7.86572 30.4001C7.86572 28.8001 9.06572 27.6001 10.6657 27.6001C11.7657 27.6001 12.6657 28.2001 13.0657 29.1001C13.2657 29.6001 13.3657 30.1 13.3657 30.5Z" fill="white"/>
<path d="M12.9656 8.70005H20.2656C20.9656 8.70005 21.4656 8.10005 21.4656 7.50005C21.4656 6.90005 20.8656 6.30005 20.2656 6.30005H12.9656C12.2656 6.30005 11.7656 6.90005 11.7656 7.50005C11.7656 8.10005 12.2656 8.70005 12.9656 8.70005Z" fill="white"/>
<path d="M12.9656 13.8H26.8656C27.5656 13.8 28.0656 13.2 28.0656 12.6C28.0656 12 27.4656 11.4 26.8656 11.4H12.9656C12.2656 11.4 11.7656 12 11.7656 12.6C11.7656 13.2 12.2656 13.8 12.9656 13.8Z" fill="white"/>
<path d="M14.1656 20H16.0656C15.7656 21.2 15.3656 22.3 15.0656 23C14.8656 23.4 14.9656 23.9 15.2656 24.2C15.4656 24.5 15.8656 24.7 16.2656 24.7H16.3656C16.6656 24.7 23.0656 23.9 24.7656 20H25.6656C30.4656 20 34.3656 16.1 34.3656 11.3V8.7C34.3656 3.9 30.4656 0 25.6656 0H14.1656C9.36558 0 5.46558 3.9 5.46558 8.7V11.4C5.46558 16.1 9.36558 20 14.1656 20ZM7.96558 8.7C7.96558 5.3 10.7656 2.5 14.1656 2.5H25.6656C29.0656 2.5 31.8656 5.3 31.8656 8.7V11.4C31.8656 14.8 29.0656 17.6 25.6656 17.6H23.7656C23.1656 17.6 22.6656 18 22.5656 18.6C22.2656 20.4 19.9656 21.4 18.0656 21.9C18.3656 20.9 18.5656 19.9 18.7656 19C18.7656 18.6 18.6656 18.3 18.4656 18C18.2656 17.7 17.8656 17.6 17.5656 17.6H14.1656C10.7656 17.6 7.96558 14.8 7.96558 11.4V8.7Z" fill="white"/>
</g>
</svg>
