<svg width="141" height="141" viewBox="0 0 141 141" fill="none" xmlns="http://www.w3.org/2000/svg">
<g opacity="0.5">
<path d="M50.111 0C37.2679 0 24.4213 4.888 14.6479 14.6616C-4.89894 34.2086 -4.87465 66.0166 14.6729 85.5637C31.677 102.568 57.952 104.79 77.3694 92.214L86.1177 100.979C85.3931 104.436 86.3541 108.189 89.0096 110.845L115.141 136.976C119.314 141.149 126.205 141.149 130.378 136.976L137.871 129.484C142.043 125.311 142.043 118.419 137.871 114.247L111.738 88.1152C108.72 85.097 104.277 84.264 100.471 85.6122L92.2165 77.358C104.776 57.9389 102.562 31.6576 85.5661 14.6616C75.7927 4.888 62.9542 0 50.111 0ZM50.111 8.24612C60.8133 8.24612 71.513 12.3457 79.7015 20.5343C94.6137 35.4466 95.9475 58.6943 83.7031 75.098C83.5344 75.2811 83.3826 75.479 83.2494 75.6893C82.1669 77.087 80.9852 78.4313 79.7015 79.7151C78.3053 81.1113 76.8329 82.3884 75.303 83.5466C75.2867 83.5601 75.2705 83.5736 75.2544 83.5874C58.8415 95.9732 35.478 94.6811 20.5124 79.7154C4.13543 63.3382 4.13543 36.9117 20.5124 20.5345C28.701 12.3459 39.4088 8.24612 50.111 8.24612ZM49.4063 19.9106C41.2544 20.0109 33.7561 25.1342 30.8809 33.0412C30.6924 33.5538 30.607 34.0986 30.6297 34.6443C30.6524 35.19 30.7826 35.7259 31.0129 36.2211C31.2432 36.7164 31.5691 37.1613 31.9718 37.5302C32.3745 37.8992 32.8461 38.185 33.3596 38.3712C33.8722 38.5597 34.417 38.645 34.9627 38.6224C35.5084 38.5997 36.0443 38.4695 36.5395 38.2392C37.0348 38.0088 37.4797 37.683 37.8486 37.2803C38.2176 36.8776 38.5034 36.4059 38.6896 35.8925C40.6608 30.4718 46.1905 27.3237 51.8526 28.424C57.5147 29.5242 61.4837 34.5346 61.2814 40.2991C61.079 46.0635 56.784 50.7446 51.0588 51.4451C50.8396 51.4712 50.623 51.5147 50.4108 51.5752C50.2281 51.6303 50.0494 51.698 49.8761 51.7777C49.8409 51.7934 49.8058 51.8096 49.7711 51.8263C49.5973 51.9091 49.4295 52.0038 49.2688 52.1099C49.2499 52.1233 49.2311 52.1369 49.2124 52.1506C49.0439 52.2656 48.8842 52.3929 48.7345 52.5314C48.7318 52.5366 48.7291 52.5418 48.7264 52.547C48.4338 52.8225 48.1828 53.139 47.9812 53.4866C47.9503 53.5372 47.9205 53.5884 47.8918 53.6402C47.8089 53.7948 47.7359 53.9544 47.6732 54.1182C47.6646 54.1426 47.6562 54.1672 47.6481 54.1918C47.5876 54.3666 47.5389 54.5452 47.5023 54.7265C47.4994 54.7479 47.4967 54.7693 47.4942 54.7908C47.4582 54.9699 47.4341 55.1512 47.4221 55.3334C47.4184 55.3846 47.4157 55.4358 47.4139 55.4871C47.4136 55.5168 47.4136 55.5466 47.4139 55.5764V64.2437C47.4182 65.3381 47.8548 66.3864 48.6287 67.1602C49.4025 67.934 50.4508 68.3706 51.5451 68.3749C52.0898 68.377 52.6295 68.2718 53.1335 68.0654C53.6375 67.8589 54.0959 67.5552 54.4825 67.1716C54.8691 66.788 55.1764 66.332 55.3868 65.8296C55.5972 65.3273 55.7065 64.7884 55.7087 64.2437V58.8894C63.5921 56.3698 69.2854 49.0959 69.5845 40.5746C69.9279 30.7904 63.0592 22.1427 53.4487 20.2752C52.0972 20.0127 50.7403 19.8943 49.4063 19.9106ZM51.5448 72.2953C50.3043 72.2993 49.1157 72.7939 48.2385 73.671C47.3614 74.5482 46.8668 75.7368 46.8628 76.9773C46.8605 77.5943 46.9798 78.2057 47.2139 78.7766C47.448 79.3475 47.7923 79.8667 48.2271 80.3045C48.6619 80.7423 49.1787 81.0901 49.7479 81.3281C50.3172 81.5662 50.9278 81.6897 51.5448 81.6917C52.1645 81.694 52.7786 81.5736 53.3516 81.3375C53.9246 81.1013 54.4452 80.7542 54.8834 80.3159C55.3217 79.8777 55.6688 79.3571 55.9049 78.7841C56.1411 78.2111 56.2614 77.597 56.2591 76.9773C56.2572 76.3603 56.1336 75.7497 55.8956 75.1804C55.6576 74.6112 55.3098 74.0944 54.872 73.6596C54.4342 73.2248 53.915 72.8806 53.3441 72.6465C52.7732 72.4124 52.1618 72.2931 51.5448 72.2953ZM87.089 83.9841L93.8608 90.7559L90.7503 93.8665L83.9784 87.1108C84.5177 86.6165 85.0439 86.1101 85.5661 85.5879C86.0896 85.0644 86.5935 84.5248 87.089 83.9841ZM104.132 93.2022C104.758 93.1968 105.386 93.4515 105.898 93.9637L132.021 120.095C133.046 121.12 133.03 122.594 132.006 123.619L124.513 131.112C123.488 132.136 122.006 132.161 120.981 131.137L94.8572 105.004C94.042 104.189 93.8833 103.086 94.3711 102.153C94.3791 102.14 94.3869 102.126 94.3947 102.112C94.4135 102.078 94.4386 102.042 94.4589 102.007C94.4562 102.01 94.4616 102.005 94.4589 102.007C94.4842 101.967 94.5168 101.918 94.5407 101.877C94.6379 101.736 94.7448 101.6 94.8728 101.472L102.366 93.9873C102.878 93.475 103.506 93.2077 104.132 93.2022Z" fill="white"/>
</g>
</svg>
