<svg width="306" height="306" viewBox="0 0 306 306" fill="none" xmlns="http://www.w3.org/2000/svg">
<g opacity="0.5">
<path d="M152.75 169.729C161.029 169.729 167.764 162.994 167.764 154.715C167.764 146.436 161.029 139.701 152.75 139.701C144.471 139.701 137.736 146.436 137.736 154.715C137.736 162.994 144.471 169.729 152.75 169.729ZM152.75 147.534C156.709 147.534 159.931 150.756 159.931 154.715C159.931 158.674 156.709 161.895 152.75 161.895C148.791 161.895 145.569 158.674 145.569 154.715C145.569 150.756 148.791 147.534 152.75 147.534Z" fill="white"/>
<path d="M301.583 297.667H237.346C239.526 294.751 240.82 291.136 240.82 287.224V239.276L292.444 239.243V261.764C292.444 263.927 294.198 265.681 296.361 265.681C298.524 265.681 300.278 263.927 300.278 261.764V133.833C300.278 131.671 298.524 129.917 296.361 129.917C294.198 129.917 292.444 131.671 292.444 133.833V231.41H279.649C281.33 228.776 282.309 225.654 282.309 222.304V152.739C282.309 142.516 276.789 133.562 268.576 128.69C276.776 123.607 282.309 114.111 282.309 103.251C282.309 87.0538 270.01 73.8762 254.893 73.8762C239.775 73.8762 227.476 87.0538 227.476 103.251C227.476 113.89 232.783 123.226 240.708 128.381C237.276 130.302 234.238 132.938 231.857 136.173L213.889 160.583H201.118L204.051 132.44C204.319 121.417 194.631 119.293 191.018 119.472C188.317 106.956 179.678 96.7965 168.346 91.8602C176.531 86.6054 181.981 77.3522 181.981 66.8282C181.981 50.495 168.868 37.2084 152.75 37.2084C136.632 37.2084 123.519 50.495 123.519 66.8275C123.519 77.3516 128.968 86.6047 137.154 91.8596C125.822 96.7965 117.184 106.955 114.482 119.471C105.909 119.784 101.564 124.106 101.45 132.439L104.382 160.583H91.6115L73.6431 136.172C71.2618 132.937 68.2238 130.302 64.7921 128.38C72.7175 123.225 78.0239 113.89 78.0239 103.251C78.0239 87.0532 65.7249 73.8756 50.6073 73.8756C35.4896 73.8756 23.1906 87.0532 23.1906 103.251C23.1906 114.111 28.7242 123.606 36.9244 128.689C28.7111 133.562 23.1906 142.516 23.1906 152.738V222.303C23.1906 225.652 24.1698 228.775 25.8513 231.408H13.0556V133.833C13.0556 131.671 11.3015 129.917 9.13889 129.917C6.97624 129.917 5.22222 131.671 5.22222 133.833V261.111C5.22222 263.274 6.97624 265.028 9.13889 265.028C11.3015 265.028 13.0556 263.274 13.0556 261.111V239.243L64.6805 239.276V287.224C64.6805 291.136 65.973 294.751 68.1539 297.667H3.91667C1.75401 297.667 0 299.421 0 301.583C0 303.746 1.75401 305.5 3.91667 305.5H301.583C303.746 305.5 305.5 303.746 305.5 301.583C305.5 299.421 303.746 297.667 301.583 297.667ZM73.7306 207.359V189.958H231.769V207.359H73.7306ZM160.331 216.033V297.667H145.169V216.033H160.331ZM168.164 216.033H211.164C207.863 220.08 205.88 225.242 205.88 230.859V287.224C205.88 291.136 207.172 294.751 209.353 297.667H168.165L168.164 216.033ZM236.903 231.41C234.74 231.41 232.986 233.164 232.986 235.326C232.986 235.332 232.987 235.338 232.987 235.343C232.987 235.349 232.986 235.354 232.986 235.359V287.223C232.986 292.537 228.663 296.86 223.349 296.86C218.036 296.86 213.712 292.537 213.712 287.223V230.859C213.712 222.221 220.741 215.192 229.379 215.192H274.475V222.303C274.475 227.122 270.725 231.072 265.991 231.409H236.903V231.41ZM235.309 103.251C235.309 91.3733 244.095 81.7095 254.893 81.7095C265.691 81.7095 274.476 91.3733 274.476 103.251C274.476 115.129 265.691 124.793 254.893 124.793C244.095 124.793 235.309 115.129 235.309 103.251ZM215.869 168.417C217.115 168.417 218.285 167.825 219.023 166.822L238.166 140.816C241.941 135.688 247.996 132.626 254.363 132.626C265.453 132.626 274.476 141.649 274.476 152.74V207.36H239.603V172.289C239.603 170.126 237.849 168.372 235.686 168.372C233.523 168.372 231.769 170.126 231.769 172.289V182.125H196.004C192.225 182.125 189.15 179.05 189.15 175.271C189.15 171.491 192.225 168.417 196.004 168.417H215.869ZM131.352 66.8275C131.352 54.8151 140.951 45.0417 152.75 45.0417C164.549 45.0417 174.148 54.8151 174.148 66.8275C174.148 78.8399 164.549 88.6133 152.75 88.6133C140.951 88.6133 131.352 78.8399 131.352 66.8275ZM152.749 96.4473C167.006 96.4466 179.289 106.077 182.959 119.471H122.543C126.211 106.078 138.494 96.4473 152.749 96.4473ZM113.136 127.305H192.363C194.944 127.591 196.243 129.031 196.259 131.627L193.214 160.853C186.446 162.16 181.317 168.127 181.317 175.272C181.317 177.746 181.934 180.078 183.02 182.126H122.48C123.566 180.078 124.183 177.746 124.183 175.272C124.183 168.127 119.054 162.16 112.286 160.853L109.241 131.627C109.123 128.162 112.013 127.305 113.136 127.305ZM31.0239 103.251C31.0239 91.3733 39.809 81.7095 50.6073 81.7095C61.4055 81.7095 70.1906 91.3733 70.1906 103.251C70.1906 115.129 61.4055 124.793 50.6073 124.793C39.809 124.793 31.0239 115.129 31.0239 103.251ZM51.1367 132.626C57.5045 132.626 63.5597 135.688 67.334 140.816L86.4767 166.822C87.215 167.825 88.3855 168.417 89.631 168.417H109.496C113.275 168.417 116.35 171.491 116.35 175.271C116.35 179.05 113.275 182.125 109.496 182.125H73.7306V172.289C73.7306 170.126 71.9766 168.372 69.8139 168.372C67.6513 168.372 65.8973 170.126 65.8973 172.289V207.36H31.0239V152.74C31.0239 141.649 40.0466 132.626 51.1367 132.626ZM31.0239 222.304V215.193H76.1204C84.7586 215.193 91.7871 222.221 91.7871 230.859V287.224C91.7871 292.538 87.4637 296.861 82.1501 296.861C76.8365 296.861 72.5132 292.538 72.5132 287.224V235.36C72.5132 235.354 72.5125 235.349 72.5125 235.343C72.5125 235.338 72.5132 235.332 72.5132 235.327C72.5132 233.164 70.7592 231.41 68.5965 231.41H39.5081C34.7741 231.072 31.0239 227.122 31.0239 222.304ZM94.3368 216.033H137.337V297.667H96.1476C98.3279 294.751 99.6211 291.136 99.6211 287.224V230.859C99.6204 225.242 97.6373 220.081 94.3368 216.033Z" fill="white"/>
<path d="M209.868 46.0097H224.414L224.5 63.9912C224.519 67.9248 229.251 69.0188 231.392 66.5194L248.953 46.0097H264.701C271.18 46.0097 276.451 40.7386 276.451 34.2597V11.75C276.451 5.27118 271.18 0 264.701 0H209.868C203.389 0 198.118 5.27118 198.118 11.75V34.2597C198.118 40.7386 203.389 46.0097 209.868 46.0097ZM205.951 11.75C205.951 9.58996 207.708 7.83333 209.868 7.83333H264.701C266.862 7.83333 268.618 9.58996 268.618 11.75V34.2597C268.618 36.4198 266.862 38.1764 264.701 38.1764H247.15C246.007 38.1764 244.92 38.6771 244.175 39.5459L232.283 53.4351L232.228 42.0741C232.218 39.9187 230.467 38.1764 228.312 38.1764H209.868C207.708 38.1764 205.951 36.4198 205.951 34.2597V11.75Z" fill="white"/>
<path d="M220.184 27.1796H254.225C256.388 27.1796 258.142 25.4256 258.142 23.263C258.142 21.1003 256.388 19.3463 254.225 19.3463H220.184C218.021 19.3463 216.267 21.1003 216.267 23.263C216.267 25.4256 218.021 27.1796 220.184 27.1796Z" fill="white"/>
<path d="M40.7986 46.0665H56.5468L74.1079 66.5761C76.249 69.0756 80.9803 67.9809 80.9999 64.0479L81.0861 46.0665H95.6319C102.111 46.0665 107.382 40.7953 107.382 34.3165V11.8068C107.382 5.32794 102.111 0.0567627 95.6319 0.0567627H40.7986C34.3198 0.0567627 29.0486 5.32794 29.0486 11.8068V34.3165C29.0486 40.7953 34.3198 46.0665 40.7986 46.0665ZM36.8819 11.8068C36.8819 9.64672 38.6385 7.8901 40.7986 7.8901H95.6319C97.792 7.8901 99.5486 9.64672 99.5486 11.8068V34.3165C99.5486 36.4765 97.792 38.2332 95.6319 38.2332H77.1883C75.0329 38.2332 73.2821 39.9754 73.2717 42.1309L73.2175 53.4918L61.3245 39.6027C60.5804 38.7338 59.4935 38.2332 58.3492 38.2332H40.7986C38.6385 38.2332 36.8819 36.4765 36.8819 34.3165V11.8068Z" fill="white"/>
<path d="M51.2751 27.2365H85.3161C87.4788 27.2365 89.2328 25.4825 89.2328 23.3199C89.2328 21.1572 87.4788 19.4032 85.3161 19.4032H51.2751C49.1124 19.4032 47.3584 21.1572 47.3584 23.3199C47.3584 25.4825 49.1124 27.2365 51.2751 27.2365Z" fill="white"/>
<path d="M9.13878 284.585C11.6624 284.585 13.7082 282.539 13.7082 280.015C13.7082 277.492 11.6624 275.446 9.13878 275.446C6.61515 275.446 4.56934 277.492 4.56934 280.015C4.56934 282.539 6.61515 284.585 9.13878 284.585Z" fill="white"/>
<path d="M296.361 284.585C298.885 284.585 300.931 282.539 300.931 280.015C300.931 277.492 298.885 275.446 296.361 275.446C293.838 275.446 291.792 277.492 291.792 280.015C291.792 282.539 293.838 284.585 296.361 284.585Z" fill="white"/>
</g>
</svg>
