<svg width="380" height="375" viewBox="0 0 380 375" fill="none" xmlns="http://www.w3.org/2000/svg">
<g opacity="0.2">
<circle cx="189.822" cy="191.263" r="178.408" stroke="#3A3A1F" stroke-width="2"/>
<circle cx="189.822" cy="191.263" r="178.408" stroke="black" stroke-opacity="0.2" stroke-width="2"/>
</g>
<circle cx="190.488" cy="12.9932" r="12" fill="white"/>
<circle cx="190.488" cy="12.9932" r="12" stroke="#3A3A1F"/>
<circle cx="190.488" cy="12.9932" r="12" stroke="black" stroke-opacity="0.2"/>
<circle cx="286.5" cy="41.5" r="12" fill="white"/>
<circle cx="286.5" cy="41.5" r="12" stroke="#3A3A1F"/>
<circle cx="286.5" cy="41.5" r="12" stroke="black" stroke-opacity="0.2"/>
<circle cx="352.381" cy="118.082" r="12" fill="white"/>
<circle cx="352.381" cy="118.082" r="12" stroke="#3A3A1F"/>
<circle cx="352.381" cy="118.082" r="12" stroke="black" stroke-opacity="0.2"/>
<circle cx="366.582" cy="217.49" r="12" fill="white"/>
<circle cx="366.582" cy="217.49" r="12" stroke="#3A3A1F"/>
<circle cx="366.582" cy="217.49" r="12" stroke="black" stroke-opacity="0.2"/>
<circle cx="324.819" cy="308.431" r="12" fill="white"/>
<circle cx="324.819" cy="308.431" r="12" stroke="#3A3A1F"/>
<circle cx="324.819" cy="308.431" r="12" stroke="black" stroke-opacity="0.2"/>
<circle cx="240.665" cy="362.342" r="12" fill="white"/>
<circle cx="240.665" cy="362.342" r="12" stroke="#3A3A1F"/>
<circle cx="240.665" cy="362.342" r="12" stroke="black" stroke-opacity="0.2"/>
<circle cx="140.364" cy="362.342" r="12" fill="white"/>
<circle cx="140.364" cy="362.342" r="12" stroke="#3A3A1F"/>
<circle cx="140.364" cy="362.342" r="12" stroke="black" stroke-opacity="0.2"/>
<circle cx="55.2101" cy="308.431" r="12" fill="white"/>
<circle cx="55.2101" cy="308.431" r="12" stroke="#3A3A1F"/>
<circle cx="55.2101" cy="308.431" r="12" stroke="black" stroke-opacity="0.2"/>
<circle cx="12.5" cy="217.49" r="12" fill="white"/>
<circle cx="12.5" cy="217.49" r="12" stroke="#3A3A1F"/>
<circle cx="12.5" cy="217.49" r="12" stroke="black" stroke-opacity="0.2"/>
<circle cx="27.6475" cy="118.082" r="12" fill="white"/>
<circle cx="27.6475" cy="118.082" r="12" stroke="#3A3A1F"/>
<circle cx="27.6475" cy="118.082" r="12" stroke="black" stroke-opacity="0.2"/>
<circle cx="93.9199" cy="40.4487" r="12" fill="white"/>
<circle cx="93.9199" cy="40.4487" r="12" stroke="#3A3A1F"/>
<circle cx="93.9199" cy="40.4487" r="12" stroke="black" stroke-opacity="0.2"/>
</svg>
