<svg width="279" height="42" viewBox="0 0 279 42" fill="none" xmlns="http://www.w3.org/2000/svg">
<path d="M113.756 8.51318C110.251 8.51318 107.148 9.76183 105.194 10.897C103.24 9.76183 100.137 8.51318 96.6317 8.51318C89.8509 8.51318 85.2538 13.678 85.1963 19.5808L85.0814 39.1618C85.0814 40.0699 85.5986 40.5808 86.5755 40.5808H88.8166C89.7935 40.5808 90.3107 40.0699 90.3107 39.1618L90.4831 19.5808C90.4831 16.5159 92.7242 13.3943 96.5743 13.3943C98.8728 13.3943 100.884 14.1321 102.493 15.0402L102.665 39.1051C102.665 40.0132 103.24 40.524 104.16 40.524H106.401C107.378 40.524 107.895 40.0132 107.895 39.1051L107.722 15.097C109.331 14.2456 111.4 13.451 113.699 13.451C117.549 13.451 119.79 16.5726 119.79 19.6375L119.962 39.2186C119.962 40.1267 120.537 40.6375 121.456 40.6375H123.697C124.674 40.6375 125.191 40.1267 125.191 39.2186L125.019 19.6375C125.134 13.7348 120.537 8.51318 113.756 8.51318Z" fill="#1E1E28"/>
<path d="M113.756 8.51318C110.251 8.51318 107.148 9.76183 105.194 10.897C103.24 9.76183 100.137 8.51318 96.6317 8.51318C89.8509 8.51318 85.2538 13.678 85.1963 19.5808L85.0814 39.1618C85.0814 40.0699 85.5986 40.5808 86.5755 40.5808H88.8166C89.7935 40.5808 90.3107 40.0699 90.3107 39.1618L90.4831 19.5808C90.4831 16.5159 92.7242 13.3943 96.5743 13.3943C98.8728 13.3943 100.884 14.1321 102.493 15.0402L102.665 39.1051C102.665 40.0132 103.24 40.524 104.16 40.524H106.401C107.378 40.524 107.895 40.0132 107.895 39.1051L107.722 15.097C109.331 14.2456 111.4 13.451 113.699 13.451C117.549 13.451 119.79 16.5726 119.79 19.6375L119.962 39.2186C119.962 40.1267 120.537 40.6375 121.456 40.6375H123.697C124.674 40.6375 125.191 40.1267 125.191 39.2186L125.019 19.6375C125.134 13.7348 120.537 8.51318 113.756 8.51318Z" fill="black" fill-opacity="0.2"/>
<path d="M277.874 33.3728L276.322 32.2944C275.575 31.8404 274.886 31.9539 274.254 32.862C273.507 33.8836 272.185 36.6647 268.335 36.6647C264.485 36.6647 262.301 33.5431 262.359 30.4782L262.473 19.7512C262.473 16.6863 264.715 13.5647 268.565 13.5647C272.415 13.5647 273.851 16.5728 274.426 17.4809C274.943 18.2755 275.748 18.389 276.495 17.8214L278.161 16.6863C278.966 16.1187 278.851 15.2674 278.563 14.6431C278.046 13.3944 275.403 8.68359 268.565 8.68359C261.784 8.68359 257.187 13.8485 257.129 19.6944L257.014 30.4214C256.957 36.2674 261.439 41.4322 268.22 41.4322C275.001 41.4322 277.644 36.8349 278.448 35.3593C278.908 34.6782 278.793 33.9971 277.874 33.3728Z" fill="#1E1E28"/>
<path d="M277.874 33.3728L276.322 32.2944C275.575 31.8404 274.886 31.9539 274.254 32.862C273.507 33.8836 272.185 36.6647 268.335 36.6647C264.485 36.6647 262.301 33.5431 262.359 30.4782L262.473 19.7512C262.473 16.6863 264.715 13.5647 268.565 13.5647C272.415 13.5647 273.851 16.5728 274.426 17.4809C274.943 18.2755 275.748 18.389 276.495 17.8214L278.161 16.6863C278.966 16.1187 278.851 15.2674 278.563 14.6431C278.046 13.3944 275.403 8.68359 268.565 8.68359C261.784 8.68359 257.187 13.8485 257.129 19.6944L257.014 30.4214C256.957 36.2674 261.439 41.4322 268.22 41.4322C275.001 41.4322 277.644 36.8349 278.448 35.3593C278.908 34.6782 278.793 33.9971 277.874 33.3728Z" fill="black" fill-opacity="0.2"/>
<path d="M150.418 38.8782L150.533 32.0674C150.533 32.0106 150.533 31.9539 150.476 31.8971L150.591 19.7512C150.648 13.9052 146.166 8.68359 139.385 8.68359C136.34 8.68359 133.811 9.42143 131.627 10.6701C130.995 11.0106 130.363 11.8052 130.88 12.7133L131.742 14.3025C132.202 15.0971 132.777 15.4376 133.639 14.9836C135.018 14.2458 136.972 13.5647 139.385 13.5647C143.235 13.5647 145.419 16.6863 145.361 19.7512C145.361 20.4322 144.959 20.8295 144.384 20.5458C142.948 19.8647 141.109 19.4674 139.328 19.4674C132.547 19.4674 127.95 24.6322 127.892 30.4782C127.835 36.2674 132.317 41.489 139.155 41.489C141.914 41.489 143.925 40.6944 145.132 39.8998C145.304 39.7863 145.476 39.7295 145.649 39.7863C145.706 40.2971 145.936 40.8079 146.855 40.8079H149.441H150.476H151.682C150.648 40.8647 150.418 39.7295 150.418 38.8782ZM139.098 36.6647C135.248 36.6647 133.064 33.5431 133.122 30.5349C133.122 27.4701 135.363 24.4052 139.213 24.4052C143.063 24.4052 145.246 27.5268 145.189 30.5349C145.189 33.5431 142.948 36.6647 139.098 36.6647Z" fill="#1E1E28"/>
<path d="M150.418 38.8782L150.533 32.0674C150.533 32.0106 150.533 31.9539 150.476 31.8971L150.591 19.7512C150.648 13.9052 146.166 8.68359 139.385 8.68359C136.34 8.68359 133.811 9.42143 131.627 10.6701C130.995 11.0106 130.363 11.8052 130.88 12.7133L131.742 14.3025C132.202 15.0971 132.777 15.4376 133.639 14.9836C135.018 14.2458 136.972 13.5647 139.385 13.5647C143.235 13.5647 145.419 16.6863 145.361 19.7512C145.361 20.4322 144.959 20.8295 144.384 20.5458C142.948 19.8647 141.109 19.4674 139.328 19.4674C132.547 19.4674 127.95 24.6322 127.892 30.4782C127.835 36.2674 132.317 41.489 139.155 41.489C141.914 41.489 143.925 40.6944 145.132 39.8998C145.304 39.7863 145.476 39.7295 145.649 39.7863C145.706 40.2971 145.936 40.8079 146.855 40.8079H149.441H150.476H151.682C150.648 40.8647 150.418 39.7295 150.418 38.8782ZM139.098 36.6647C135.248 36.6647 133.064 33.5431 133.122 30.5349C133.122 27.4701 135.363 24.4052 139.213 24.4052C143.063 24.4052 145.246 27.5268 145.189 30.5349C145.189 33.5431 142.948 36.6647 139.098 36.6647Z" fill="black" fill-opacity="0.2"/>
<path d="M254.543 38.8782L254.658 32.0674C254.658 32.0106 254.658 31.9539 254.601 31.8971L254.716 19.7512C254.773 13.9052 250.291 8.6836 243.51 8.6836C240.465 8.6836 237.936 9.42144 235.753 10.6701C235.12 11.0106 234.488 11.8052 235.006 12.7133L235.867 14.3025C236.327 15.0971 236.902 15.4377 237.764 14.9836C239.143 14.2458 241.097 13.5647 243.51 13.5647C247.36 13.5647 249.544 16.6863 249.486 19.7512C249.486 20.4322 249.084 20.8295 248.51 20.5458C247.073 19.8647 245.234 19.4674 243.453 19.4674C236.672 19.4674 232.075 24.6322 232.017 30.4782C232.017 31.9539 232.305 33.3728 232.822 34.6782C232.707 34.735 232.592 34.8485 232.477 34.9052C231.5 35.6998 230.351 36.6079 228.282 36.6079C224.432 36.6079 222.248 33.4863 222.306 30.4214L222.421 15.3809C222.421 14.416 222.995 13.9052 223.972 13.9052H231.558C232.535 13.9052 233.052 13.3377 233.109 12.4295V10.9539C233.109 9.989 232.592 9.47819 231.615 9.47819H224.03C223.053 9.47819 222.536 8.91063 222.536 8.00252L222.593 2.04306C222.593 1.07819 222.076 0.567383 221.099 0.567383H218.858C217.881 0.567383 217.364 1.13495 217.364 2.04306L217.192 7.94576C217.192 8.91063 216.617 9.42144 215.64 9.42144H214.146C213.169 9.42144 212.652 9.98901 212.594 10.8971V12.3728C212.594 13.3377 213.112 13.8485 214.089 13.8485H215.583C216.56 13.8485 217.077 14.416 217.077 15.3241L216.962 30.3647C216.904 36.2106 221.386 41.3755 228.167 41.3755C231.385 41.3755 233.856 40.1836 235.58 38.5944C237.476 40.2971 240.12 41.3755 243.165 41.3755C245.924 41.3755 247.935 40.5809 249.142 39.7863C249.314 39.6728 249.487 39.616 249.659 39.6728C249.716 40.1836 249.946 40.6944 250.866 40.6944H253.452H254.486H255.693C254.831 40.8647 254.601 39.7295 254.543 38.8782ZM243.28 36.6647C239.43 36.6647 237.247 33.5431 237.304 30.535C237.304 27.4701 239.545 24.4052 243.395 24.4052C247.245 24.4052 249.429 27.5268 249.372 30.535C249.314 33.5431 247.13 36.6647 243.28 36.6647Z" fill="#1E1E28"/>
<path d="M254.543 38.8782L254.658 32.0674C254.658 32.0106 254.658 31.9539 254.601 31.8971L254.716 19.7512C254.773 13.9052 250.291 8.6836 243.51 8.6836C240.465 8.6836 237.936 9.42144 235.753 10.6701C235.12 11.0106 234.488 11.8052 235.006 12.7133L235.867 14.3025C236.327 15.0971 236.902 15.4377 237.764 14.9836C239.143 14.2458 241.097 13.5647 243.51 13.5647C247.36 13.5647 249.544 16.6863 249.486 19.7512C249.486 20.4322 249.084 20.8295 248.51 20.5458C247.073 19.8647 245.234 19.4674 243.453 19.4674C236.672 19.4674 232.075 24.6322 232.017 30.4782C232.017 31.9539 232.305 33.3728 232.822 34.6782C232.707 34.735 232.592 34.8485 232.477 34.9052C231.5 35.6998 230.351 36.6079 228.282 36.6079C224.432 36.6079 222.248 33.4863 222.306 30.4214L222.421 15.3809C222.421 14.416 222.995 13.9052 223.972 13.9052H231.558C232.535 13.9052 233.052 13.3377 233.109 12.4295V10.9539C233.109 9.989 232.592 9.47819 231.615 9.47819H224.03C223.053 9.47819 222.536 8.91063 222.536 8.00252L222.593 2.04306C222.593 1.07819 222.076 0.567383 221.099 0.567383H218.858C217.881 0.567383 217.364 1.13495 217.364 2.04306L217.192 7.94576C217.192 8.91063 216.617 9.42144 215.64 9.42144H214.146C213.169 9.42144 212.652 9.98901 212.594 10.8971V12.3728C212.594 13.3377 213.112 13.8485 214.089 13.8485H215.583C216.56 13.8485 217.077 14.416 217.077 15.3241L216.962 30.3647C216.904 36.2106 221.386 41.3755 228.167 41.3755C231.385 41.3755 233.856 40.1836 235.58 38.5944C237.476 40.2971 240.12 41.3755 243.165 41.3755C245.924 41.3755 247.935 40.5809 249.142 39.7863C249.314 39.6728 249.487 39.616 249.659 39.6728C249.716 40.1836 249.946 40.6944 250.866 40.6944H253.452H254.486H255.693C254.831 40.8647 254.601 39.7295 254.543 38.8782ZM243.28 36.6647C239.43 36.6647 237.247 33.5431 237.304 30.535C237.304 27.4701 239.545 24.4052 243.395 24.4052C247.245 24.4052 249.429 27.5268 249.372 30.535C249.314 33.5431 247.13 36.6647 243.28 36.6647Z" fill="black" fill-opacity="0.2"/>
<path d="M214.491 38.8782L214.606 32.0674C214.606 32.0106 214.606 31.9539 214.548 31.8971L214.663 19.7512C214.721 13.9052 210.239 8.68359 203.4 8.68359C200.355 8.68359 197.826 9.42143 195.643 10.6701C195.01 11.0106 194.378 11.8052 194.896 12.7133L195.758 14.3025C196.217 15.0971 196.792 15.4376 197.654 14.9836C199.033 14.2458 200.987 13.5647 203.4 13.5647C207.25 13.5647 209.434 16.6863 209.377 19.7512C209.377 20.4322 208.974 20.8295 208.4 20.5458C206.963 19.8647 205.124 19.4674 203.343 19.4674C197.654 19.4674 193.516 23.0998 192.31 27.6971C190.758 23.8376 186.448 22.1349 181.679 21.8512C181.679 21.8512 176.162 21.6241 176.22 17.6512C176.22 16.2322 177.484 13.4512 181.794 13.4512C183.46 13.4512 185.012 14.0755 186.391 15.3241C187.023 15.8917 187.827 16.0052 188.517 15.5512L190.183 14.416C190.931 13.8485 191.103 13.1106 190.413 12.3728C188.632 10.3863 185.759 8.68359 181.851 8.68359C178.231 8.68359 175.588 9.87549 173.806 11.6349C172.025 10.3863 168.462 8.68359 164.382 8.68359C157.601 8.68359 153.004 13.8485 152.947 19.7512L152.774 39.3322C152.774 40.2404 153.291 40.7512 154.268 40.7512H156.509C157.486 40.7512 158.004 40.2404 158.004 39.3322L158.176 19.7512C158.176 16.6863 160.417 13.5647 164.267 13.5647C167.14 13.5647 169.554 14.7566 171.335 15.8349C171.163 16.4593 171.105 17.0836 171.105 17.7079C171.048 22.8728 174.898 26.3349 181.621 26.6755C181.621 26.6755 187.713 26.6755 187.655 31.2728C187.655 33.8268 185.874 36.6079 181.564 36.6079C178.346 36.6079 175.99 34.4512 174.553 32.4647C174.094 31.7836 173.346 31.5566 172.542 32.0674L170.933 33.1458C170.128 33.7701 170.014 34.5079 170.531 35.2458C172.14 37.8566 175.53 41.4322 181.506 41.4322C187.425 41.4322 191.333 38.4241 192.54 34.1106C193.976 38.2539 197.826 41.4322 203.17 41.4322C205.929 41.4322 207.94 40.6376 209.147 39.8431C209.319 39.7295 209.491 39.6728 209.664 39.7295C209.721 40.2404 209.951 40.7512 210.871 40.7512H213.457H214.491H215.698C214.778 40.8647 214.548 39.7295 214.491 38.8782ZM203.17 36.6647C199.32 36.6647 197.137 33.5431 197.194 30.5349C197.194 27.4701 199.435 24.4052 203.285 24.4052C207.135 24.4052 209.319 27.5268 209.262 30.5349C209.262 33.5431 207.02 36.6647 203.17 36.6647Z" fill="#1E1E28"/>
<path d="M214.491 38.8782L214.606 32.0674C214.606 32.0106 214.606 31.9539 214.548 31.8971L214.663 19.7512C214.721 13.9052 210.239 8.68359 203.4 8.68359C200.355 8.68359 197.826 9.42143 195.643 10.6701C195.01 11.0106 194.378 11.8052 194.896 12.7133L195.758 14.3025C196.217 15.0971 196.792 15.4376 197.654 14.9836C199.033 14.2458 200.987 13.5647 203.4 13.5647C207.25 13.5647 209.434 16.6863 209.377 19.7512C209.377 20.4322 208.974 20.8295 208.4 20.5458C206.963 19.8647 205.124 19.4674 203.343 19.4674C197.654 19.4674 193.516 23.0998 192.31 27.6971C190.758 23.8376 186.448 22.1349 181.679 21.8512C181.679 21.8512 176.162 21.6241 176.22 17.6512C176.22 16.2322 177.484 13.4512 181.794 13.4512C183.46 13.4512 185.012 14.0755 186.391 15.3241C187.023 15.8917 187.827 16.0052 188.517 15.5512L190.183 14.416C190.931 13.8485 191.103 13.1106 190.413 12.3728C188.632 10.3863 185.759 8.68359 181.851 8.68359C178.231 8.68359 175.588 9.87549 173.806 11.6349C172.025 10.3863 168.462 8.68359 164.382 8.68359C157.601 8.68359 153.004 13.8485 152.947 19.7512L152.774 39.3322C152.774 40.2404 153.291 40.7512 154.268 40.7512H156.509C157.486 40.7512 158.004 40.2404 158.004 39.3322L158.176 19.7512C158.176 16.6863 160.417 13.5647 164.267 13.5647C167.14 13.5647 169.554 14.7566 171.335 15.8349C171.163 16.4593 171.105 17.0836 171.105 17.7079C171.048 22.8728 174.898 26.3349 181.621 26.6755C181.621 26.6755 187.713 26.6755 187.655 31.2728C187.655 33.8268 185.874 36.6079 181.564 36.6079C178.346 36.6079 175.99 34.4512 174.553 32.4647C174.094 31.7836 173.346 31.5566 172.542 32.0674L170.933 33.1458C170.128 33.7701 170.014 34.5079 170.531 35.2458C172.14 37.8566 175.53 41.4322 181.506 41.4322C187.425 41.4322 191.333 38.4241 192.54 34.1106C193.976 38.2539 197.826 41.4322 203.17 41.4322C205.929 41.4322 207.94 40.6376 209.147 39.8431C209.319 39.7295 209.491 39.6728 209.664 39.7295C209.721 40.2404 209.951 40.7512 210.871 40.7512H213.457H214.491H215.698C214.778 40.8647 214.548 39.7295 214.491 38.8782ZM203.17 36.6647C199.32 36.6647 197.137 33.5431 197.194 30.5349C197.194 27.4701 199.435 24.4052 203.285 24.4052C207.135 24.4052 209.319 27.5268 209.262 30.5349C209.262 33.5431 207.02 36.6647 203.17 36.6647Z" fill="black" fill-opacity="0.2"/>
<path d="M45.3736 8.11621H30.2605V40.6378H45.3736V8.11621Z" fill="#1E1E28"/>
<path d="M45.3736 8.11621H30.2605V40.6378H45.3736V8.11621Z" fill="black" fill-opacity="0.2"/>
<path d="M29.3986 8.11621H17.3311C15.0325 8.11621 13.0212 9.7054 12.4466 11.5216C12.4466 11.5216 2.16051 40.5811 0.321655 40.5811H2.67769H14.9176H15.09C17.9632 40.5243 19.3423 38.7649 20.0319 37.0622L29.3986 8.11621Z" fill="#1E1E28"/>
<path d="M29.3986 8.11621H17.3311C15.0325 8.11621 13.0212 9.7054 12.4466 11.5216C12.4466 11.5216 2.16051 40.5811 0.321655 40.5811H2.67769H14.9176H15.09C17.9632 40.5243 19.3423 38.7649 20.0319 37.0622L29.3986 8.11621Z" fill="black" fill-opacity="0.2"/>
<path d="M46.293 8.11621H58.3605C60.6591 8.11621 62.6703 9.7054 63.245 11.5216C63.245 11.5216 73.5311 40.5811 75.3699 40.5811H73.0139H60.774H60.6016C57.7284 40.5243 56.3493 38.7649 55.6597 37.0622L46.293 8.11621Z" fill="#1E1E28"/>
<path d="M46.293 8.11621H58.3605C60.6591 8.11621 62.6703 9.7054 63.245 11.5216C63.245 11.5216 73.5311 40.5811 75.3699 40.5811H73.0139H60.774H60.6016C57.7284 40.5243 56.3493 38.7649 55.6597 37.0622L46.293 8.11621Z" fill="black" fill-opacity="0.2"/>
</svg>
