<svg width="151" height="208" viewBox="0 0 151 208" fill="none" xmlns="http://www.w3.org/2000/svg">
<path d="M1.88281 145.544V110.151C1.88281 105.401 3.38744 101.655 6.33273 98.9781C9.2773 96.2351 13.0732 94.897 17.7193 94.897C22.3654 94.897 26.161 96.5029 29.2367 99.7144C32.3121 102.926 33.8828 107.007 33.8828 111.891C33.8828 116.775 32.3121 120.789 29.1709 124.067C26.0956 127.279 22.2343 128.885 17.7193 128.885C16.7375 128.885 15.5596 128.751 14.1854 128.416C12.8116 128.082 11.8952 127.747 11.437 127.346L10.0629 120.053H9.40846L2.55841 145.721M11.6476 111.939C11.6476 113.96 12.1651 115.548 13.2478 116.751C14.3302 117.954 15.8363 118.532 17.7193 118.532C19.6016 118.532 21.061 117.954 22.1434 116.751C23.2257 115.548 23.7903 113.961 23.7903 111.939C23.7903 109.918 23.2257 108.282 22.1434 107.079C21.061 105.877 19.5549 105.251 17.7193 105.251C15.8837 105.251 14.3777 105.877 13.2953 107.079C12.2125 108.282 11.6476 109.918 11.6476 111.939Z" fill="#3A3A1F"/>
<path d="M1.88281 145.544V110.151C1.88281 105.401 3.38744 101.655 6.33273 98.9781C9.2773 96.2351 13.0732 94.897 17.7193 94.897C22.3654 94.897 26.161 96.5029 29.2367 99.7144C32.3121 102.926 33.8828 107.007 33.8828 111.891C33.8828 116.775 32.3121 120.789 29.1709 124.067C26.0956 127.279 22.2343 128.885 17.7193 128.885C16.7375 128.885 15.5596 128.751 14.1854 128.416C12.8116 128.082 11.8952 127.747 11.437 127.346L10.0629 120.053H9.40846L2.55841 145.721M11.6476 111.939C11.6476 113.96 12.1651 115.548 13.2478 116.751C14.3302 117.954 15.8363 118.532 17.7193 118.532C19.6016 118.532 21.061 117.954 22.1434 116.751C23.2257 115.548 23.7903 113.961 23.7903 111.939C23.7903 109.918 23.2257 108.282 22.1434 107.079C21.061 105.877 19.5549 105.251 17.7193 105.251C15.8837 105.251 14.3777 105.877 13.2953 107.079C12.2125 108.282 11.6476 109.918 11.6476 111.939Z" fill="black" fill-opacity="0.2"/>
<path d="M42.7903 84.9226C44.6962 83.1632 47.5558 83.1632 49.3937 84.9226C51.3 86.6193 51.3 89.2583 49.3937 91.0177C47.5554 92.7144 44.6962 92.7144 42.7903 91.0177C40.9521 89.2583 40.9521 86.6193 42.7903 84.9226ZM42.1779 95.6049H50.0068V126.897H42.1779V95.6049Z" fill="#3A3A1F"/>
<path d="M42.7903 84.9226C44.6962 83.1632 47.5558 83.1632 49.3937 84.9226C51.3 86.6193 51.3 89.2583 49.3937 91.0177C47.5554 92.7144 44.6962 92.7144 42.7903 91.0177C40.9521 89.2583 40.9521 86.6193 42.7903 84.9226ZM42.1779 95.6049H50.0068V126.897H42.1779V95.6049Z" fill="black" fill-opacity="0.2"/>
<path d="M72.3392 117.227H72.6017L72.7989 115.318L78.5117 94.8973H86.5881L79.759 116.336L79.2992 117.799C78.6429 119.835 78.1832 121.299 77.8547 122.126C77.5922 122.953 77.1981 123.78 76.6071 124.734C75.5563 126.515 74.5059 126.897 72.4704 126.897C70.6318 126.897 69.3186 126.324 68.5307 125.179C67.8084 123.97 66.8233 121.553 65.6413 117.799L65.1816 116.336L58.3528 94.897H66.4292L72.1419 115.318L72.3392 117.227Z" fill="#3A3A1F"/>
<path d="M72.3392 117.227H72.6017L72.7989 115.318L78.5117 94.8973H86.5881L79.759 116.336L79.2992 117.799C78.6429 119.835 78.1832 121.299 77.8547 122.126C77.5922 122.953 77.1981 123.78 76.6071 124.734C75.5563 126.515 74.5059 126.897 72.4704 126.897C70.6318 126.897 69.3186 126.324 68.5307 125.179C67.8084 123.97 66.8233 121.553 65.6413 117.799L65.1816 116.336L58.3528 94.897H66.4292L72.1419 115.318L72.3392 117.227Z" fill="black" fill-opacity="0.2"/>
<path d="M126.117 110.897C126.117 115.495 124.497 119.338 121.258 122.361C118.086 125.385 114.036 126.897 109.176 126.897C104.316 126.897 100.267 125.385 97.0271 122.361C93.8552 119.338 92.2351 115.495 92.2351 110.897C92.2351 106.299 93.8552 102.456 97.0271 99.4326C100.267 96.409 104.316 94.897 109.176 94.897C114.036 94.897 118.085 96.409 121.258 99.4326C124.497 102.456 126.117 106.299 126.117 110.897ZM101.385 110.897C101.385 113.084 102.088 114.888 103.494 116.31C104.959 117.731 106.833 118.442 109.177 118.442C111.519 118.442 113.394 117.731 114.8 116.31C116.265 114.888 116.968 113.084 116.968 110.897C116.968 108.71 116.265 106.906 114.8 105.484C113.394 104.063 111.52 103.352 109.177 103.352C106.833 103.352 104.959 104.063 103.494 105.484C102.088 106.906 101.385 108.71 101.385 110.897Z" fill="#3A3A1F"/>
<path d="M126.117 110.897C126.117 115.495 124.497 119.338 121.258 122.361C118.086 125.385 114.036 126.897 109.176 126.897C104.316 126.897 100.267 125.385 97.0271 122.361C93.8552 119.338 92.2351 115.495 92.2351 110.897C92.2351 106.299 93.8552 102.456 97.0271 99.4326C100.267 96.409 104.316 94.897 109.176 94.897C114.036 94.897 118.085 96.409 121.258 99.4326C124.497 102.456 126.117 106.299 126.117 110.897ZM101.385 110.897C101.385 113.084 102.088 114.888 103.494 116.31C104.959 117.731 106.833 118.442 109.177 118.442C111.519 118.442 113.394 117.731 114.8 116.31C116.265 114.888 116.968 113.084 116.968 110.897C116.968 108.71 116.265 106.906 114.8 105.484C113.394 104.063 111.52 103.352 109.177 103.352C106.833 103.352 104.959 104.063 103.494 105.484C102.088 106.906 101.385 108.71 101.385 110.897Z" fill="black" fill-opacity="0.2"/>
<path d="M135.53 115.956V87.3677H143.296V95.084H149.576V102.168H143.296V115.133C143.296 118.675 144.781 120.004 148.225 119.94C148.833 119.94 149.576 119.876 150.319 119.75L150.588 126.581C149.846 126.771 148.9 126.897 147.685 126.897C139.581 126.897 135.53 123.229 135.53 115.956Z" fill="#3A3A1F"/>
<path d="M135.53 115.956V87.3677H143.296V95.084H149.576V102.168H143.296V115.133C143.296 118.675 144.781 120.004 148.225 119.94C148.833 119.94 149.576 119.876 150.319 119.75L150.588 126.581C149.846 126.771 148.9 126.897 147.685 126.897C139.581 126.897 135.53 123.229 135.53 115.956Z" fill="black" fill-opacity="0.2"/>
<path d="M22.9909 166.226C20.3995 168.872 17.1468 170.196 13.3425 170.196C12.5154 170.196 11.5233 170.086 10.365 169.81C9.20743 169.534 8.43559 169.259 8.0495 168.928L6.89194 162.918H6.34042L0.544286 178.907H0V154.758C0 150.843 1.26808 147.756 3.74935 145.55C6.23062 143.29 9.42846 142.187 13.3429 142.187C17.2576 142.187 20.4551 143.51 23.0469 146.157C25.6383 148.803 26.9613 152.167 26.9613 156.192C26.9606 160.216 25.6376 163.524 22.9909 166.226ZM8.00724 156.232C8.00724 157.969 8.46196 159.334 9.41329 160.368C10.3646 161.402 11.688 161.899 13.3425 161.899C14.9971 161.899 16.2792 161.402 17.2306 160.368C18.1819 159.334 18.6778 157.969 18.6778 156.232C18.6778 154.495 18.1815 153.089 17.2306 152.055C16.2792 151.021 14.9559 150.483 13.3425 150.483C11.7295 150.483 10.4062 151.021 9.45482 152.055C8.50349 153.089 8.00724 154.495 8.00724 156.232Z" fill="#3A3A1F"/>
<path d="M22.9909 166.226C20.3995 168.872 17.1468 170.196 13.3425 170.196C12.5154 170.196 11.5233 170.086 10.365 169.81C9.20743 169.534 8.43559 169.259 8.0495 168.928L6.89194 162.918H6.34042L0.544286 178.907H0V154.758C0 150.843 1.26808 147.756 3.74935 145.55C6.23062 143.29 9.42846 142.187 13.3429 142.187C17.2576 142.187 20.4551 143.51 23.0469 146.157C25.6383 148.803 26.9613 152.167 26.9613 156.192C26.9606 160.216 25.6376 163.524 22.9909 166.226ZM8.00724 156.232C8.00724 157.969 8.46196 159.334 9.41329 160.368C10.3646 161.402 11.688 161.899 13.3425 161.899C14.9971 161.899 16.2792 161.402 17.2306 160.368C18.1819 159.334 18.6778 157.969 18.6778 156.232C18.6778 154.495 18.1815 153.089 17.2306 152.055C16.2792 151.021 14.9559 150.483 13.3425 150.483C11.7295 150.483 10.4062 151.021 9.45482 152.055C8.50349 153.089 8.00724 154.495 8.00724 156.232Z" fill="black" fill-opacity="0.2"/>
<path d="M54.0849 145.832C56.5662 147.982 57.779 151.07 57.779 154.984V170.312H56.849L53.0393 161.433L55.3194 165.008L54.0838 166.184C51.6715 168.302 49.5536 169.361 47.4136 169.926C46.3142 170.216 45.3737 170.312 44.5463 170.312C40.742 170.312 37.4889 168.989 34.8978 166.397C32.3064 163.751 31.0383 160.443 31.0383 156.418C31.0383 152.393 32.3064 149.085 34.8426 146.493C37.3788 143.902 40.6319 142.579 44.5463 142.579C48.461 142.579 51.6036 143.681 54.0849 145.832ZM50.8896 156.418C50.8896 154.37 50.2904 152.722 49.1419 151.523C47.993 150.274 46.4446 149.675 44.5466 149.675C42.6487 149.675 41.1003 150.274 39.9514 151.523C38.8025 152.722 38.2037 154.37 38.2037 156.418C38.2037 158.466 38.8029 160.114 39.9514 161.363C41.1003 162.561 42.6487 163.161 44.5466 163.161C46.445 163.161 47.9933 162.561 49.1419 161.363C50.2904 160.114 50.8896 158.466 50.8896 156.418Z" fill="#3A3A1F"/>
<path d="M54.0849 145.832C56.5662 147.982 57.779 151.07 57.779 154.984V170.312H56.849L53.0393 161.433L55.3194 165.008L54.0838 166.184C51.6715 168.302 49.5536 169.361 47.4136 169.926C46.3142 170.216 45.3737 170.312 44.5463 170.312C40.742 170.312 37.4889 168.989 34.8978 166.397C32.3064 163.751 31.0383 160.443 31.0383 156.418C31.0383 152.393 32.3064 149.085 34.8426 146.493C37.3788 143.902 40.6319 142.579 44.5463 142.579C48.461 142.579 51.6036 143.681 54.0849 145.832ZM50.8896 156.418C50.8896 154.37 50.2904 152.722 49.1419 151.523C47.993 150.274 46.4446 149.675 44.5466 149.675C42.6487 149.675 41.1003 150.274 39.9514 151.523C38.8025 152.722 38.2037 154.37 38.2037 156.418C38.2037 158.466 38.8029 160.114 39.9514 161.363C41.1003 162.561 42.6487 163.161 44.5466 163.161C46.445 163.161 47.9933 162.561 49.1419 161.363C50.2904 160.114 50.8896 158.466 50.8896 156.418Z" fill="black" fill-opacity="0.2"/>
<path d="M147.306 145.832C149.787 147.982 151 151.07 151 154.984V170.312H150.07L146.261 161.433L148.541 165.008L147.305 166.184C144.893 168.302 142.775 169.361 140.635 169.926C139.536 170.216 138.595 170.312 137.768 170.312C133.963 170.312 130.71 168.989 128.119 166.397C125.528 163.751 124.26 160.443 124.26 156.418C124.26 152.393 125.528 149.085 128.064 146.493C130.6 143.902 133.853 142.579 137.768 142.579C141.682 142.579 144.825 143.681 147.306 145.832ZM144.111 156.418C144.111 154.37 143.512 152.722 142.363 151.523C141.214 150.274 139.666 149.675 137.768 149.675C135.87 149.675 134.321 150.274 133.173 151.523C132.024 152.722 131.425 154.37 131.425 156.418C131.425 158.466 132.024 160.114 133.173 161.363C134.322 162.561 135.87 163.161 137.768 163.161C139.666 163.161 141.214 162.561 142.363 161.363C143.512 160.114 144.111 158.466 144.111 156.418Z" fill="#3A3A1F"/>
<path d="M147.306 145.832C149.787 147.982 151 151.07 151 154.984V170.312H150.07L146.261 161.433L148.541 165.008L147.305 166.184C144.893 168.302 142.775 169.361 140.635 169.926C139.536 170.216 138.595 170.312 137.768 170.312C133.963 170.312 130.71 168.989 128.119 166.397C125.528 163.751 124.26 160.443 124.26 156.418C124.26 152.393 125.528 149.085 128.064 146.493C130.6 143.902 133.853 142.579 137.768 142.579C141.682 142.579 144.825 143.681 147.306 145.832ZM144.111 156.418C144.111 154.37 143.512 152.722 142.363 151.523C141.214 150.274 139.666 149.675 137.768 149.675C135.87 149.675 134.321 150.274 133.173 151.523C132.024 152.722 131.425 154.37 131.425 156.418C131.425 158.466 132.024 160.114 133.173 161.363C134.322 162.561 135.87 163.161 137.768 163.161C139.666 163.161 141.214 162.561 142.363 161.363C143.512 160.114 144.111 158.466 144.111 156.418Z" fill="black" fill-opacity="0.2"/>
<path d="M87.5604 170.312H80.0845V152.944C80.0845 150.298 78.6542 148.974 75.7941 148.974C72.9336 148.974 71.5033 150.298 71.5033 152.944V170.312H64.0273V150.849C64.0273 148.313 65.1976 146.328 67.538 144.839C69.9434 143.35 72.6735 142.579 75.7944 142.579C78.9146 142.579 81.6451 143.35 83.9855 144.839C86.3909 146.328 87.5611 148.313 87.5611 150.849V170.312H87.5604Z" fill="#3A3A1F"/>
<path d="M87.5604 170.312H80.0845V152.944C80.0845 150.298 78.6542 148.974 75.7941 148.974C72.9336 148.974 71.5033 150.298 71.5033 152.944V170.312H64.0273V150.849C64.0273 148.313 65.1976 146.328 67.538 144.839C69.9434 143.35 72.6735 142.579 75.7944 142.579C78.9146 142.579 81.6451 143.35 83.9855 144.839C86.3909 146.328 87.5611 148.313 87.5611 150.849V170.312H87.5604Z" fill="black" fill-opacity="0.2"/>
<path d="M96.2877 146.604C98.9344 143.902 102.187 142.579 105.992 142.579C106.819 142.579 107.756 142.689 108.914 142.965C110.072 143.241 112.564 144.063 113.388 144.71L116.389 146.24L112.994 149.857V132.599H119.335V158.016C119.335 161.931 118.067 165.019 115.585 167.279C113.104 169.484 109.906 170.587 105.992 170.587C102.077 170.587 98.8239 169.264 96.2328 166.617C93.6414 163.971 92.3733 160.608 92.3733 156.583C92.3733 152.559 93.6966 149.25 96.2877 146.604ZM112.104 156.536C112.104 154.546 111.535 152.982 110.446 151.797C109.356 150.613 107.887 150.044 105.992 150.044C104.096 150.044 102.58 150.613 101.49 151.797C100.4 152.982 99.8792 154.546 99.8792 156.536C99.8792 158.526 100.448 160.137 101.537 161.322C102.627 162.507 104.144 163.123 105.992 163.123C107.84 163.123 109.356 162.507 110.446 161.322C111.535 160.137 112.104 158.526 112.104 156.536Z" fill="#3A3A1F"/>
<path d="M96.2877 146.604C98.9344 143.902 102.187 142.579 105.992 142.579C106.819 142.579 107.756 142.689 108.914 142.965C110.072 143.241 112.564 144.063 113.388 144.71L116.389 146.24L112.994 149.857V132.599H119.335V158.016C119.335 161.931 118.067 165.019 115.585 167.279C113.104 169.484 109.906 170.587 105.992 170.587C102.077 170.587 98.8239 169.264 96.2328 166.617C93.6414 163.971 92.3733 160.608 92.3733 156.583C92.3733 152.559 93.6966 149.25 96.2877 146.604ZM112.104 156.536C112.104 154.546 111.535 152.982 110.446 151.797C109.356 150.613 107.887 150.044 105.992 150.044C104.096 150.044 102.58 150.613 101.49 151.797C100.4 152.982 99.8792 154.546 99.8792 156.536C99.8792 158.526 100.448 160.137 101.537 161.322C102.627 162.507 104.144 163.123 105.992 163.123C107.84 163.123 109.356 162.507 110.446 161.322C111.535 160.137 112.104 158.526 112.104 156.536Z" fill="black" fill-opacity="0.2"/>
<path d="M64.6275 34.9919C60.9395 38.7586 56.3096 40.6418 50.8956 40.6418C49.7182 40.6418 48.306 40.485 46.6579 40.0924C45.0106 39.6999 43.9119 39.3076 43.3626 38.837L41.7145 30.284H40.9297L32.6101 53.0402H31.9058V18.6705C31.9058 13.099 33.7102 8.70492 37.2414 5.56595C40.7722 2.3486 45.3238 0.779297 50.8952 0.779297C56.4667 0.779297 61.0175 2.66282 64.7058 6.42916C68.3938 10.1958 70.2773 14.9821 70.2773 20.7104C70.2773 26.4386 68.3938 31.1472 64.6275 34.9919ZM43.7108 20.766C43.7108 23.1053 44.3233 24.9433 45.6044 26.3357C46.8855 27.728 48.6675 28.3965 50.8956 28.3965C53.1233 28.3965 54.8497 27.728 56.1308 26.3357C57.4119 24.9433 58.0797 23.1053 58.0797 20.766C58.0797 18.427 57.4116 16.5334 56.1308 15.1411C54.8497 13.7487 53.0677 13.0246 50.8956 13.0246C48.7235 13.0246 46.9415 13.7487 45.6604 15.1411C44.3793 16.5337 43.7108 18.4274 43.7108 20.766Z" fill="#3A3A1F"/>
<path d="M64.6275 34.9919C60.9395 38.7586 56.3096 40.6418 50.8956 40.6418C49.7182 40.6418 48.306 40.485 46.6579 40.0924C45.0106 39.6999 43.9119 39.3076 43.3626 38.837L41.7145 30.284H40.9297L32.6101 53.0402H31.9058V18.6705C31.9058 13.099 33.7102 8.70492 37.2414 5.56595C40.7722 2.3486 45.3238 0.779297 50.8952 0.779297C56.4667 0.779297 61.0175 2.66282 64.7058 6.42916C68.3938 10.1958 70.2773 14.9821 70.2773 20.7104C70.2773 26.4386 68.3938 31.1472 64.6275 34.9919ZM43.7108 20.766C43.7108 23.1053 44.3233 24.9433 45.6044 26.3357C46.8855 27.728 48.6675 28.3965 50.8956 28.3965C53.1233 28.3965 54.8497 27.728 56.1308 26.3357C57.4119 24.9433 58.0797 23.1053 58.0797 20.766C58.0797 18.427 57.4116 16.5334 56.1308 15.1411C54.8497 13.7487 53.0677 13.0246 50.8956 13.0246C48.7235 13.0246 46.9415 13.7487 45.6604 15.1411C44.3793 16.5337 43.7108 18.4274 43.7108 20.766Z" fill="black" fill-opacity="0.2"/>
<path d="M67.9925 51.3626L67.7642 49.2665C67.8459 45.2902 71.7046 42.123 76.3823 42.1925C81.0599 42.262 84.7858 45.5422 84.704 49.5185L84.1761 51.6032" fill="#3A3A1F"/>
<path d="M67.9925 51.3626L67.7642 49.2665C67.8459 45.2902 71.7046 42.123 76.3823 42.1925C81.0599 42.262 84.7858 45.5422 84.704 49.5185L84.1761 51.6032" fill="black" fill-opacity="0.2"/>
<path d="M82 20.7109C82 14.9826 83.8835 10.1963 87.5715 6.42964C91.2598 2.66295 95.8106 0.779785 101.382 0.779785C106.954 0.779785 111.505 2.34909 115.036 5.56644C118.567 8.70541 120.372 13.0995 120.372 18.6709V53.0407H119.89L111.348 30.2845H110.563L108.915 38.8375C108.365 39.3081 107.267 39.7007 105.619 40.0929C103.971 40.4855 102.559 40.6423 101.382 40.6423C95.9677 40.6423 91.3378 38.7588 87.6499 34.9924C83.8835 31.1474 82 26.4391 82 20.7109ZM106.617 15.1415C105.336 13.7492 103.554 13.0251 101.382 13.0251C99.2096 13.0251 97.4276 13.7492 96.1465 15.1415C94.8654 16.5339 94.1976 18.4275 94.1976 20.7665C94.1976 23.1058 94.8658 24.9438 96.1465 26.3362C97.4272 27.7285 99.154 28.397 101.382 28.397C103.609 28.397 105.392 27.7285 106.673 26.3362C107.954 24.9438 108.567 23.1058 108.567 20.7665C108.567 18.4275 107.898 16.5339 106.617 15.1415Z" fill="#3A3A1F"/>
<path d="M82 20.7109C82 14.9826 83.8835 10.1963 87.5715 6.42964C91.2598 2.66295 95.8106 0.779785 101.382 0.779785C106.954 0.779785 111.505 2.34909 115.036 5.56644C118.567 8.70541 120.372 13.0995 120.372 18.6709V53.0407H119.89L111.348 30.2845H110.563L108.915 38.8375C108.365 39.3081 107.267 39.7007 105.619 40.0929C103.971 40.4855 102.559 40.6423 101.382 40.6423C95.9677 40.6423 91.3378 38.7588 87.6499 34.9924C83.8835 31.1474 82 26.4391 82 20.7109ZM106.617 15.1415C105.336 13.7492 103.554 13.0251 101.382 13.0251C99.2096 13.0251 97.4276 13.7492 96.1465 15.1415C94.8654 16.5339 94.1976 18.4275 94.1976 20.7665C94.1976 23.1058 94.8658 24.9438 96.1465 26.3362C97.4272 27.7285 99.154 28.397 101.382 28.397C103.609 28.397 105.392 27.7285 106.673 26.3362C107.954 24.9438 108.567 23.1058 108.567 20.7665C108.567 18.4275 107.898 16.5339 106.617 15.1415Z" fill="black" fill-opacity="0.2"/>
<path d="M15.6945 185.571H17.0731V194.337H15.6692V188.253L13.4509 191.893H12.5924L10.3617 188.259V194.337H8.96436V185.571H10.3556L13.025 189.976L15.6945 185.571Z" fill="#3A3A1F"/>
<path d="M15.6945 185.571H17.0731V194.337H15.6692V188.253L13.4509 191.893H12.5924L10.3617 188.259V194.337H8.96436V185.571H10.3556L13.025 189.976L15.6945 185.571Z" fill="black" fill-opacity="0.2"/>
<path d="M29.058 194.337L28.5315 192.826H24.634L24.1078 194.337H22.6541L25.775 185.571H27.4165L30.506 194.337H29.058ZM25.1043 191.498H28.0746L26.5956 187.238L25.1043 191.498Z" fill="#3A3A1F"/>
<path d="M29.058 194.337L28.5315 192.826H24.634L24.1078 194.337H22.6541L25.775 185.571H27.4165L30.506 194.337H29.058ZM25.1043 191.498H28.0746L26.5956 187.238L25.1043 191.498Z" fill="black" fill-opacity="0.2"/>
<path d="M42.128 194.337H40.5175L38.7131 191.122H37.5165V194.337H36.0942V185.571H38.9515C40.6685 185.571 41.9716 186.655 41.9716 188.365C41.9716 189.644 41.2446 190.552 40.1607 190.928L42.128 194.337ZM37.5162 186.918V189.775H38.9573C39.866 189.775 40.5551 189.286 40.5551 188.371C40.5551 187.469 39.8721 186.918 38.9573 186.918H37.5162Z" fill="#3A3A1F"/>
<path d="M42.128 194.337H40.5175L38.7131 191.122H37.5165V194.337H36.0942V185.571H38.9515C40.6685 185.571 41.9716 186.655 41.9716 188.365C41.9716 189.644 41.2446 190.552 40.1607 190.928L42.128 194.337ZM37.5162 186.918V189.775H38.9573C39.866 189.775 40.5551 189.286 40.5551 188.371C40.5551 187.469 39.8721 186.918 38.9573 186.918H37.5162Z" fill="black" fill-opacity="0.2"/>
<path d="M50.9911 194.475C49.5998 194.475 48.422 193.905 47.5325 193.027L48.491 191.999C49.1487 192.613 50.1203 193.134 51.016 193.134C52.05 193.134 52.6828 192.464 52.6828 191.818C52.6828 190.878 51.7116 190.652 50.6147 190.395C49.2488 190.064 47.9016 189.412 47.9016 187.814C47.9016 186.429 49.1361 185.427 50.834 185.427C51.7864 185.427 52.8519 185.746 53.7039 186.461L52.8204 187.47C52.2187 187.018 51.5043 186.736 50.8654 186.736C50.0571 186.736 49.3492 187.087 49.3492 187.814C49.3492 188.654 50.3579 188.923 51.3104 189.167C52.5763 189.493 54.1304 190.045 54.1304 191.799C54.1304 193.429 52.6951 194.475 50.9911 194.475Z" fill="#3A3A1F"/>
<path d="M50.9911 194.475C49.5998 194.475 48.422 193.905 47.5325 193.027L48.491 191.999C49.1487 192.613 50.1203 193.134 51.016 193.134C52.05 193.134 52.6828 192.464 52.6828 191.818C52.6828 190.878 51.7116 190.652 50.6147 190.395C49.2488 190.064 47.9016 189.412 47.9016 187.814C47.9016 186.429 49.1361 185.427 50.834 185.427C51.7864 185.427 52.8519 185.746 53.7039 186.461L52.8204 187.47C52.2187 187.018 51.5043 186.736 50.8654 186.736C50.0571 186.736 49.3492 187.087 49.3492 187.814C49.3492 188.654 50.3579 188.923 51.3104 189.167C52.5763 189.493 54.1304 190.045 54.1304 191.799C54.1304 193.429 52.6951 194.475 50.9911 194.475Z" fill="black" fill-opacity="0.2"/>
<path d="M65.5894 186.911H61.4287V189.205H65.4641V190.508H61.4287V192.996H65.5894V194.337H60.0063V185.571H65.5894V186.911Z" fill="#3A3A1F"/>
<path d="M65.5894 186.911H61.4287V189.205H65.4641V190.508H61.4287V192.996H65.5894V194.337H60.0063V185.571H65.5894V186.911Z" fill="black" fill-opacity="0.2"/>
<path d="M73.1813 185.571V194.337H71.759V185.571H73.1813Z" fill="#3A3A1F"/>
<path d="M73.1813 185.571V194.337H71.759V185.571H73.1813Z" fill="black" fill-opacity="0.2"/>
<path d="M79.5269 194.337V185.571H80.9492V192.965H85.016V194.337H79.5269V194.337Z" fill="#3A3A1F"/>
<path d="M79.5269 194.337V185.571H80.9492V192.965H85.016V194.337H79.5269V194.337Z" fill="black" fill-opacity="0.2"/>
<path d="M90.7466 194.337V185.571H92.1689V192.965H96.2357V194.337H90.7466V194.337Z" fill="#3A3A1F"/>
<path d="M90.7466 194.337V185.571H92.1689V192.965H96.2357V194.337H90.7466V194.337Z" fill="black" fill-opacity="0.2"/>
<path d="M107.55 186.911H103.389V189.205H107.425V190.508H103.389V192.996H107.55V194.337H101.967V185.571H107.55V186.911Z" fill="#3A3A1F"/>
<path d="M107.55 186.911H103.389V189.205H107.425V190.508H103.389V192.996H107.55V194.337H101.967V185.571H107.55V186.911Z" fill="black" fill-opacity="0.2"/>
<path d="M122.329 191.442H113.569V190.132H122.329V191.442Z" fill="#3A3A1F"/>
<path d="M122.329 191.442H113.569V190.132H122.329V191.442Z" fill="black" fill-opacity="0.2"/>
<path d="M87.3617 204.806H78.6018V203.496H87.3617V204.806Z" fill="#3A3A1F"/>
<path d="M87.3617 204.806H78.6018V203.496H87.3617V204.806Z" fill="black" fill-opacity="0.2"/>
<path d="M93.5515 207.7V198.934H96.4088C98.1258 198.934 99.4289 200.018 99.4289 201.728C99.4289 203.439 98.1258 204.486 96.4088 204.486H94.9738V207.7H93.5515ZM94.9738 203.139H96.4149C97.3236 203.139 98.0127 202.649 98.0127 201.735C98.0127 200.832 97.3298 200.281 96.4149 200.281H94.9738V203.139Z" fill="#3A3A1F"/>
<path d="M93.5515 207.7V198.934H96.4088C98.1258 198.934 99.4289 200.018 99.4289 201.728C99.4289 203.439 98.1258 204.486 96.4088 204.486H94.9738V207.7H93.5515ZM94.9738 203.139H96.4149C97.3236 203.139 98.0127 202.649 98.0127 201.735C98.0127 200.832 97.3298 200.281 96.4149 200.281H94.9738V203.139Z" fill="black" fill-opacity="0.2"/>
<path d="M109.86 207.7L109.334 206.19H105.436L104.91 207.7H103.456L106.577 198.934H108.219L111.308 207.7H109.86ZM105.907 204.862H108.877L107.398 200.601L105.907 204.862Z" fill="#3A3A1F"/>
<path d="M109.86 207.7L109.334 206.19H105.436L104.91 207.7H103.456L106.577 198.934H108.219L111.308 207.7H109.86ZM105.907 204.862H108.877L107.398 200.601L105.907 204.862Z" fill="black" fill-opacity="0.2"/>
<path d="M122.928 207.7H121.317L119.513 204.486H118.316V207.7H116.894V198.934H119.751C121.468 198.934 122.771 200.018 122.771 201.728C122.771 203.007 122.044 203.916 120.96 204.291L122.928 207.7ZM118.316 200.281V203.139H119.757C120.666 203.139 121.355 202.649 121.355 201.735C121.355 200.832 120.672 200.281 119.757 200.281H118.316Z" fill="#3A3A1F"/>
<path d="M122.928 207.7H121.317L119.513 204.486H118.316V207.7H116.894V198.934H119.751C121.468 198.934 122.771 200.018 122.771 201.728C122.771 203.007 122.044 203.916 120.96 204.291L122.928 207.7ZM118.316 200.281V203.139H119.757C120.666 203.139 121.355 202.649 121.355 201.735C121.355 200.832 120.672 200.281 119.757 200.281H118.316Z" fill="black" fill-opacity="0.2"/>
<path d="M130.307 198.934V207.7H128.885V198.934H130.307Z" fill="#3A3A1F"/>
<path d="M130.307 198.934V207.7H128.885V198.934H130.307Z" fill="black" fill-opacity="0.2"/>
<path d="M139.578 207.838C138.187 207.838 137.009 207.268 136.12 206.391L137.078 205.363C137.736 205.977 138.707 206.497 139.603 206.497C140.637 206.497 141.27 205.827 141.27 205.181C141.27 204.241 140.299 204.016 139.202 203.759C137.836 203.427 136.489 202.775 136.489 201.177C136.489 199.793 137.723 198.79 139.421 198.79C140.373 198.79 141.439 199.11 142.291 199.824L141.407 200.833C140.806 200.382 140.091 200.1 139.452 200.1C138.644 200.1 137.936 200.451 137.936 201.177C137.936 202.017 138.945 202.287 139.897 202.531C141.163 202.857 142.717 203.408 142.717 205.163C142.717 206.792 141.282 207.838 139.578 207.838Z" fill="#3A3A1F"/>
<path d="M139.578 207.838C138.187 207.838 137.009 207.268 136.12 206.391L137.078 205.363C137.736 205.977 138.707 206.497 139.603 206.497C140.637 206.497 141.27 205.827 141.27 205.181C141.27 204.241 140.299 204.016 139.202 203.759C137.836 203.427 136.489 202.775 136.489 201.177C136.489 199.793 137.723 198.79 139.421 198.79C140.373 198.79 141.439 199.11 142.291 199.824L141.407 200.833C140.806 200.382 140.091 200.1 139.452 200.1C138.644 200.1 137.936 200.451 137.936 201.177C137.936 202.017 138.945 202.287 139.897 202.531C141.163 202.857 142.717 203.408 142.717 205.163C142.717 206.792 141.282 207.838 139.578 207.838Z" fill="black" fill-opacity="0.2"/>
</svg>
