<svg width="153" height="209" viewBox="0 0 153 209" fill="none" xmlns="http://www.w3.org/2000/svg">
<path d="M2.48511 146.122V110.397C2.48511 105.602 4.00383 101.821 6.97672 99.1191C9.94889 96.3504 13.7803 94.9998 18.47 94.9998C23.1597 94.9998 26.9908 96.6207 30.0953 99.8623C33.1995 103.104 34.785 107.223 34.785 112.153C34.785 117.083 33.1995 121.135 30.029 124.444C26.9248 127.685 23.0273 129.306 18.47 129.306C17.479 129.306 16.29 129.171 14.903 128.833C13.5163 128.496 12.5913 128.158 12.1289 127.753L10.7418 120.392H10.0813L3.16703 146.3M12.3414 112.202C12.3414 114.242 12.8637 115.844 13.9566 117.059C15.0491 118.273 16.5693 118.856 18.47 118.856C20.37 118.856 21.843 118.273 22.9355 117.059C24.028 115.845 24.5979 114.242 24.5979 112.202C24.5979 110.162 24.028 108.51 22.9355 107.296C21.843 106.082 20.3228 105.451 18.47 105.451C16.6172 105.451 15.097 106.082 14.0045 107.296C12.9116 108.51 12.3414 110.162 12.3414 112.202Z" fill="white"/>
<path d="M43.7769 84.9319C45.7006 83.156 48.587 83.156 50.4421 84.9319C52.3663 86.6445 52.3663 89.3082 50.4421 91.0841C48.5867 92.7967 45.7006 92.7967 43.7769 91.0841C41.9214 89.3082 41.9214 86.6445 43.7769 84.9319ZM43.1587 95.7143H51.061V127.3H43.1587V95.7143Z" fill="white"/>
<path d="M73.6018 117.539H73.8668L74.0659 115.613L79.8322 95.0001H87.9843L81.0912 116.64L80.6271 118.117C79.9647 120.172 79.5006 121.649 79.1691 122.484C78.9041 123.318 78.5063 124.153 77.9097 125.117C76.8491 126.914 75.7889 127.3 73.7343 127.3C71.8785 127.3 70.5529 126.722 69.7576 125.566C69.0286 124.346 68.0343 121.906 66.8412 118.117L66.3771 116.64L59.4844 94.9998H67.6365L73.4028 115.612L73.6018 117.539Z" fill="white"/>
<path d="M127.884 111.15C127.884 115.791 126.249 119.67 122.979 122.721C119.777 125.773 115.69 127.3 110.785 127.3C105.879 127.3 101.792 125.773 98.5215 122.721C95.3198 119.67 93.6846 115.791 93.6846 111.15C93.6846 106.508 95.3198 102.63 98.5215 99.5779C101.792 96.5259 105.879 94.9998 110.785 94.9998C115.69 94.9998 119.777 96.5259 122.979 99.5779C126.249 102.63 127.884 106.508 127.884 111.15ZM102.921 111.15C102.921 113.357 103.63 115.178 105.049 116.613C106.527 118.048 108.42 118.765 110.785 118.765C113.15 118.765 115.042 118.048 116.461 116.613C117.939 115.178 118.649 113.357 118.649 111.15C118.649 108.942 117.939 107.121 116.461 105.686C115.042 104.252 113.15 103.534 110.785 103.534C108.42 103.534 106.527 104.252 105.049 105.686C103.63 107.121 102.921 108.942 102.921 111.15Z" fill="white"/>
<path d="M137.385 116.255V87.3995H145.224V95.1882H151.563V102.338H145.224V115.425C145.224 119 146.723 120.341 150.199 120.277C150.813 120.277 151.563 120.213 152.312 120.085L152.585 126.98C151.835 127.172 150.881 127.299 149.654 127.299C141.475 127.299 137.385 123.597 137.385 116.255Z" fill="white"/>
<path d="M23.7913 166.996C21.1756 169.668 17.8924 171.004 14.0525 171.004C13.2177 171.004 12.2162 170.892 11.0471 170.614C9.87867 170.336 9.0996 170.057 8.70989 169.724L7.54148 163.657H6.9848L1.13435 179.797H0.584961V155.421C0.584961 151.47 1.86492 148.353 4.36944 146.127C6.87397 143.845 10.1018 142.732 14.0529 142.732C18.0043 142.732 21.2318 144.068 23.8478 146.74C26.4636 149.411 27.7989 152.806 27.7989 156.868C27.7982 160.93 26.4628 164.269 23.7913 166.996ZM8.66724 156.909C8.66724 158.662 9.12622 160.04 10.0865 161.084C11.0467 162.127 12.3825 162.629 14.0525 162.629C15.7226 162.629 17.0167 162.128 17.977 161.084C18.9372 160.04 19.4378 158.662 19.4378 156.909C19.4378 155.156 18.9369 153.737 17.977 152.693C17.0167 151.649 15.681 151.106 14.0525 151.106C12.4244 151.106 11.0886 151.649 10.1284 152.693C9.16814 153.737 8.66724 155.156 8.66724 156.909Z" fill="white"/>
<path d="M55.1766 146.411C57.6811 148.581 58.9053 151.698 58.9053 155.65V171.121H57.9666L54.1212 162.159L56.4227 165.767L55.1755 166.955C52.7406 169.092 50.6028 170.161 48.4428 170.731C47.3331 171.024 46.3838 171.121 45.5486 171.121C41.7087 171.121 38.4251 169.785 35.8097 167.169C33.194 164.498 31.9141 161.159 31.9141 157.096C31.9141 153.034 33.194 149.695 35.754 147.079C38.3139 144.463 41.5975 143.128 45.5486 143.128C49.5 143.128 52.6721 144.241 55.1766 146.411ZM51.9513 157.096C51.9513 155.029 51.3465 153.366 50.1872 152.156C49.0276 150.895 47.4647 150.29 45.5489 150.29C43.6332 150.29 42.0703 150.895 40.9107 152.156C39.751 153.366 39.1466 155.029 39.1466 157.096C39.1466 159.164 39.7514 160.827 40.9107 162.088C42.0703 163.298 43.6332 163.902 45.5489 163.902C47.4651 163.902 49.0279 163.298 50.1872 162.088C51.3465 160.827 51.9513 159.164 51.9513 157.096Z" fill="white"/>
<path d="M149.271 146.411C151.776 148.581 153 151.698 153 155.65V171.121H152.061L148.216 162.159L150.517 165.767L149.27 166.955C146.835 169.092 144.697 170.161 142.537 170.731C141.428 171.024 140.478 171.121 139.643 171.121C135.803 171.121 132.52 169.785 129.904 167.169C127.289 164.498 126.009 161.159 126.009 157.096C126.009 153.034 127.288 149.695 129.848 147.079C132.408 144.463 135.692 143.128 139.643 143.128C143.595 143.128 146.767 144.241 149.271 146.411ZM146.046 157.096C146.046 155.029 145.441 153.366 144.282 152.156C143.122 150.895 141.559 150.29 139.643 150.29C137.727 150.29 136.164 150.895 135.005 152.156C133.845 153.366 133.241 155.029 133.241 157.096C133.241 159.164 133.846 160.827 135.005 162.088C136.165 163.298 137.728 163.902 139.643 163.902C141.559 163.902 143.122 163.298 144.282 162.088C145.441 160.827 146.046 159.164 146.046 157.096Z" fill="white"/>
<path d="M88.9657 171.121H81.4197V153.59C81.4197 150.919 79.9761 149.583 77.0891 149.583C74.2018 149.583 72.7582 150.919 72.7582 153.59V171.121H65.2122V151.476C65.2122 148.916 66.3933 146.912 68.7557 145.409C71.1836 143.907 73.9393 143.128 77.0895 143.128C80.2389 143.128 82.995 143.907 85.3573 145.409C87.7853 146.912 88.9665 148.916 88.9665 151.476V171.121H88.9657Z" fill="white"/>
<path d="M97.7748 147.191C100.446 144.464 103.73 143.128 107.57 143.128C108.405 143.128 109.351 143.239 110.519 143.518C111.688 143.796 114.204 144.626 115.035 145.279L118.064 146.823L114.638 150.474V133.055H121.038V158.71C121.038 162.662 119.758 165.778 117.253 168.06C114.749 170.286 111.521 171.399 107.57 171.399C103.618 171.399 100.335 170.063 97.7194 167.392C95.1037 164.721 93.8237 161.326 93.8237 157.264C93.8237 153.201 95.1595 149.862 97.7748 147.191ZM113.74 157.216C113.74 155.207 113.165 153.629 112.066 152.433C110.965 151.237 109.483 150.663 107.57 150.663C105.657 150.663 104.126 151.237 103.026 152.433C101.926 153.629 101.4 155.207 101.4 157.216C101.4 159.225 101.974 160.851 103.074 162.047C104.174 163.242 105.704 163.864 107.57 163.864C109.435 163.864 110.965 163.242 112.066 162.047C113.165 160.851 113.74 159.225 113.74 157.216Z" fill="white"/>
<path d="M65.8177 34.5333C62.0951 38.3352 57.4219 40.236 51.9571 40.236C50.7686 40.236 49.3432 40.0778 47.6797 39.6816C46.017 39.2853 44.908 38.8894 44.3535 38.4143L42.69 29.7812H41.8978L33.5002 52.7506H32.7893V18.0588C32.7893 12.4351 34.6106 7.99989 38.1749 4.83151C41.7389 1.58401 46.3331 0 51.9567 0C57.5804 0 62.1739 1.90118 65.8968 5.7028C69.6193 9.50479 71.5205 14.3359 71.5205 20.1178C71.5205 25.8998 69.6193 30.6525 65.8177 34.5333ZM44.7049 20.174C44.7049 22.5352 45.3232 24.3905 46.6163 25.7959C47.9094 27.2012 49.7081 27.876 51.9571 27.876C54.2057 27.876 55.9483 27.2012 57.2414 25.7959C58.5345 24.3905 59.2086 22.5352 59.2086 20.174C59.2086 17.8131 58.5341 15.9017 57.2414 14.4963C55.9483 13.091 54.1496 12.36 51.9571 12.36C49.7647 12.36 47.9659 13.091 46.6728 14.4963C45.3797 15.9021 44.7049 17.8135 44.7049 20.174Z" fill="white"/>
<path d="M69.2151 51.0569L68.9846 48.9412C69.0671 44.9277 72.962 41.7308 77.6835 41.8009C82.405 41.8711 86.1657 45.182 86.0832 49.1955L85.5503 51.2998" fill="white"/>
<path d="M83.3535 20.1182C83.3535 14.3363 85.2547 9.50516 88.9772 5.70317C92.7001 1.90118 97.2935 0.000366211 102.917 0.000366211C108.541 0.000366211 113.135 1.58438 116.699 4.83187C120.264 8.00026 122.085 12.4355 122.085 18.0592V52.751H121.599L112.976 29.7816H112.184L110.52 38.4147C109.966 38.8897 108.857 39.286 107.194 39.6819C105.531 40.0782 104.105 40.2364 102.917 40.2364C97.4521 40.2364 92.7788 38.3352 89.0563 34.5336C85.2547 30.6525 83.3535 25.9001 83.3535 20.1182ZM108.201 14.4967C106.908 13.0913 105.109 12.3604 102.917 12.3604C100.724 12.3604 98.9257 13.0913 97.6326 14.4967C96.3395 15.9021 95.6654 17.8135 95.6654 20.1743C95.6654 22.5356 96.3398 24.3908 97.6326 25.7962C98.9253 27.2016 100.668 27.8764 102.917 27.8764C105.165 27.8764 106.965 27.2016 108.258 25.7962C109.551 24.3908 110.169 22.5356 110.169 20.1743C110.169 17.8135 109.494 15.9021 108.201 14.4967Z" fill="white"/>
<path d="M16.4265 186.523H17.818V195.372H16.401V189.23L14.1619 192.905H13.2953L11.0438 189.236V195.372H9.6333V186.523H11.0376L13.732 190.97L16.4265 186.523Z" fill="white"/>
<path d="M29.9157 195.372L29.3841 193.847H25.4502L24.919 195.372H23.4517L26.6018 186.523H28.2587L31.3772 195.372H29.9157ZM25.9248 192.507H28.923L27.4301 188.206L25.9248 192.507Z" fill="white"/>
<path d="M43.1077 195.372H41.4821L39.6608 192.127H38.453V195.372H37.0173V186.523H39.9014C41.6345 186.523 42.9498 187.617 42.9498 189.344C42.9498 190.635 42.216 191.552 41.1219 191.931L43.1077 195.372ZM38.4526 187.883V190.767H39.9072C40.8244 190.767 41.52 190.274 41.52 189.35C41.52 188.44 40.8306 187.883 39.9072 187.883H38.4526Z" fill="white"/>
<path d="M52.0547 195.511C50.6505 195.511 49.4616 194.935 48.5637 194.049L49.5313 193.012C50.1951 193.632 51.1758 194.157 52.0799 194.157C53.1236 194.157 53.7623 193.48 53.7623 192.829C53.7623 191.88 52.782 191.652 51.6749 191.393C50.2961 191.058 48.9363 190.4 48.9363 188.787C48.9363 187.39 50.1824 186.378 51.8962 186.378C52.8575 186.378 53.933 186.7 54.7929 187.421L53.9012 188.44C53.2939 187.984 52.5728 187.7 51.9279 187.7C51.112 187.7 50.3975 188.054 50.3975 188.787C50.3975 189.635 51.4157 189.907 52.377 190.153C53.6548 190.482 55.2235 191.039 55.2235 192.81C55.2235 194.454 53.7747 195.511 52.0547 195.511Z" fill="white"/>
<path d="M66.7897 187.877H62.5899V190.192H66.6632V191.507H62.5899V194.018H66.7897V195.372H61.1543V186.523H66.7897V187.877Z" fill="white"/>
<path d="M74.4525 186.523V195.372H73.0168V186.523H74.4525Z" fill="white"/>
<path d="M80.8572 195.372V186.523H82.2928V193.987H86.3977V195.372H80.8572V195.372Z" fill="white"/>
<path d="M92.1819 195.372V186.523H93.6175V193.987H97.7225V195.372H92.1819V195.372Z" fill="white"/>
<path d="M109.143 187.877H104.943V190.192H109.016V191.507H104.943V194.018H109.143V195.372H103.508V186.523H109.143V187.877Z" fill="white"/>
<path d="M124.06 192.449H115.218V191.127H124.06V192.449Z" fill="white"/>
<path d="M88.7659 205.939H79.9238V204.617H88.7659V205.939Z" fill="white"/>
<path d="M95.0134 208.86V200.012H97.8975C99.6306 200.012 100.946 201.106 100.946 202.832C100.946 204.559 99.6306 205.615 97.8975 205.615H96.4491V208.86H95.0134ZM96.4491 204.256H97.9036C98.8209 204.256 99.5165 203.762 99.5165 202.839C99.5165 201.928 98.8271 201.371 97.9036 201.371H96.4491V204.256Z" fill="white"/>
<path d="M111.475 208.86L110.943 207.335H107.009L106.478 208.86H105.011L108.161 200.012H109.818L112.937 208.86H111.475ZM107.484 205.995H110.482L108.989 201.694L107.484 205.995Z" fill="white"/>
<path d="M124.665 208.86H123.039L121.218 205.615H120.01V208.86H118.574V200.012H121.458C123.191 200.012 124.507 201.106 124.507 202.832C124.507 204.123 123.773 205.04 122.679 205.419L124.665 208.86ZM120.01 201.371V204.256H121.464C122.382 204.256 123.077 203.762 123.077 202.839C123.077 201.928 122.388 201.371 121.464 201.371H120.01Z" fill="white"/>
<path d="M132.114 200.012V208.86H130.679V200.012H132.114Z" fill="white"/>
<path d="M141.471 208.999C140.067 208.999 138.878 208.424 137.98 207.538L138.948 206.501C139.612 207.12 140.593 207.646 141.497 207.646C142.54 207.646 143.179 206.969 143.179 206.317C143.179 205.368 142.199 205.141 141.092 204.882C139.713 204.547 138.353 203.889 138.353 202.276C138.353 200.878 139.599 199.866 141.313 199.866C142.274 199.866 143.35 200.189 144.21 200.91L143.318 201.928C142.711 201.473 141.99 201.188 141.345 201.188C140.529 201.188 139.814 201.543 139.814 202.276C139.814 203.124 140.832 203.396 141.794 203.642C143.072 203.971 144.64 204.528 144.64 206.299C144.64 207.943 143.192 208.999 141.471 208.999Z" fill="white"/>
</svg>
