<svg width="102" height="30" viewBox="0 0 102 30" fill="none" xmlns="http://www.w3.org/2000/svg">
<path d="M58.4881 9.0578C58.4881 9.64953 58.6466 10.1147 58.9779 10.4669C59.3093 10.8191 59.7705 10.9881 60.3468 10.9881C60.9232 10.9881 61.3698 10.8191 61.7013 10.4669C62.0326 10.1147 62.2054 9.64953 62.2054 9.0578C62.2054 8.46608 62.0326 7.98707 61.7013 7.63484C61.3698 7.28262 60.9087 7.09937 60.3468 7.09937C59.7848 7.09937 59.3238 7.28262 58.9924 7.63484C58.6609 7.98707 58.4881 8.46608 58.4881 9.0578ZM55.4985 18.8978V8.53445C55.4985 7.14333 55.9593 6.04641 56.8608 5.26265C57.7624 4.45955 58.9245 4.06767 60.3468 4.06767C61.7692 4.06767 62.9311 4.53788 63.8729 5.47832C64.8145 6.41856 65.2952 7.61374 65.2952 9.04374C65.2952 10.4739 64.8145 11.6494 63.8527 12.6092C62.9111 13.5496 61.7292 14.0198 60.3468 14.0198C60.0462 14.0198 59.6857 13.9807 59.265 13.8827C58.8442 13.7846 58.5638 13.6867 58.4235 13.5691L58.0028 11.4339H57.8024L55.7054 18.9496" fill="#3A3A1F"/>
<path d="M58.4881 9.0578C58.4881 9.64953 58.6466 10.1147 58.9779 10.4669C59.3093 10.8191 59.7705 10.9881 60.3468 10.9881C60.9232 10.9881 61.3698 10.8191 61.7013 10.4669C62.0326 10.1147 62.2054 9.64953 62.2054 9.0578C62.2054 8.46608 62.0326 7.98707 61.7013 7.63484C61.3698 7.28262 60.9087 7.09937 60.3468 7.09937C59.7848 7.09937 59.3238 7.28262 58.9924 7.63484C58.6609 7.98707 58.4881 8.46608 58.4881 9.0578ZM55.4985 18.8978V8.53445C55.4985 7.14333 55.9593 6.04641 56.8608 5.26265C57.7624 4.45955 58.9245 4.06767 60.3468 4.06767C61.7692 4.06767 62.9311 4.53788 63.8729 5.47832C64.8145 6.41856 65.2952 7.61374 65.2952 9.04374C65.2952 10.4739 64.8145 11.6494 63.8527 12.6092C62.9111 13.5496 61.7292 14.0198 60.3468 14.0198C60.0462 14.0198 59.6857 13.9807 59.265 13.8827C58.8442 13.7846 58.5638 13.6867 58.4235 13.5691L58.0028 11.4339H57.8024L55.7054 18.9496" fill="black" fill-opacity="0.2"/>
<path d="M68.0706 4.14224H70.3745V13.8984H68.0706V4.14224ZM68.251 0.81183C68.8118 0.263274 69.6533 0.263274 70.1942 0.81183C70.7552 1.34085 70.7552 2.16368 70.1942 2.71224C69.6533 3.24106 68.8118 3.24106 68.251 2.71224C67.71 2.16368 67.71 1.34085 68.251 0.81183Z" fill="#3A3A1F"/>
<path d="M68.0706 4.14224H70.3745V13.8984H68.0706V4.14224ZM68.251 0.81183C68.8118 0.263274 69.6533 0.263274 70.1942 0.81183C70.7552 1.34085 70.7552 2.16368 70.1942 2.71224C69.6533 3.24106 68.8118 3.24106 68.251 2.71224C67.71 2.16368 67.71 1.34085 68.251 0.81183Z" fill="black" fill-opacity="0.2"/>
<path d="M77.257 11.0185H77.3371L77.3973 10.4307L79.1401 4.14226H81.6043L79.5208 10.7443L79.3805 11.1948C79.1803 11.8218 79.04 12.2723 78.9397 12.5271C78.8597 12.7818 78.7394 13.0364 78.559 13.3304C78.2386 13.8787 77.9181 13.9963 77.297 13.9963C76.736 13.9963 76.3354 13.8201 76.0951 13.4675C75.8747 13.0952 75.574 12.3509 75.2135 11.1948L75.0732 10.7443L72.9897 4.14226H75.4539L77.1969 10.4307L77.257 11.0185Z" fill="#3A3A1F"/>
<path d="M77.257 11.0185H77.3371L77.3973 10.4307L79.1401 4.14226H81.6043L79.5208 10.7443L79.3805 11.1948C79.1803 11.8218 79.04 12.2723 78.9397 12.5271C78.8597 12.7818 78.7394 13.0364 78.559 13.3304C78.2386 13.8787 77.9181 13.9963 77.297 13.9963C76.736 13.9963 76.3354 13.8201 76.0951 13.4675C75.8747 13.0952 75.574 12.3509 75.2135 11.1948L75.0732 10.7443L72.9897 4.14226H75.4539L77.1969 10.4307L77.257 11.0185Z" fill="black" fill-opacity="0.2"/>
<path d="M86.1823 9.02039C86.1823 9.70042 86.3909 10.2617 86.8083 10.7038C87.243 11.1457 87.7993 11.3668 88.4948 11.3668C89.1902 11.3668 89.7468 11.1457 90.1642 10.7038C90.5989 10.2617 90.8073 9.70042 90.8073 9.02039C90.8073 8.34016 90.5989 7.7791 90.1642 7.33702C89.7468 6.89513 89.1902 6.67398 88.4948 6.67398C87.7993 6.67398 87.243 6.89513 86.8083 7.33702C86.3909 7.7791 86.1823 8.34016 86.1823 9.02039ZM93.5234 9.02039C93.5234 10.4506 93.0424 11.6456 92.0809 12.5858C91.1393 13.5262 89.9373 13.9965 88.495 13.9965C87.0524 13.9965 85.8502 13.5262 84.8887 12.5858C83.9471 11.6456 83.4663 10.4506 83.4663 9.02039C83.4663 7.5902 83.9471 6.39521 84.8887 5.45497C85.8502 4.51453 87.0524 4.04432 88.495 4.04432C89.9373 4.04432 91.1393 4.51453 92.0809 5.45497C93.0424 6.39521 93.5234 7.5902 93.5234 9.02039Z" fill="#3A3A1F"/>
<path d="M86.1823 9.02039C86.1823 9.70042 86.3909 10.2617 86.8083 10.7038C87.243 11.1457 87.7993 11.3668 88.4948 11.3668C89.1902 11.3668 89.7468 11.1457 90.1642 10.7038C90.5989 10.2617 90.8073 9.70042 90.8073 9.02039C90.8073 8.34016 90.5989 7.7791 90.1642 7.33702C89.7468 6.89513 89.1902 6.67398 88.4948 6.67398C87.7993 6.67398 87.243 6.89513 86.8083 7.33702C86.3909 7.7791 86.1823 8.34016 86.1823 9.02039ZM93.5234 9.02039C93.5234 10.4506 93.0424 11.6456 92.0809 12.5858C91.1393 13.5262 89.9373 13.9965 88.495 13.9965C87.0524 13.9965 85.8502 13.5262 84.8887 12.5858C83.9471 11.6456 83.4663 10.4506 83.4663 9.02039C83.4663 7.5902 83.9471 6.39521 84.8887 5.45497C85.8502 4.51453 87.0524 4.04432 88.495 4.04432C89.9373 4.04432 91.1393 4.51453 92.0809 5.45497C93.0424 6.39521 93.5234 7.5902 93.5234 9.02039Z" fill="black" fill-opacity="0.2"/>
<path d="M96.5283 10.6073V1.75222H98.8322V4.14219H100.695V6.33641H98.8322V10.3525C98.8322 11.4496 99.2729 11.861 100.295 11.8415C100.475 11.8415 100.695 11.8218 100.916 11.7827L100.996 13.8984C100.776 13.9572 100.495 13.9965 100.134 13.9965C97.7305 13.9965 96.5283 12.8601 96.5283 10.6073Z" fill="#3A3A1F"/>
<path d="M96.5283 10.6073V1.75222H98.8322V4.14219H100.695V6.33641H98.8322V10.3525C98.8322 11.4496 99.2729 11.861 100.295 11.8415C100.475 11.8415 100.695 11.8218 100.916 11.7827L100.996 13.8984C100.776 13.9572 100.495 13.9965 100.134 13.9965C97.7305 13.9965 96.5283 12.8601 96.5283 10.6073Z" fill="black" fill-opacity="0.2"/>
<path d="M57.714 22.3311C57.714 22.8486 57.8525 23.2549 58.1424 23.563C58.432 23.8711 58.8351 24.0188 59.339 24.0188C59.843 24.0188 60.2337 23.8711 60.5233 23.563C60.8132 23.2549 60.9643 22.8486 60.9643 22.3311C60.9643 21.8136 60.8132 21.3948 60.5233 21.0869C60.2337 20.7788 59.8304 20.6186 59.339 20.6186C58.8478 20.6186 58.4448 20.7788 58.1549 21.0869C57.8653 21.3948 57.714 21.8136 57.714 22.3311ZM62.2781 25.3077C61.4888 26.096 60.4978 26.4902 59.339 26.4902C59.0873 26.4902 58.7849 26.4574 58.4322 26.3753C58.0796 26.2931 57.8445 26.2108 57.7269 26.1124L57.3743 24.3223H57.2061L55.4407 29.0851H55.2749V21.8917C55.2749 20.7257 55.6611 19.8061 56.4168 19.1492C57.1727 18.4758 58.1467 18.1474 59.339 18.1474C60.5316 18.1474 61.5055 18.5414 62.295 19.3299C63.0843 20.1181 63.4874 21.1199 63.4874 22.3188C63.4874 23.5177 63.0843 24.503 62.2781 25.3077Z" fill="#3A3A1F"/>
<path d="M57.714 22.3311C57.714 22.8486 57.8525 23.2549 58.1424 23.563C58.432 23.8711 58.8351 24.0188 59.339 24.0188C59.843 24.0188 60.2337 23.8711 60.5233 23.563C60.8132 23.2549 60.9643 22.8486 60.9643 22.3311C60.9643 21.8136 60.8132 21.3948 60.5233 21.0869C60.2337 20.7788 59.8304 20.6186 59.339 20.6186C58.8478 20.6186 58.4448 20.7788 58.1549 21.0869C57.8653 21.3948 57.714 21.8136 57.714 22.3311ZM62.2781 25.3077C61.4888 26.096 60.4978 26.4902 59.339 26.4902C59.0873 26.4902 58.7849 26.4574 58.4322 26.3753C58.0796 26.2931 57.8445 26.2108 57.7269 26.1124L57.3743 24.3223H57.2061L55.4407 29.0851H55.2749V21.8917C55.2749 20.7257 55.6611 19.8061 56.4168 19.1492C57.1727 18.4758 58.1467 18.1474 59.339 18.1474C60.5316 18.1474 61.5055 18.5414 62.295 19.3299C63.0843 20.1181 63.4874 21.1199 63.4874 22.3188C63.4874 23.5177 63.0843 24.503 62.2781 25.3077Z" fill="black" fill-opacity="0.2"/>
<path d="M70.7762 22.3863C70.7762 21.7764 70.5937 21.2855 70.2438 20.9282C69.8939 20.5564 69.4222 20.3779 68.8441 20.3779C68.2659 20.3779 67.7944 20.5564 67.4443 20.9282C67.0944 21.2855 66.9119 21.7764 66.9119 22.3863C66.9119 22.9962 67.0944 23.4871 67.4443 23.8593C67.7944 24.2162 68.2659 24.3948 68.8441 24.3948C69.4222 24.3948 69.8939 24.2162 70.2438 23.8593C70.5937 23.4871 70.7762 22.9962 70.7762 22.3863ZM71.7496 19.2331C72.5053 19.8735 72.8748 20.7934 72.8748 21.9593V26.5249H72.5915L71.4311 23.8802L72.1256 24.9449L71.7492 25.2955C71.0145 25.9263 70.3692 26.2418 69.7173 26.4098C69.3825 26.4962 69.096 26.5249 68.8441 26.5249C67.6853 26.5249 66.6942 26.1307 65.905 25.3588C65.1157 24.5706 64.7295 23.5852 64.7295 22.3863C64.7295 21.1874 65.1157 20.2021 65.8883 19.4302C66.6609 18.6584 67.6517 18.2641 68.8441 18.2641C70.0364 18.2641 70.9937 18.5925 71.7496 19.2331Z" fill="#3A3A1F"/>
<path d="M70.7762 22.3863C70.7762 21.7764 70.5937 21.2855 70.2438 20.9282C69.8939 20.5564 69.4222 20.3779 68.8441 20.3779C68.2659 20.3779 67.7944 20.5564 67.4443 20.9282C67.0944 21.2855 66.9119 21.7764 66.9119 22.3863C66.9119 22.9962 67.0944 23.4871 67.4443 23.8593C67.7944 24.2162 68.2659 24.3948 68.8441 24.3948C69.4222 24.3948 69.8939 24.2162 70.2438 23.8593C70.5937 23.4871 70.7762 22.9962 70.7762 22.3863ZM71.7496 19.2331C72.5053 19.8735 72.8748 20.7934 72.8748 21.9593V26.5249H72.5915L71.4311 23.8802L72.1256 24.9449L71.7492 25.2955C71.0145 25.9263 70.3692 26.2418 69.7173 26.4098C69.3825 26.4962 69.096 26.5249 68.8441 26.5249C67.6853 26.5249 66.6942 26.1307 65.905 25.3588C65.1157 24.5706 64.7295 23.5852 64.7295 22.3863C64.7295 21.1874 65.1157 20.2021 65.8883 19.4302C66.6609 18.6584 67.6517 18.2641 68.8441 18.2641C70.0364 18.2641 70.9937 18.5925 71.7496 19.2331Z" fill="black" fill-opacity="0.2"/>
<path d="M99.1717 22.3863C99.1717 21.7764 98.9892 21.2855 98.6393 20.9282C98.2895 20.5564 97.8177 20.3779 97.2396 20.3779C96.6614 20.3779 96.1899 20.5564 95.8398 20.9282C95.4899 21.2855 95.3074 21.7764 95.3074 22.3863C95.3074 22.9962 95.4899 23.4871 95.8398 23.8593C96.1899 24.2162 96.6614 24.3948 97.2396 24.3948C97.8177 24.3948 98.2895 24.2162 98.6393 23.8593C98.9892 23.4871 99.1717 22.9962 99.1717 22.3863ZM100.145 19.2331C100.901 19.8735 101.27 20.7934 101.27 21.9593V26.5249H100.987L99.8266 23.8802L100.521 24.9449L100.145 25.2955C99.41 25.9263 98.7647 26.2418 98.1128 26.4098C97.7781 26.4962 97.4915 26.5249 97.2396 26.5249C96.0808 26.5249 95.09 26.1307 94.3005 25.3588C93.5112 24.5706 93.125 23.5852 93.125 22.3863C93.125 21.1874 93.5112 20.2021 94.2838 19.4302C95.0564 18.6584 96.0472 18.2641 97.2396 18.2641C98.4319 18.2641 99.3892 18.5925 100.145 19.2331Z" fill="#3A3A1F"/>
<path d="M99.1717 22.3863C99.1717 21.7764 98.9892 21.2855 98.6393 20.9282C98.2895 20.5564 97.8177 20.3779 97.2396 20.3779C96.6614 20.3779 96.1899 20.5564 95.8398 20.9282C95.4899 21.2855 95.3074 21.7764 95.3074 22.3863C95.3074 22.9962 95.4899 23.4871 95.8398 23.8593C96.1899 24.2162 96.6614 24.3948 97.2396 24.3948C97.8177 24.3948 98.2895 24.2162 98.6393 23.8593C98.9892 23.4871 99.1717 22.9962 99.1717 22.3863ZM100.145 19.2331C100.901 19.8735 101.27 20.7934 101.27 21.9593V26.5249H100.987L99.8266 23.8802L100.521 24.9449L100.145 25.2955C99.41 25.9263 98.7647 26.2418 98.1128 26.4098C97.7781 26.4962 97.4915 26.5249 97.2396 26.5249C96.0808 26.5249 95.09 26.1307 94.3005 25.3588C93.5112 24.5706 93.125 23.5852 93.125 22.3863C93.125 21.1874 93.5112 20.2021 94.2838 19.4302C95.0564 18.6584 96.0472 18.2641 97.2396 18.2641C98.4319 18.2641 99.3892 18.5925 100.145 19.2331Z" fill="black" fill-opacity="0.2"/>
<path d="M81.9463 26.5249H79.6691V21.3517C79.6691 20.5635 79.2335 20.1692 78.3622 20.1692C77.4909 20.1692 77.0552 20.5635 77.0552 21.3517V26.5249H74.7778V20.7278C74.7778 19.9721 75.1344 19.381 75.8471 18.9375C76.5799 18.4941 77.4116 18.2641 78.3622 18.2641C79.3126 18.2641 80.1442 18.4941 80.8572 18.9375C81.5899 19.381 81.9463 19.9721 81.9463 20.7278V26.5249Z" fill="#3A3A1F"/>
<path d="M81.9463 26.5249H79.6691V21.3517C79.6691 20.5635 79.2335 20.1692 78.3622 20.1692C77.4909 20.1692 77.0552 20.5635 77.0552 21.3517V26.5249H74.7778V20.7278C74.7778 19.9721 75.1344 19.381 75.8471 18.9375C76.5799 18.4941 77.4116 18.2641 78.3622 18.2641C79.3126 18.2641 80.1442 18.4941 80.8572 18.9375C81.5899 19.381 81.9463 19.9721 81.9463 20.7278V26.5249Z" fill="black" fill-opacity="0.2"/>
<path d="M89.4228 22.4215C89.4228 21.8288 89.2496 21.363 88.9177 21.01C88.5857 20.6572 88.1383 20.4878 87.5609 20.4878C86.9836 20.4878 86.5216 20.6572 86.1898 21.01C85.8578 21.363 85.699 21.8288 85.699 22.4215C85.699 23.0142 85.8721 23.4942 86.2041 23.847C86.5362 24.2 86.9979 24.3834 87.5609 24.3834C88.1237 24.3834 88.5857 24.2 88.9177 23.847C89.2496 23.4942 89.4228 23.0142 89.4228 22.4215ZM84.605 19.463C85.4113 18.6583 86.4021 18.2641 87.5609 18.2641C87.8129 18.2641 88.0984 18.2969 88.4511 18.3792C88.8037 18.4612 89.563 18.7062 89.8138 18.899L90.7278 19.3546L89.6939 20.432V15.2916H91.6253V22.8626C91.6253 24.0286 91.2389 24.9484 90.4831 25.6216C89.7274 26.2785 88.7533 26.6069 87.5609 26.6069C86.3684 26.6069 85.3776 26.2129 84.5883 25.4245C83.799 24.6362 83.4126 23.6346 83.4126 22.4357C83.4126 21.2368 83.8157 20.2513 84.605 19.463Z" fill="#3A3A1F"/>
<path d="M89.4228 22.4215C89.4228 21.8288 89.2496 21.363 88.9177 21.01C88.5857 20.6572 88.1383 20.4878 87.5609 20.4878C86.9836 20.4878 86.5216 20.6572 86.1898 21.01C85.8578 21.363 85.699 21.8288 85.699 22.4215C85.699 23.0142 85.8721 23.4942 86.2041 23.847C86.5362 24.2 86.9979 24.3834 87.5609 24.3834C88.1237 24.3834 88.5857 24.2 88.9177 23.847C89.2496 23.4942 89.4228 23.0142 89.4228 22.4215ZM84.605 19.463C85.4113 18.6583 86.4021 18.2641 87.5609 18.2641C87.8129 18.2641 88.0984 18.2969 88.4511 18.3792C88.8037 18.4612 89.563 18.7062 89.8138 18.899L90.7278 19.3546L89.6939 20.432V15.2916H91.6253V22.8626C91.6253 24.0286 91.2389 24.9484 90.4831 25.6216C89.7274 26.2785 88.7533 26.6069 87.5609 26.6069C86.3684 26.6069 85.3776 26.2129 84.5883 25.4245C83.799 24.6362 83.4126 23.6346 83.4126 22.4357C83.4126 21.2368 83.8157 20.2513 84.605 19.463Z" fill="black" fill-opacity="0.2"/>
<path d="M6.74224 11.1885C6.74224 12.4538 7.07506 13.448 7.77112 14.2011C8.46699 14.9542 9.43544 15.3156 10.6458 15.3156C11.8563 15.3156 12.7945 14.9542 13.4903 14.2011C14.1864 13.448 14.5495 12.4538 14.5495 11.1885C14.5495 9.92341 14.1864 8.89916 13.4903 8.14607C12.7945 7.39318 11.826 7.0013 10.6458 7.0013C9.46566 7.0013 8.49741 7.39318 7.80134 8.14607C7.10548 8.89916 6.74224 9.92341 6.74224 11.1885ZM18.1071 18.883C16.1033 20.9203 13.5875 21.9391 10.6458 21.9391C10.0063 21.9391 9.2388 21.8541 8.34356 21.6419C7.44831 21.4296 6.85135 21.2174 6.55286 20.9629L5.65762 16.3367H5.23119L0.710794 28.645H0.328125V10.0549C0.328125 7.04134 1.30854 4.66466 3.22738 2.96683C5.14582 1.22681 7.61884 0.377993 10.6458 0.377993C13.673 0.377993 16.1457 1.39676 18.1497 3.43392C20.1535 5.47128 21.1769 8.06012 21.1769 11.1584C21.1769 14.2568 20.1535 16.8034 18.1071 18.883Z" fill="#3A3A1F"/>
<path d="M6.74224 11.1885C6.74224 12.4538 7.07506 13.448 7.77112 14.2011C8.46699 14.9542 9.43544 15.3156 10.6458 15.3156C11.8563 15.3156 12.7945 14.9542 13.4903 14.2011C14.1864 13.448 14.5495 12.4538 14.5495 11.1885C14.5495 9.92341 14.1864 8.89916 13.4903 8.14607C12.7945 7.39318 11.826 7.0013 10.6458 7.0013C9.46566 7.0013 8.49741 7.39318 7.80134 8.14607C7.10548 8.89916 6.74224 9.92341 6.74224 11.1885ZM18.1071 18.883C16.1033 20.9203 13.5875 21.9391 10.6458 21.9391C10.0063 21.9391 9.2388 21.8541 8.34356 21.6419C7.44831 21.4296 6.85135 21.2174 6.55286 20.9629L5.65762 16.3367H5.23119L0.710794 28.645H0.328125V10.0549C0.328125 7.04134 1.30854 4.66466 3.22738 2.96683C5.14582 1.22681 7.61884 0.377993 10.6458 0.377993C13.673 0.377993 16.1457 1.39676 18.1497 3.43392C20.1535 5.47128 21.1769 8.06012 21.1769 11.1584C21.1769 14.2568 20.1535 16.8034 18.1071 18.883Z" fill="black" fill-opacity="0.2"/>
<path d="M19.9179 28.2251L19.7935 26.8875C19.838 24.3501 21.9405 22.3289 24.4897 22.3733C27.0386 22.4176 29.0689 24.5108 29.0244 27.0483L28.7367 28.3787" fill="#3A3A1F"/>
<path d="M19.9179 28.2251L19.7935 26.8875C19.838 24.3501 21.9405 22.3289 24.4897 22.3733C27.0386 22.4176 29.0689 24.5108 29.0244 27.0483L28.7367 28.3787" fill="black" fill-opacity="0.2"/>
<path d="M40.9214 8.14619C40.2254 7.3931 39.2571 7.00141 38.0769 7.00141C36.8967 7.00141 35.9285 7.3931 35.2324 8.14619C34.5364 8.89928 34.1735 9.92353 34.1735 11.1886C34.1735 12.4538 34.5364 13.4479 35.2324 14.201C35.9285 14.9541 36.8665 15.3157 38.0769 15.3157C39.2875 15.3157 40.2558 14.9541 40.9519 14.201C41.6477 13.4479 41.9805 12.4538 41.9805 11.1886C41.9805 9.92353 41.6175 8.89928 40.9214 8.14619ZM27.5459 11.1586C27.5459 8.06024 28.5693 5.4712 30.5731 3.43404C32.5771 1.39669 35.0497 0.377916 38.0769 0.377916C41.1039 0.377916 43.577 1.22673 45.4954 2.96695C47.4142 4.66478 48.3947 7.04146 48.3947 10.055V28.6451H48.1333L43.4918 16.3366H43.0654L42.1699 20.9628C41.8714 21.2174 41.2745 21.4297 40.3794 21.6419C39.484 21.8542 38.7165 21.939 38.0769 21.939C35.1353 21.939 32.6195 20.9202 30.6159 18.8831C28.5693 16.8035 27.5459 14.2569 27.5459 11.1586Z" fill="#3A3A1F"/>
<path d="M40.9214 8.14619C40.2254 7.3931 39.2571 7.00141 38.0769 7.00141C36.8967 7.00141 35.9285 7.3931 35.2324 8.14619C34.5364 8.89928 34.1735 9.92353 34.1735 11.1886C34.1735 12.4538 34.5364 13.4479 35.2324 14.201C35.9285 14.9541 36.8665 15.3157 38.0769 15.3157C39.2875 15.3157 40.2558 14.9541 40.9519 14.201C41.6477 13.4479 41.9805 12.4538 41.9805 11.1886C41.9805 9.92353 41.6175 8.89928 40.9214 8.14619ZM27.5459 11.1586C27.5459 8.06024 28.5693 5.4712 30.5731 3.43404C32.5771 1.39669 35.0497 0.377916 38.0769 0.377916C41.1039 0.377916 43.577 1.22673 45.4954 2.96695C47.4142 4.66478 48.3947 7.04146 48.3947 10.055V28.6451H48.1333L43.4918 16.3366H43.0654L42.1699 20.9628C41.8714 21.2174 41.2745 21.4297 40.3794 21.6419C39.484 21.8542 38.7165 21.939 38.0769 21.939C35.1353 21.939 32.6195 20.9202 30.6159 18.8831C28.5693 16.8035 27.5459 14.2569 27.5459 11.1586Z" fill="black" fill-opacity="0.2"/>
</svg>
