<svg width="295" height="42" viewBox="0 0 295 42" fill="none" xmlns="http://www.w3.org/2000/svg">
<g clip-path="url(#clip0_335_17436)">
<mask id="mask0_335_17436" style="mask-type:luminance" maskUnits="userSpaceOnUse" x="0" y="0" width="295" height="42">
<path d="M295 0H0V42H295V0Z" fill="white"/>
</mask>
<g mask="url(#mask0_335_17436)">
<path d="M106.328 35.9548C102.319 37.1031 98.2384 37.9865 94.1132 38.5994C89.9495 39.223 85.7508 39.5858 81.5419 39.6859C78.8595 39.7479 76.176 39.6264 73.5102 39.3221C71.3809 39.0936 69.2282 39.0652 67.0933 38.8133C63.8273 38.4276 60.5597 38.0711 57.301 37.6044C53.9151 37.1183 50.5016 36.8218 47.0979 36.4636C41.7018 35.8458 36.2729 35.56 30.8417 35.6081C31.5349 34.0137 32.3292 32.4652 33.2197 30.972C37.0822 23.7612 42.0373 17.1915 47.909 11.496C52.9218 6.78299 58.479 2.88341 65.2071 1.03045C68.5664 0.050046 72.0891 -0.241454 75.5639 0.173448C79.0386 0.588351 82.3937 1.7011 85.4277 3.44489C91.2005 6.68171 94.3814 11.8233 95.4817 18.2962C95.5278 18.5643 95.6915 18.9443 95.429 19.0934C95.0498 19.3097 94.9283 18.8649 94.7136 18.6502C92.1419 16.0802 89.2203 14.305 85.4074 14.4582C81.0185 14.634 76.4772 18.2662 76.9155 23.343C77.1586 25.628 78.2942 27.7246 80.0754 29.1766C83.2628 32.0399 87.1858 33.3897 91.2499 34.332C96.2 35.4261 101.256 35.9695 106.326 35.9524" fill="#3A3A1F"/>
<path d="M106.328 35.9548C102.319 37.1031 98.2384 37.9865 94.1132 38.5994C89.9495 39.223 85.7508 39.5858 81.5419 39.6859C78.8595 39.7479 76.176 39.6264 73.5102 39.3221C71.3809 39.0936 69.2282 39.0652 67.0933 38.8133C63.8273 38.4276 60.5597 38.0711 57.301 37.6044C53.9151 37.1183 50.5016 36.8218 47.0979 36.4636C41.7018 35.8458 36.2729 35.56 30.8417 35.6081C31.5349 34.0137 32.3292 32.4652 33.2197 30.972C37.0822 23.7612 42.0373 17.1915 47.909 11.496C52.9218 6.78299 58.479 2.88341 65.2071 1.03045C68.5664 0.050046 72.0891 -0.241454 75.5639 0.173448C79.0386 0.588351 82.3937 1.7011 85.4277 3.44489C91.2005 6.68171 94.3814 11.8233 95.4817 18.2962C95.5278 18.5643 95.6915 18.9443 95.429 19.0934C95.0498 19.3097 94.9283 18.8649 94.7136 18.6502C92.1419 16.0802 89.2203 14.305 85.4074 14.4582C81.0185 14.634 76.4772 18.2662 76.9155 23.343C77.1586 25.628 78.2942 27.7246 80.0754 29.1766C83.2628 32.0399 87.1858 33.3897 91.2499 34.332C96.2 35.4261 101.256 35.9695 106.326 35.9524" fill="black" fill-opacity="0.2"/>
<path d="M1.36199 38.3806C5.37948 35.8484 9.25741 33.1013 12.9789 30.1512C17.4545 26.5531 21.8491 22.852 26.2778 19.1955C31.9137 14.5424 37.6208 9.97929 44.1026 6.52696C45.872 5.56048 47.7209 4.74729 49.6291 4.09631C49.9248 3.99989 50.3339 3.59964 50.5454 4.09631C50.6718 4.39528 50.2302 4.57839 49.9839 4.74448C46.148 7.31599 42.5749 10.2594 39.3166 13.5321C34.5236 18.4764 30.4025 24.0304 27.0596 30.0508C26.0874 31.7263 25.1524 33.4213 24.2701 35.1446C24.1807 35.3666 24.0219 35.5537 23.8175 35.6781C23.6131 35.8025 23.374 35.8575 23.1358 35.8349C17.4321 36.1222 11.7518 36.7635 6.12769 37.7551C4.53075 38.0201 2.96784 38.4843 1.3863 38.8546C0.762433 38.7371 1.35794 38.5394 1.35551 38.3814" fill="#3A3A1F"/>
<path d="M1.36199 38.3806C5.37948 35.8484 9.25741 33.1013 12.9789 30.1512C17.4545 26.5531 21.8491 22.852 26.2778 19.1955C31.9137 14.5424 37.6208 9.97929 44.1026 6.52696C45.872 5.56048 47.7209 4.74729 49.6291 4.09631C49.9248 3.99989 50.3339 3.59964 50.5454 4.09631C50.6718 4.39528 50.2302 4.57839 49.9839 4.74448C46.148 7.31599 42.5749 10.2594 39.3166 13.5321C34.5236 18.4764 30.4025 24.0304 27.0596 30.0508C26.0874 31.7263 25.1524 33.4213 24.2701 35.1446C24.1807 35.3666 24.0219 35.5537 23.8175 35.6781C23.6131 35.8025 23.374 35.8575 23.1358 35.8349C17.4321 36.1222 11.7518 36.7635 6.12769 37.7551C4.53075 38.0201 2.96784 38.4843 1.3863 38.8546C0.762433 38.7371 1.35794 38.5394 1.35551 38.3814" fill="black" fill-opacity="0.2"/>
<path d="M102.488 40.4822C104.402 39.9848 106.324 39.51 108.228 38.9736C108.795 38.8116 108.964 38.9185 109.006 39.5019C109.176 41.9269 108.671 42.37 106.372 41.7438C105.062 41.3873 103.753 41.0243 102.444 40.6645C102.458 40.6038 102.473 40.543 102.488 40.4822Z" fill="#3A3A1F"/>
<path d="M102.488 40.4822C104.402 39.9848 106.324 39.51 108.228 38.9736C108.795 38.8116 108.964 38.9185 109.006 39.5019C109.176 41.9269 108.671 42.37 106.372 41.7438C105.062 41.3873 103.753 41.0243 102.444 40.6645C102.458 40.6038 102.473 40.543 102.488 40.4822Z" fill="black" fill-opacity="0.2"/>
<path d="M1.36199 38.3825C1.35632 38.5445 1.15457 38.7138 1.39277 38.8556C1.14971 39.1036 0.802127 38.9901 0.519361 39.0987C0.49531 39.0775 0.477424 39.0502 0.467585 39.0197C0.457746 38.9892 0.45632 38.9566 0.463456 38.9253C0.480471 38.8662 0.497485 38.837 0.5145 38.837C0.795645 38.6839 1.00954 38.4052 1.36118 38.3784" fill="#3A3A1F"/>
<path d="M1.36199 38.3825C1.35632 38.5445 1.15457 38.7138 1.39277 38.8556C1.14971 39.1036 0.802127 38.9901 0.519361 39.0987C0.49531 39.0775 0.477424 39.0502 0.467585 39.0197C0.457746 38.9892 0.45632 38.9566 0.463456 38.9253C0.480471 38.8662 0.497485 38.837 0.5145 38.837C0.795645 38.6839 1.00954 38.4052 1.36118 38.3784" fill="black" fill-opacity="0.2"/>
<path d="M0.51532 38.8394V39.1011C0.36705 39.3036 0.0437733 39.37 0.00407267 39.1983C-0.0575038 38.9301 0.277116 38.8815 0.511268 38.8394" fill="#3A3A1F"/>
<path d="M0.51532 38.8394V39.1011C0.36705 39.3036 0.0437733 39.37 0.00407267 39.1983C-0.0575038 38.9301 0.277116 38.8815 0.511268 38.8394" fill="black" fill-opacity="0.2"/>
<path d="M206.583 31.5195C206.583 31.5519 206.541 31.5868 206.589 31.6159C206.54 31.6654 206.469 31.6435 206.412 31.6654C206.407 31.661 206.403 31.6553 206.401 31.6491C206.399 31.6428 206.399 31.6361 206.4 31.6297C206.4 31.6176 206.407 31.6127 206.411 31.6127C206.468 31.5811 206.512 31.5244 206.583 31.5195Z" fill="#3A3A1F"/>
<path d="M206.583 31.5195C206.583 31.5519 206.541 31.5868 206.589 31.6159C206.54 31.6654 206.469 31.6435 206.412 31.6654C206.407 31.661 206.403 31.6553 206.401 31.6491C206.399 31.6428 206.399 31.6361 206.4 31.6297C206.4 31.6176 206.407 31.6127 206.411 31.6127C206.468 31.5811 206.512 31.5244 206.583 31.5195Z" fill="black" fill-opacity="0.2"/>
<path d="M206.546 31.6138C206.546 31.6308 206.546 31.6494 206.546 31.6664C206.516 31.7078 206.451 31.7215 206.442 31.6867C206.43 31.6316 206.498 31.6219 206.546 31.6138Z" fill="#3A3A1F"/>
<path d="M206.546 31.6138C206.546 31.6308 206.546 31.6494 206.546 31.6664C206.516 31.7078 206.451 31.7215 206.442 31.6867C206.43 31.6316 206.498 31.6219 206.546 31.6138Z" fill="black" fill-opacity="0.2"/>
<path fill-rule="evenodd" clip-rule="evenodd" d="M288.673 8.59856V16.9316H288.193V7.11182L294.52 15.6742V7.23983H294.999V17.2266L288.673 8.59856ZM290.706 34.5522V23.4984C290.697 23.4147 290.708 23.3302 290.736 23.251C290.764 23.1717 290.81 23.0997 290.869 23.0402C290.929 22.9807 291.001 22.9352 291.08 22.907C291.159 22.8788 291.244 22.8685 291.327 22.877H294.059C294.143 22.8685 294.228 22.8788 294.307 22.907C294.386 22.9352 294.458 22.9807 294.518 23.0402C294.577 23.0997 294.623 23.1717 294.651 23.251C294.679 23.3302 294.689 23.4147 294.681 23.4984V34.899C294.681 38.626 291.8 40.6126 288.229 40.6126C284.645 40.6126 281.763 38.6252 281.763 34.899V23.4984C281.755 23.4148 281.765 23.3304 281.793 23.2512C281.822 23.172 281.867 23.1001 281.926 23.0406C281.986 22.9811 282.058 22.9356 282.137 22.9073C282.216 22.879 282.3 22.8687 282.384 22.877H285.117C285.201 22.8685 285.285 22.8788 285.364 22.907C285.444 22.9352 285.516 22.9807 285.575 23.0402C285.635 23.0997 285.68 23.1717 285.708 23.251C285.737 23.3302 285.747 23.4147 285.738 23.4984V34.5522C285.738 35.8688 286.359 36.7495 288.229 36.7495C290.085 36.7495 290.706 35.8688 290.706 34.5522ZM279.157 40.2643H269.964C269.881 40.2735 269.796 40.2638 269.716 40.2359C269.637 40.208 269.565 40.1625 269.505 40.103C269.445 40.0434 269.4 39.9712 269.372 39.8917C269.344 39.8121 269.334 39.7274 269.344 39.6436V23.4984C269.335 23.4148 269.345 23.3304 269.374 23.2512C269.402 23.172 269.447 23.1001 269.507 23.0406C269.566 22.9811 269.638 22.9356 269.717 22.9073C269.796 22.879 269.881 22.8687 269.964 22.877H279.031C279.115 22.8685 279.2 22.8788 279.279 22.907C279.358 22.9352 279.43 22.9807 279.49 23.0402C279.549 23.0997 279.595 23.1717 279.623 23.251C279.651 23.3302 279.661 23.4147 279.653 23.4984V26.0814C279.661 26.1651 279.651 26.2497 279.623 26.3289C279.595 26.4082 279.549 26.4801 279.49 26.5396C279.43 26.5991 279.358 26.6446 279.279 26.6729C279.2 26.7011 279.115 26.7113 279.031 26.7029H273.319V29.6099H278.438C278.52 29.6035 278.603 29.6154 278.679 29.6448C278.756 29.6741 278.825 29.7201 278.882 29.7795C278.939 29.8389 278.982 29.9102 279.008 29.9882C279.033 30.0662 279.042 30.149 279.031 30.2305V32.713C279.041 32.7946 279.033 32.8774 279.007 32.9554C278.982 33.0335 278.939 33.1048 278.882 33.1643C278.825 33.2237 278.756 33.2698 278.679 33.2993C278.603 33.3287 278.52 33.3407 278.438 33.3345H273.319V36.44H279.152C279.236 36.4316 279.32 36.4418 279.399 36.47C279.479 36.4982 279.551 36.5436 279.61 36.603C279.669 36.6624 279.715 36.7343 279.743 36.8134C279.772 36.8926 279.782 36.977 279.774 37.0607V39.6444C279.782 39.7281 279.772 39.8125 279.743 39.8917C279.715 39.9708 279.669 40.0427 279.61 40.1021C279.551 40.1615 279.479 40.2069 279.399 40.2351C279.32 40.2633 279.236 40.2735 279.152 40.2651M272.128 17.2492C271.471 17.2576 270.819 17.1355 270.21 16.8899C269.601 16.6444 269.046 16.2803 268.579 15.8187C268.111 15.3572 267.74 14.8074 267.487 14.2013C267.234 13.5952 267.103 12.9448 267.103 12.2879C267.103 11.631 267.234 10.9806 267.487 10.3745C267.74 9.76835 268.111 9.21858 268.579 8.75704C269.046 8.2955 269.601 7.93139 270.21 7.68582C270.819 7.44026 271.471 7.31813 272.128 7.32652C273.447 7.33211 274.711 7.85495 275.649 8.78264C276.586 9.71033 277.122 10.9688 277.141 12.2875C277.125 13.6072 276.59 14.8676 275.652 15.7961C274.714 16.7246 273.448 17.2466 272.128 17.2492ZM272.128 7.9034C271.262 7.9058 270.415 8.16503 269.695 8.64834C268.976 9.13165 268.416 9.81737 268.086 10.6189C267.756 11.4203 267.671 12.3017 267.841 13.1515C268.012 14.0013 268.431 14.7814 269.045 15.3934C269.658 16.0054 270.44 16.4218 271.29 16.5899C272.14 16.758 273.021 16.6704 273.822 16.338C274.622 16.0056 275.306 15.4435 275.788 14.7225C276.269 14.0016 276.526 13.1542 276.525 12.2875C276.514 11.126 276.047 10.0154 275.224 9.19532C274.402 8.3752 273.29 7.91121 272.128 7.9034ZM267.606 37.0639V39.6477C267.615 39.7314 267.605 39.8162 267.577 39.8957C267.549 39.9752 267.504 40.0474 267.444 40.107C267.385 40.1666 267.313 40.212 267.233 40.2399C267.154 40.2679 267.069 40.2776 266.985 40.2683H258.291C258.207 40.2768 258.123 40.2665 258.043 40.2383C257.964 40.2102 257.892 40.1647 257.833 40.1053C257.773 40.0459 257.728 39.9741 257.7 39.8949C257.671 39.8158 257.661 39.7313 257.669 39.6477V23.4984C257.661 23.4147 257.671 23.3302 257.699 23.251C257.727 23.1717 257.773 23.0997 257.832 23.0402C257.892 22.9807 257.964 22.9352 258.043 22.907C258.122 22.8788 258.207 22.8685 258.291 22.877H261.024C261.107 22.8687 261.192 22.879 261.271 22.9073C261.35 22.9356 261.422 22.9811 261.481 23.0406C261.541 23.1001 261.586 23.172 261.614 23.2512C261.642 23.3304 261.653 23.4148 261.644 23.4984V36.44H266.985C267.069 36.4308 267.154 36.4405 267.233 36.4684C267.313 36.4963 267.385 36.5417 267.444 36.6013C267.504 36.6609 267.549 36.7331 267.577 36.8126C267.605 36.8921 267.615 36.9769 267.606 37.0607M255.26 7.491H255.875V17.1204H255.26V7.491ZM255.559 34.7953C255.578 35.5203 255.449 36.2415 255.179 36.9148C254.91 37.5882 254.506 38.1995 253.992 38.7113C253.478 39.2232 252.865 39.625 252.191 39.892C251.517 40.159 250.795 40.2856 250.07 40.2643H241.275C241.192 40.2727 241.107 40.2625 241.028 40.2343C240.949 40.2061 240.877 40.1607 240.817 40.1013C240.758 40.0419 240.712 39.97 240.684 39.8909C240.656 39.8117 240.646 39.7273 240.654 39.6436V23.4984C240.645 23.4147 240.656 23.3302 240.684 23.251C240.712 23.1717 240.758 23.0997 240.817 23.0402C240.877 22.9807 240.949 22.9352 241.028 22.907C241.107 22.8788 241.192 22.8685 241.275 22.877H247.982C251.038 22.877 253.323 24.9139 253.323 27.7205C253.317 28.4749 253.095 29.2118 252.683 29.8441C253.57 30.3282 254.307 31.0462 254.814 31.9201C255.321 32.7939 255.579 33.79 255.559 34.8002M247.982 26.6024H244.629V29.0865H248.855C249.014 28.9473 249.14 28.7753 249.226 28.5824C249.312 28.3895 249.355 28.1803 249.352 27.9692C249.363 27.787 249.335 27.6045 249.27 27.4337C249.205 27.263 249.105 27.108 248.976 26.9789C248.847 26.8498 248.692 26.7495 248.521 26.6848C248.35 26.62 248.168 26.5922 247.986 26.6032M249.6 32.5648H244.633V36.5348H249.575C249.845 36.5666 250.118 36.5372 250.375 36.449C250.632 36.3608 250.865 36.2159 251.059 36.0251C251.252 35.8343 251.4 35.6025 251.491 35.3468C251.583 35.0912 251.615 34.8182 251.587 34.5482C251.616 34.2801 251.585 34.0089 251.495 33.7546C251.405 33.5003 251.26 33.2693 251.069 33.0787C250.878 32.888 250.647 32.7426 250.393 32.6531C250.139 32.5636 249.868 32.5323 249.599 32.5615M241.902 17.1172H241.287V8.03141H238.787V7.491H244.399V8.02817H241.899L241.902 17.1172ZM223.764 40.2643H216.932C216.849 40.2735 216.764 40.2638 216.684 40.2359C216.605 40.208 216.533 40.1625 216.473 40.103C216.413 40.0434 216.368 39.9712 216.34 39.8917C216.312 39.8121 216.302 39.7274 216.312 39.6436V23.4984C216.303 23.4148 216.313 23.3304 216.342 23.2512C216.37 23.172 216.415 23.1001 216.475 23.0406C216.534 22.9811 216.606 22.9356 216.685 22.9073C216.764 22.879 216.849 22.8687 216.932 22.877H223.763C224.895 22.8728 226.015 23.0967 227.058 23.5352C228.101 23.9738 229.045 24.618 229.833 25.4295C230.622 26.2409 231.239 27.203 231.647 28.2581C232.055 29.3132 232.247 30.4398 232.21 31.5706C232.247 32.7014 232.055 33.828 231.647 34.8832C231.239 35.9383 230.622 36.9003 229.833 37.7118C229.045 38.5232 228.101 39.1675 227.058 39.606C226.015 40.0446 224.895 40.2684 223.763 40.2643M223.763 26.702H220.287V36.44H223.763C226.496 36.44 228.382 34.5522 228.382 31.5706C228.382 28.589 226.494 26.702 223.763 26.702ZM228.014 13.9411H223.76L222.464 17.1204H221.836L225.887 7.13369L229.926 17.1204H229.298L228.014 13.9411ZM225.888 8.69741L223.99 13.3634H227.772L225.888 8.69741ZM212.712 40.2643H210.848C210.696 40.2719 210.545 40.2393 210.41 40.1695C210.275 40.0998 210.161 39.9955 210.079 39.8672L204.141 30.5781V39.6444C204.151 39.7282 204.141 39.813 204.113 39.8925C204.085 39.972 204.04 40.0442 203.98 40.1038C203.921 40.1634 203.848 40.2088 203.769 40.2367C203.689 40.2646 203.605 40.2743 203.521 40.2651H200.788C200.704 40.2743 200.619 40.2646 200.54 40.2367C200.46 40.2088 200.388 40.1634 200.329 40.1038C200.269 40.0442 200.224 39.972 200.196 39.8925C200.168 39.813 200.158 39.7282 200.167 39.6444V23.4984C200.159 23.4148 200.169 23.3304 200.197 23.2512C200.225 23.172 200.271 23.1001 200.33 23.0406C200.39 22.9811 200.462 22.9356 200.541 22.9073C200.62 22.879 200.704 22.8687 200.788 22.877H202.651C202.803 22.8695 202.955 22.9022 203.09 22.9719C203.225 23.0417 203.339 23.1459 203.421 23.274L209.358 32.564V23.4984C209.349 23.4147 209.359 23.3302 209.388 23.251C209.416 23.1717 209.461 23.0997 209.521 23.0402C209.58 22.9807 209.652 22.9352 209.732 22.907C209.811 22.8788 209.895 22.8685 209.979 22.877H212.712C212.796 22.8687 212.88 22.879 212.959 22.9073C213.038 22.9356 213.11 22.9811 213.17 23.0406C213.229 23.1001 213.274 23.172 213.303 23.2512C213.331 23.3304 213.341 23.4148 213.333 23.4984V39.6436C213.342 39.7274 213.332 39.8121 213.304 39.8917C213.276 39.9712 213.231 40.0434 213.171 40.103C213.112 40.1625 213.039 40.208 212.96 40.2359C212.88 40.2638 212.796 40.2735 212.712 40.2643ZM210.377 7.491H210.992V17.1204H210.377V7.491ZM195.624 17.2484C194.304 17.2441 193.039 16.7241 192.097 15.7995C191.156 14.8749 190.613 13.6189 190.585 12.2996C190.611 10.9749 191.154 9.71299 192.099 8.784C193.044 7.855 194.315 7.33272 195.64 7.32895C196.829 7.33579 197.973 7.79188 198.84 8.60586V9.43147C198.437 8.96475 197.94 8.58784 197.382 8.32506C196.823 8.06228 196.216 7.91946 195.599 7.90583C194.432 7.93 193.32 8.40796 192.499 9.23834C191.678 10.0687 191.212 11.1862 191.201 12.3539C191.205 12.9135 191.322 13.4666 191.545 13.9799C191.767 14.4932 192.092 14.9563 192.498 15.3412C193.333 16.1517 194.437 16.6262 195.6 16.674C196.211 16.656 196.813 16.5163 197.369 16.2631C197.926 16.0099 198.426 15.6483 198.841 15.1994V16.0453C197.943 16.8122 196.804 17.2387 195.623 17.2501M193.192 23.4004L198.459 39.5707C198.608 40.0179 198.385 40.2659 197.938 40.2659H194.882C194.722 40.2807 194.563 40.2356 194.434 40.1394C194.305 40.0431 194.217 39.9025 194.186 39.7449L193.549 37.5338H187.432L186.778 39.7449C186.748 39.9024 186.66 40.0428 186.531 40.1391C186.403 40.2353 186.243 40.2805 186.083 40.2659H183.028C182.581 40.2659 182.358 40.0179 182.506 39.5707L187.773 23.4004C187.817 23.2376 187.918 23.0958 188.058 23.0003C188.197 22.9048 188.365 22.8617 188.533 22.8786H192.464C192.626 22.8682 192.787 22.9145 192.918 23.0098C193.05 23.105 193.144 23.2431 193.185 23.4004M190.477 27.2254L188.533 33.8076H192.422L190.477 27.2254ZM181.808 40.2699H178.673C178.516 40.2845 178.359 40.2577 178.216 40.1923C178.073 40.1269 177.949 40.0252 177.858 39.8972L173.63 34.5522H172.099V39.6444C172.107 39.7281 172.097 39.8125 172.069 39.8917C172.041 39.9709 171.995 40.0428 171.936 40.1023C171.877 40.1618 171.805 40.2073 171.726 40.2356C171.646 40.2639 171.562 40.2742 171.478 40.2659H168.745C168.662 40.2742 168.577 40.2639 168.498 40.2356C168.419 40.2073 168.347 40.1618 168.288 40.1023C168.228 40.0428 168.183 39.9709 168.155 39.8917C168.127 39.8125 168.116 39.7281 168.125 39.6444V23.4984C168.116 23.4148 168.127 23.3304 168.155 23.2512C168.183 23.172 168.228 23.1001 168.288 23.0406C168.347 22.9811 168.419 22.9356 168.498 22.9073C168.577 22.879 168.662 22.8687 168.745 22.877H174.832C175.616 22.8748 176.392 23.0274 177.116 23.3262C177.841 23.6249 178.499 24.0639 179.053 24.6179C179.608 25.1719 180.047 25.83 180.346 26.5543C180.645 27.2786 180.798 28.0549 180.797 28.8386C180.783 29.8704 180.49 30.8792 179.947 31.7571C179.405 32.6351 178.635 33.3492 177.718 33.823L182.184 39.4945C182.508 39.8916 182.333 40.2643 181.811 40.2643M174.831 26.6024H172.098V31.074H174.831C175.378 31.0088 175.882 30.7452 176.248 30.3332C176.614 29.9211 176.816 29.3892 176.816 28.8382C176.816 28.2871 176.614 27.7552 176.248 27.3432C175.882 26.9311 175.378 26.6675 174.831 26.6024ZM174.903 17.2484C174.246 17.2568 173.594 17.1347 172.985 16.8891C172.376 16.6436 171.821 16.2795 171.354 15.8179C170.886 15.3564 170.515 14.8066 170.262 14.2005C170.008 13.5944 169.878 12.944 169.878 12.2871C169.878 11.6301 170.008 10.9798 170.262 10.3737C170.515 9.76754 170.886 9.21777 171.354 8.75623C171.821 8.29469 172.376 7.93058 172.985 7.68501C173.594 7.43945 174.246 7.31732 174.903 7.32571C176.222 7.3313 177.486 7.85414 178.423 8.78183C179.361 9.70952 179.897 10.968 179.916 12.2867C179.9 13.6064 179.365 14.8668 178.427 15.7953C177.489 16.7238 176.223 17.2458 174.903 17.2484ZM174.903 7.90259C174.036 7.90515 173.19 8.16452 172.47 8.64792C171.751 9.13133 171.191 9.8171 170.861 10.6186C170.531 11.4201 170.446 12.3014 170.617 13.1511C170.788 14.0009 171.207 14.781 171.82 15.3929C172.434 16.0048 173.216 16.4211 174.066 16.5891C174.916 16.7572 175.797 16.6695 176.598 16.3371C177.398 16.0047 178.082 15.4426 178.563 14.7217C179.044 14.0007 179.301 13.1534 179.301 12.2867C179.29 11.125 178.823 10.0142 178 9.194C177.177 8.37381 176.065 7.90998 174.903 7.90259ZM164.896 40.2643H162.412C162.328 40.2727 162.244 40.2625 162.165 40.2343C162.086 40.2061 162.014 40.1607 161.954 40.1013C161.895 40.0419 161.849 39.97 161.821 39.8909C161.793 39.8117 161.782 39.7273 161.791 39.6436V38.2355C161.165 39.0284 160.357 39.6586 159.436 40.0725C158.515 40.4864 157.507 40.6717 156.499 40.6126C151.684 40.6126 147.964 36.7147 147.964 31.5706C147.933 30.3725 148.146 29.1805 148.591 28.0676C149.037 26.9548 149.704 25.9443 150.553 25.0981C151.401 24.2519 152.414 23.5876 153.528 23.146C154.642 22.7043 155.835 22.4945 157.033 22.5294C160.946 22.5294 164.3 24.9601 165.319 28.1434C165.468 28.5647 165.245 28.8386 164.797 28.8386H161.866C161.715 28.8441 161.566 28.8045 161.438 28.7249C161.309 28.6452 161.208 28.5291 161.146 28.3913C160.67 27.7549 160.047 27.2421 159.332 26.8964C158.616 26.5506 157.828 26.382 157.033 26.4047C156.347 26.3661 155.661 26.4738 155.02 26.7206C154.379 26.9674 153.798 27.3477 153.316 27.8363C152.833 28.3248 152.459 28.9104 152.22 29.5543C151.981 30.1981 151.882 30.8854 151.929 31.5706C151.929 34.9241 154.065 36.9853 157.033 36.9853C158.864 36.9853 160.731 36.2067 161.436 34.2306H157.693C157.609 34.2389 157.524 34.2286 157.445 34.2003C157.366 34.172 157.294 34.1265 157.235 34.067C157.175 34.0075 157.13 33.9356 157.102 33.8564C157.074 33.7772 157.063 33.6928 157.072 33.6091V31.3721C157.063 31.2885 157.074 31.204 157.102 31.1249C157.13 31.0457 157.175 30.9737 157.235 30.9143C157.294 30.8548 157.366 30.8093 157.445 30.781C157.524 30.7527 157.609 30.7423 157.693 30.7507H164.896C164.98 30.7422 165.064 30.7525 165.144 30.7807C165.223 30.8089 165.295 30.8544 165.354 30.9139C165.414 30.9734 165.459 31.0454 165.488 31.1246C165.516 31.2039 165.526 31.2884 165.518 31.3721V39.6436C165.526 39.7273 165.516 39.8117 165.487 39.8909C165.459 39.97 165.413 40.0419 165.354 40.1013C165.295 40.1607 165.223 40.2061 165.143 40.2343C165.064 40.2625 164.98 40.2727 164.896 40.2643ZM158.03 12.5143C158.378 12.7052 158.665 12.9895 158.86 13.3353C159.055 13.6811 159.149 14.0745 159.132 14.471C159.086 15.2356 158.745 15.9524 158.181 16.4701C157.616 16.9878 156.873 17.2657 156.107 17.2452C155.475 17.2398 154.861 17.0366 154.35 16.6641C153.84 16.2917 153.459 15.7687 153.261 15.1686L153.799 14.9255C153.952 15.4271 154.26 15.8667 154.68 16.1804C155.1 16.4941 155.61 16.6653 156.134 16.6691C156.746 16.6817 157.339 16.4532 157.785 16.0329C158.231 15.6126 158.494 15.034 158.518 14.4216C158.518 13.297 157.403 12.836 156.574 12.4252L154.83 11.5024C154.522 11.3323 154.265 11.0812 154.089 10.7762C153.913 10.4713 153.823 10.124 153.829 9.77176C153.818 9.44528 153.875 9.12 153.995 8.81644C154.116 8.51289 154.298 8.23765 154.531 8.00811C154.763 7.77857 155.041 7.5997 155.346 7.48281C155.651 7.36591 155.977 7.31353 156.303 7.32895C156.783 7.32681 157.255 7.45345 157.67 7.69569C158.085 7.93792 158.427 8.28691 158.662 8.70632L158.226 9.05877C158.035 8.70564 157.752 8.41144 157.406 8.20817C157.06 8.00489 156.665 7.90032 156.264 7.90583C156.023 7.90667 155.785 7.95516 155.562 8.04852C155.34 8.14187 155.139 8.27824 154.969 8.44978C154.8 8.62131 154.667 8.82464 154.576 9.04804C154.486 9.27144 154.44 9.51051 154.443 9.7515C154.443 10.7643 155.415 11.1872 156.187 11.5591L158.03 12.5143ZM141.312 12.5143C141.663 12.702 141.953 12.9858 142.148 13.3323C142.344 13.6788 142.436 14.0738 142.415 14.471C142.369 15.2357 142.028 15.9527 141.463 16.4704C140.899 16.9881 140.155 17.2659 139.389 17.2452C138.756 17.2455 138.139 17.0445 137.627 16.6713C137.116 16.298 136.736 15.7718 136.543 15.1686L137.082 14.9255C137.235 15.4269 137.543 15.8665 137.963 16.1802C138.383 16.4938 138.892 16.6652 139.416 16.6691C140.028 16.6819 140.622 16.4535 141.068 16.0332C141.514 15.6128 141.777 15.0341 141.801 14.4216C141.801 13.297 140.685 12.836 139.852 12.4252L138.108 11.5024C137.8 11.3322 137.544 11.0811 137.367 10.7761C137.191 10.4711 137.102 10.1239 137.108 9.77176C137.097 9.44496 137.153 9.11934 137.274 8.8155C137.395 8.51165 137.577 8.23621 137.81 8.00659C138.043 7.77697 138.321 7.59819 138.627 7.48154C138.932 7.3649 139.258 7.31294 139.585 7.32895C140.069 7.32002 140.547 7.44359 140.967 7.68633C141.386 7.92908 141.731 8.28177 141.965 8.70632L141.508 9.05877C141.326 8.69885 141.044 8.39886 140.696 8.19447C140.348 7.99009 139.949 7.8899 139.546 7.90583C139.305 7.90667 139.067 7.95517 138.845 8.04853C138.622 8.14189 138.421 8.27828 138.252 8.44983C138.083 8.62137 137.949 8.8247 137.859 9.0481C137.768 9.2715 137.723 9.51055 137.726 9.7515C137.726 10.7643 138.687 11.1872 139.469 11.5591L141.312 12.5143ZM140.127 23.4952V26.0782C140.135 26.1618 140.125 26.2463 140.097 26.3254C140.069 26.4046 140.023 26.4766 139.964 26.536C139.905 26.5955 139.833 26.641 139.754 26.6693C139.674 26.6976 139.59 26.708 139.506 26.6996H133.793V29.6099H138.885C138.969 29.6014 139.053 29.6117 139.132 29.6399C139.211 29.668 139.283 29.7135 139.343 29.7729C139.402 29.8323 139.448 29.9041 139.476 29.9833C139.504 30.0624 139.515 30.1469 139.506 30.2305V32.713C139.515 32.7967 139.505 32.8813 139.476 32.9605C139.448 33.0398 139.403 33.1118 139.343 33.1712C139.284 33.2307 139.212 33.2762 139.132 33.3045C139.053 33.3327 138.969 33.343 138.885 33.3345H133.793V36.44H139.672C139.753 36.4351 139.834 36.4481 139.909 36.4781C139.985 36.5081 140.052 36.5544 140.108 36.6137C140.163 36.673 140.205 36.7438 140.23 36.8211C140.255 36.8984 140.262 36.9802 140.252 37.0607V39.6444C140.262 39.7249 140.255 39.8067 140.23 39.884C140.205 39.9613 140.163 40.0321 140.108 40.0914C140.052 40.1507 139.985 40.197 139.909 40.227C139.834 40.257 139.753 40.27 139.672 40.2651H130.443C130.36 40.2735 130.275 40.2633 130.196 40.2351C130.117 40.2069 130.045 40.1615 129.985 40.1021C129.926 40.0427 129.88 39.9708 129.852 39.8917C129.824 39.8125 129.814 39.7281 129.822 39.6444V23.4984C129.813 23.4147 129.824 23.3302 129.852 23.251C129.88 23.1717 129.926 23.0997 129.985 23.0402C130.045 22.9807 130.117 22.9352 130.196 22.907C130.275 22.8788 130.36 22.8685 130.443 22.877H139.51C139.594 22.8687 139.679 22.879 139.758 22.9073C139.837 22.9356 139.909 22.9811 139.968 23.0406C140.027 23.1001 140.073 23.172 140.101 23.2512C140.129 23.3304 140.14 23.4148 140.131 23.4984M127.463 40.2643H118.769C118.685 40.2735 118.6 40.2638 118.521 40.2359C118.441 40.208 118.369 40.1625 118.31 40.103C118.25 40.0434 118.205 39.9712 118.177 39.8917C118.149 39.8121 118.139 39.7274 118.148 39.6436V23.4984C118.14 23.4148 118.15 23.3304 118.178 23.2512C118.206 23.172 118.252 23.1001 118.311 23.0406C118.371 22.9811 118.442 22.9356 118.522 22.9073C118.601 22.879 118.685 22.8687 118.769 22.877H121.502C121.585 22.8685 121.67 22.8788 121.749 22.907C121.828 22.9352 121.9 22.9807 121.96 23.0402C122.019 23.0997 122.065 23.1717 122.093 23.251C122.121 23.3302 122.132 23.4147 122.123 23.4984V36.44H127.463C127.547 36.4316 127.631 36.4418 127.711 36.47C127.79 36.4982 127.862 36.5436 127.921 36.603C127.981 36.6624 128.026 36.7343 128.054 36.8134C128.083 36.8926 128.093 36.977 128.085 37.0607V39.6444C128.093 39.7281 128.083 39.8125 128.054 39.8917C128.026 39.9708 127.981 40.0427 127.921 40.1021C127.862 40.1615 127.79 40.2069 127.711 40.2351C127.631 40.2633 127.547 40.2735 127.463 40.2651M124.265 13.9419H120.022L118.726 17.1212H118.098L122.149 7.1345L126.188 17.1204H125.56L124.265 13.9419ZM122.15 8.69822L120.252 13.3643H124.034L122.15 8.69822Z" fill="#3A3A1F"/>
<path fill-rule="evenodd" clip-rule="evenodd" d="M288.673 8.59856V16.9316H288.193V7.11182L294.52 15.6742V7.23983H294.999V17.2266L288.673 8.59856ZM290.706 34.5522V23.4984C290.697 23.4147 290.708 23.3302 290.736 23.251C290.764 23.1717 290.81 23.0997 290.869 23.0402C290.929 22.9807 291.001 22.9352 291.08 22.907C291.159 22.8788 291.244 22.8685 291.327 22.877H294.059C294.143 22.8685 294.228 22.8788 294.307 22.907C294.386 22.9352 294.458 22.9807 294.518 23.0402C294.577 23.0997 294.623 23.1717 294.651 23.251C294.679 23.3302 294.689 23.4147 294.681 23.4984V34.899C294.681 38.626 291.8 40.6126 288.229 40.6126C284.645 40.6126 281.763 38.6252 281.763 34.899V23.4984C281.755 23.4148 281.765 23.3304 281.793 23.2512C281.822 23.172 281.867 23.1001 281.926 23.0406C281.986 22.9811 282.058 22.9356 282.137 22.9073C282.216 22.879 282.3 22.8687 282.384 22.877H285.117C285.201 22.8685 285.285 22.8788 285.364 22.907C285.444 22.9352 285.516 22.9807 285.575 23.0402C285.635 23.0997 285.68 23.1717 285.708 23.251C285.737 23.3302 285.747 23.4147 285.738 23.4984V34.5522C285.738 35.8688 286.359 36.7495 288.229 36.7495C290.085 36.7495 290.706 35.8688 290.706 34.5522ZM279.157 40.2643H269.964C269.881 40.2735 269.796 40.2638 269.716 40.2359C269.637 40.208 269.565 40.1625 269.505 40.103C269.445 40.0434 269.4 39.9712 269.372 39.8917C269.344 39.8121 269.334 39.7274 269.344 39.6436V23.4984C269.335 23.4148 269.345 23.3304 269.374 23.2512C269.402 23.172 269.447 23.1001 269.507 23.0406C269.566 22.9811 269.638 22.9356 269.717 22.9073C269.796 22.879 269.881 22.8687 269.964 22.877H279.031C279.115 22.8685 279.2 22.8788 279.279 22.907C279.358 22.9352 279.43 22.9807 279.49 23.0402C279.549 23.0997 279.595 23.1717 279.623 23.251C279.651 23.3302 279.661 23.4147 279.653 23.4984V26.0814C279.661 26.1651 279.651 26.2497 279.623 26.3289C279.595 26.4082 279.549 26.4801 279.49 26.5396C279.43 26.5991 279.358 26.6446 279.279 26.6729C279.2 26.7011 279.115 26.7113 279.031 26.7029H273.319V29.6099H278.438C278.52 29.6035 278.603 29.6154 278.679 29.6448C278.756 29.6741 278.825 29.7201 278.882 29.7795C278.939 29.8389 278.982 29.9102 279.008 29.9882C279.033 30.0662 279.042 30.149 279.031 30.2305V32.713C279.041 32.7946 279.033 32.8774 279.007 32.9554C278.982 33.0335 278.939 33.1048 278.882 33.1643C278.825 33.2237 278.756 33.2698 278.679 33.2993C278.603 33.3287 278.52 33.3407 278.438 33.3345H273.319V36.44H279.152C279.236 36.4316 279.32 36.4418 279.399 36.47C279.479 36.4982 279.551 36.5436 279.61 36.603C279.669 36.6624 279.715 36.7343 279.743 36.8134C279.772 36.8926 279.782 36.977 279.774 37.0607V39.6444C279.782 39.7281 279.772 39.8125 279.743 39.8917C279.715 39.9708 279.669 40.0427 279.61 40.1021C279.551 40.1615 279.479 40.2069 279.399 40.2351C279.32 40.2633 279.236 40.2735 279.152 40.2651M272.128 17.2492C271.471 17.2576 270.819 17.1355 270.21 16.8899C269.601 16.6444 269.046 16.2803 268.579 15.8187C268.111 15.3572 267.74 14.8074 267.487 14.2013C267.234 13.5952 267.103 12.9448 267.103 12.2879C267.103 11.631 267.234 10.9806 267.487 10.3745C267.74 9.76835 268.111 9.21858 268.579 8.75704C269.046 8.2955 269.601 7.93139 270.21 7.68582C270.819 7.44026 271.471 7.31813 272.128 7.32652C273.447 7.33211 274.711 7.85495 275.649 8.78264C276.586 9.71033 277.122 10.9688 277.141 12.2875C277.125 13.6072 276.59 14.8676 275.652 15.7961C274.714 16.7246 273.448 17.2466 272.128 17.2492ZM272.128 7.9034C271.262 7.9058 270.415 8.16503 269.695 8.64834C268.976 9.13165 268.416 9.81737 268.086 10.6189C267.756 11.4203 267.671 12.3017 267.841 13.1515C268.012 14.0013 268.431 14.7814 269.045 15.3934C269.658 16.0054 270.44 16.4218 271.29 16.5899C272.14 16.758 273.021 16.6704 273.822 16.338C274.622 16.0056 275.306 15.4435 275.788 14.7225C276.269 14.0016 276.526 13.1542 276.525 12.2875C276.514 11.126 276.047 10.0154 275.224 9.19532C274.402 8.3752 273.29 7.91121 272.128 7.9034ZM267.606 37.0639V39.6477C267.615 39.7314 267.605 39.8162 267.577 39.8957C267.549 39.9752 267.504 40.0474 267.444 40.107C267.385 40.1666 267.313 40.212 267.233 40.2399C267.154 40.2679 267.069 40.2776 266.985 40.2683H258.291C258.207 40.2768 258.123 40.2665 258.043 40.2383C257.964 40.2102 257.892 40.1647 257.833 40.1053C257.773 40.0459 257.728 39.9741 257.7 39.8949C257.671 39.8158 257.661 39.7313 257.669 39.6477V23.4984C257.661 23.4147 257.671 23.3302 257.699 23.251C257.727 23.1717 257.773 23.0997 257.832 23.0402C257.892 22.9807 257.964 22.9352 258.043 22.907C258.122 22.8788 258.207 22.8685 258.291 22.877H261.024C261.107 22.8687 261.192 22.879 261.271 22.9073C261.35 22.9356 261.422 22.9811 261.481 23.0406C261.541 23.1001 261.586 23.172 261.614 23.2512C261.642 23.3304 261.653 23.4148 261.644 23.4984V36.44H266.985C267.069 36.4308 267.154 36.4405 267.233 36.4684C267.313 36.4963 267.385 36.5417 267.444 36.6013C267.504 36.6609 267.549 36.7331 267.577 36.8126C267.605 36.8921 267.615 36.9769 267.606 37.0607M255.26 7.491H255.875V17.1204H255.26V7.491ZM255.559 34.7953C255.578 35.5203 255.449 36.2415 255.179 36.9148C254.91 37.5882 254.506 38.1995 253.992 38.7113C253.478 39.2232 252.865 39.625 252.191 39.892C251.517 40.159 250.795 40.2856 250.07 40.2643H241.275C241.192 40.2727 241.107 40.2625 241.028 40.2343C240.949 40.2061 240.877 40.1607 240.817 40.1013C240.758 40.0419 240.712 39.97 240.684 39.8909C240.656 39.8117 240.646 39.7273 240.654 39.6436V23.4984C240.645 23.4147 240.656 23.3302 240.684 23.251C240.712 23.1717 240.758 23.0997 240.817 23.0402C240.877 22.9807 240.949 22.9352 241.028 22.907C241.107 22.8788 241.192 22.8685 241.275 22.877H247.982C251.038 22.877 253.323 24.9139 253.323 27.7205C253.317 28.4749 253.095 29.2118 252.683 29.8441C253.57 30.3282 254.307 31.0462 254.814 31.9201C255.321 32.7939 255.579 33.79 255.559 34.8002M247.982 26.6024H244.629V29.0865H248.855C249.014 28.9473 249.14 28.7753 249.226 28.5824C249.312 28.3895 249.355 28.1803 249.352 27.9692C249.363 27.787 249.335 27.6045 249.27 27.4337C249.205 27.263 249.105 27.108 248.976 26.9789C248.847 26.8498 248.692 26.7495 248.521 26.6848C248.35 26.62 248.168 26.5922 247.986 26.6032M249.6 32.5648H244.633V36.5348H249.575C249.845 36.5666 250.118 36.5372 250.375 36.449C250.632 36.3608 250.865 36.2159 251.059 36.0251C251.252 35.8343 251.4 35.6025 251.491 35.3468C251.583 35.0912 251.615 34.8182 251.587 34.5482C251.616 34.2801 251.585 34.0089 251.495 33.7546C251.405 33.5003 251.26 33.2693 251.069 33.0787C250.878 32.888 250.647 32.7426 250.393 32.6531C250.139 32.5636 249.868 32.5323 249.599 32.5615M241.902 17.1172H241.287V8.03141H238.787V7.491H244.399V8.02817H241.899L241.902 17.1172ZM223.764 40.2643H216.932C216.849 40.2735 216.764 40.2638 216.684 40.2359C216.605 40.208 216.533 40.1625 216.473 40.103C216.413 40.0434 216.368 39.9712 216.34 39.8917C216.312 39.8121 216.302 39.7274 216.312 39.6436V23.4984C216.303 23.4148 216.313 23.3304 216.342 23.2512C216.37 23.172 216.415 23.1001 216.475 23.0406C216.534 22.9811 216.606 22.9356 216.685 22.9073C216.764 22.879 216.849 22.8687 216.932 22.877H223.763C224.895 22.8728 226.015 23.0967 227.058 23.5352C228.101 23.9738 229.045 24.618 229.833 25.4295C230.622 26.2409 231.239 27.203 231.647 28.2581C232.055 29.3132 232.247 30.4398 232.21 31.5706C232.247 32.7014 232.055 33.828 231.647 34.8832C231.239 35.9383 230.622 36.9003 229.833 37.7118C229.045 38.5232 228.101 39.1675 227.058 39.606C226.015 40.0446 224.895 40.2684 223.763 40.2643M223.763 26.702H220.287V36.44H223.763C226.496 36.44 228.382 34.5522 228.382 31.5706C228.382 28.589 226.494 26.702 223.763 26.702ZM228.014 13.9411H223.76L222.464 17.1204H221.836L225.887 7.13369L229.926 17.1204H229.298L228.014 13.9411ZM225.888 8.69741L223.99 13.3634H227.772L225.888 8.69741ZM212.712 40.2643H210.848C210.696 40.2719 210.545 40.2393 210.41 40.1695C210.275 40.0998 210.161 39.9955 210.079 39.8672L204.141 30.5781V39.6444C204.151 39.7282 204.141 39.813 204.113 39.8925C204.085 39.972 204.04 40.0442 203.98 40.1038C203.921 40.1634 203.848 40.2088 203.769 40.2367C203.689 40.2646 203.605 40.2743 203.521 40.2651H200.788C200.704 40.2743 200.619 40.2646 200.54 40.2367C200.46 40.2088 200.388 40.1634 200.329 40.1038C200.269 40.0442 200.224 39.972 200.196 39.8925C200.168 39.813 200.158 39.7282 200.167 39.6444V23.4984C200.159 23.4148 200.169 23.3304 200.197 23.2512C200.225 23.172 200.271 23.1001 200.33 23.0406C200.39 22.9811 200.462 22.9356 200.541 22.9073C200.62 22.879 200.704 22.8687 200.788 22.877H202.651C202.803 22.8695 202.955 22.9022 203.09 22.9719C203.225 23.0417 203.339 23.1459 203.421 23.274L209.358 32.564V23.4984C209.349 23.4147 209.359 23.3302 209.388 23.251C209.416 23.1717 209.461 23.0997 209.521 23.0402C209.58 22.9807 209.652 22.9352 209.732 22.907C209.811 22.8788 209.895 22.8685 209.979 22.877H212.712C212.796 22.8687 212.88 22.879 212.959 22.9073C213.038 22.9356 213.11 22.9811 213.17 23.0406C213.229 23.1001 213.274 23.172 213.303 23.2512C213.331 23.3304 213.341 23.4148 213.333 23.4984V39.6436C213.342 39.7274 213.332 39.8121 213.304 39.8917C213.276 39.9712 213.231 40.0434 213.171 40.103C213.112 40.1625 213.039 40.208 212.96 40.2359C212.88 40.2638 212.796 40.2735 212.712 40.2643ZM210.377 7.491H210.992V17.1204H210.377V7.491ZM195.624 17.2484C194.304 17.2441 193.039 16.7241 192.097 15.7995C191.156 14.8749 190.613 13.6189 190.585 12.2996C190.611 10.9749 191.154 9.71299 192.099 8.784C193.044 7.855 194.315 7.33272 195.64 7.32895C196.829 7.33579 197.973 7.79188 198.84 8.60586V9.43147C198.437 8.96475 197.94 8.58784 197.382 8.32506C196.823 8.06228 196.216 7.91946 195.599 7.90583C194.432 7.93 193.32 8.40796 192.499 9.23834C191.678 10.0687 191.212 11.1862 191.201 12.3539C191.205 12.9135 191.322 13.4666 191.545 13.9799C191.767 14.4932 192.092 14.9563 192.498 15.3412C193.333 16.1517 194.437 16.6262 195.6 16.674C196.211 16.656 196.813 16.5163 197.369 16.2631C197.926 16.0099 198.426 15.6483 198.841 15.1994V16.0453C197.943 16.8122 196.804 17.2387 195.623 17.2501M193.192 23.4004L198.459 39.5707C198.608 40.0179 198.385 40.2659 197.938 40.2659H194.882C194.722 40.2807 194.563 40.2356 194.434 40.1394C194.305 40.0431 194.217 39.9025 194.186 39.7449L193.549 37.5338H187.432L186.778 39.7449C186.748 39.9024 186.66 40.0428 186.531 40.1391C186.403 40.2353 186.243 40.2805 186.083 40.2659H183.028C182.581 40.2659 182.358 40.0179 182.506 39.5707L187.773 23.4004C187.817 23.2376 187.918 23.0958 188.058 23.0003C188.197 22.9048 188.365 22.8617 188.533 22.8786H192.464C192.626 22.8682 192.787 22.9145 192.918 23.0098C193.05 23.105 193.144 23.2431 193.185 23.4004M190.477 27.2254L188.533 33.8076H192.422L190.477 27.2254ZM181.808 40.2699H178.673C178.516 40.2845 178.359 40.2577 178.216 40.1923C178.073 40.1269 177.949 40.0252 177.858 39.8972L173.63 34.5522H172.099V39.6444C172.107 39.7281 172.097 39.8125 172.069 39.8917C172.041 39.9709 171.995 40.0428 171.936 40.1023C171.877 40.1618 171.805 40.2073 171.726 40.2356C171.646 40.2639 171.562 40.2742 171.478 40.2659H168.745C168.662 40.2742 168.577 40.2639 168.498 40.2356C168.419 40.2073 168.347 40.1618 168.288 40.1023C168.228 40.0428 168.183 39.9709 168.155 39.8917C168.127 39.8125 168.116 39.7281 168.125 39.6444V23.4984C168.116 23.4148 168.127 23.3304 168.155 23.2512C168.183 23.172 168.228 23.1001 168.288 23.0406C168.347 22.9811 168.419 22.9356 168.498 22.9073C168.577 22.879 168.662 22.8687 168.745 22.877H174.832C175.616 22.8748 176.392 23.0274 177.116 23.3262C177.841 23.6249 178.499 24.0639 179.053 24.6179C179.608 25.1719 180.047 25.83 180.346 26.5543C180.645 27.2786 180.798 28.0549 180.797 28.8386C180.783 29.8704 180.49 30.8792 179.947 31.7571C179.405 32.6351 178.635 33.3492 177.718 33.823L182.184 39.4945C182.508 39.8916 182.333 40.2643 181.811 40.2643M174.831 26.6024H172.098V31.074H174.831C175.378 31.0088 175.882 30.7452 176.248 30.3332C176.614 29.9211 176.816 29.3892 176.816 28.8382C176.816 28.2871 176.614 27.7552 176.248 27.3432C175.882 26.9311 175.378 26.6675 174.831 26.6024ZM174.903 17.2484C174.246 17.2568 173.594 17.1347 172.985 16.8891C172.376 16.6436 171.821 16.2795 171.354 15.8179C170.886 15.3564 170.515 14.8066 170.262 14.2005C170.008 13.5944 169.878 12.944 169.878 12.2871C169.878 11.6301 170.008 10.9798 170.262 10.3737C170.515 9.76754 170.886 9.21777 171.354 8.75623C171.821 8.29469 172.376 7.93058 172.985 7.68501C173.594 7.43945 174.246 7.31732 174.903 7.32571C176.222 7.3313 177.486 7.85414 178.423 8.78183C179.361 9.70952 179.897 10.968 179.916 12.2867C179.9 13.6064 179.365 14.8668 178.427 15.7953C177.489 16.7238 176.223 17.2458 174.903 17.2484ZM174.903 7.90259C174.036 7.90515 173.19 8.16452 172.47 8.64792C171.751 9.13133 171.191 9.8171 170.861 10.6186C170.531 11.4201 170.446 12.3014 170.617 13.1511C170.788 14.0009 171.207 14.781 171.82 15.3929C172.434 16.0048 173.216 16.4211 174.066 16.5891C174.916 16.7572 175.797 16.6695 176.598 16.3371C177.398 16.0047 178.082 15.4426 178.563 14.7217C179.044 14.0007 179.301 13.1534 179.301 12.2867C179.29 11.125 178.823 10.0142 178 9.194C177.177 8.37381 176.065 7.90998 174.903 7.90259ZM164.896 40.2643H162.412C162.328 40.2727 162.244 40.2625 162.165 40.2343C162.086 40.2061 162.014 40.1607 161.954 40.1013C161.895 40.0419 161.849 39.97 161.821 39.8909C161.793 39.8117 161.782 39.7273 161.791 39.6436V38.2355C161.165 39.0284 160.357 39.6586 159.436 40.0725C158.515 40.4864 157.507 40.6717 156.499 40.6126C151.684 40.6126 147.964 36.7147 147.964 31.5706C147.933 30.3725 148.146 29.1805 148.591 28.0676C149.037 26.9548 149.704 25.9443 150.553 25.0981C151.401 24.2519 152.414 23.5876 153.528 23.146C154.642 22.7043 155.835 22.4945 157.033 22.5294C160.946 22.5294 164.3 24.9601 165.319 28.1434C165.468 28.5647 165.245 28.8386 164.797 28.8386H161.866C161.715 28.8441 161.566 28.8045 161.438 28.7249C161.309 28.6452 161.208 28.5291 161.146 28.3913C160.67 27.7549 160.047 27.2421 159.332 26.8964C158.616 26.5506 157.828 26.382 157.033 26.4047C156.347 26.3661 155.661 26.4738 155.02 26.7206C154.379 26.9674 153.798 27.3477 153.316 27.8363C152.833 28.3248 152.459 28.9104 152.22 29.5543C151.981 30.1981 151.882 30.8854 151.929 31.5706C151.929 34.9241 154.065 36.9853 157.033 36.9853C158.864 36.9853 160.731 36.2067 161.436 34.2306H157.693C157.609 34.2389 157.524 34.2286 157.445 34.2003C157.366 34.172 157.294 34.1265 157.235 34.067C157.175 34.0075 157.13 33.9356 157.102 33.8564C157.074 33.7772 157.063 33.6928 157.072 33.6091V31.3721C157.063 31.2885 157.074 31.204 157.102 31.1249C157.13 31.0457 157.175 30.9737 157.235 30.9143C157.294 30.8548 157.366 30.8093 157.445 30.781C157.524 30.7527 157.609 30.7423 157.693 30.7507H164.896C164.98 30.7422 165.064 30.7525 165.144 30.7807C165.223 30.8089 165.295 30.8544 165.354 30.9139C165.414 30.9734 165.459 31.0454 165.488 31.1246C165.516 31.2039 165.526 31.2884 165.518 31.3721V39.6436C165.526 39.7273 165.516 39.8117 165.487 39.8909C165.459 39.97 165.413 40.0419 165.354 40.1013C165.295 40.1607 165.223 40.2061 165.143 40.2343C165.064 40.2625 164.98 40.2727 164.896 40.2643ZM158.03 12.5143C158.378 12.7052 158.665 12.9895 158.86 13.3353C159.055 13.6811 159.149 14.0745 159.132 14.471C159.086 15.2356 158.745 15.9524 158.181 16.4701C157.616 16.9878 156.873 17.2657 156.107 17.2452C155.475 17.2398 154.861 17.0366 154.35 16.6641C153.84 16.2917 153.459 15.7687 153.261 15.1686L153.799 14.9255C153.952 15.4271 154.26 15.8667 154.68 16.1804C155.1 16.4941 155.61 16.6653 156.134 16.6691C156.746 16.6817 157.339 16.4532 157.785 16.0329C158.231 15.6126 158.494 15.034 158.518 14.4216C158.518 13.297 157.403 12.836 156.574 12.4252L154.83 11.5024C154.522 11.3323 154.265 11.0812 154.089 10.7762C153.913 10.4713 153.823 10.124 153.829 9.77176C153.818 9.44528 153.875 9.12 153.995 8.81644C154.116 8.51289 154.298 8.23765 154.531 8.00811C154.763 7.77857 155.041 7.5997 155.346 7.48281C155.651 7.36591 155.977 7.31353 156.303 7.32895C156.783 7.32681 157.255 7.45345 157.67 7.69569C158.085 7.93792 158.427 8.28691 158.662 8.70632L158.226 9.05877C158.035 8.70564 157.752 8.41144 157.406 8.20817C157.06 8.00489 156.665 7.90032 156.264 7.90583C156.023 7.90667 155.785 7.95516 155.562 8.04852C155.34 8.14187 155.139 8.27824 154.969 8.44978C154.8 8.62131 154.667 8.82464 154.576 9.04804C154.486 9.27144 154.44 9.51051 154.443 9.7515C154.443 10.7643 155.415 11.1872 156.187 11.5591L158.03 12.5143ZM141.312 12.5143C141.663 12.702 141.953 12.9858 142.148 13.3323C142.344 13.6788 142.436 14.0738 142.415 14.471C142.369 15.2357 142.028 15.9527 141.463 16.4704C140.899 16.9881 140.155 17.2659 139.389 17.2452C138.756 17.2455 138.139 17.0445 137.627 16.6713C137.116 16.298 136.736 15.7718 136.543 15.1686L137.082 14.9255C137.235 15.4269 137.543 15.8665 137.963 16.1802C138.383 16.4938 138.892 16.6652 139.416 16.6691C140.028 16.6819 140.622 16.4535 141.068 16.0332C141.514 15.6128 141.777 15.0341 141.801 14.4216C141.801 13.297 140.685 12.836 139.852 12.4252L138.108 11.5024C137.8 11.3322 137.544 11.0811 137.367 10.7761C137.191 10.4711 137.102 10.1239 137.108 9.77176C137.097 9.44496 137.153 9.11934 137.274 8.8155C137.395 8.51165 137.577 8.23621 137.81 8.00659C138.043 7.77697 138.321 7.59819 138.627 7.48154C138.932 7.3649 139.258 7.31294 139.585 7.32895C140.069 7.32002 140.547 7.44359 140.967 7.68633C141.386 7.92908 141.731 8.28177 141.965 8.70632L141.508 9.05877C141.326 8.69885 141.044 8.39886 140.696 8.19447C140.348 7.99009 139.949 7.8899 139.546 7.90583C139.305 7.90667 139.067 7.95517 138.845 8.04853C138.622 8.14189 138.421 8.27828 138.252 8.44983C138.083 8.62137 137.949 8.8247 137.859 9.0481C137.768 9.2715 137.723 9.51055 137.726 9.7515C137.726 10.7643 138.687 11.1872 139.469 11.5591L141.312 12.5143ZM140.127 23.4952V26.0782C140.135 26.1618 140.125 26.2463 140.097 26.3254C140.069 26.4046 140.023 26.4766 139.964 26.536C139.905 26.5955 139.833 26.641 139.754 26.6693C139.674 26.6976 139.59 26.708 139.506 26.6996H133.793V29.6099H138.885C138.969 29.6014 139.053 29.6117 139.132 29.6399C139.211 29.668 139.283 29.7135 139.343 29.7729C139.402 29.8323 139.448 29.9041 139.476 29.9833C139.504 30.0624 139.515 30.1469 139.506 30.2305V32.713C139.515 32.7967 139.505 32.8813 139.476 32.9605C139.448 33.0398 139.403 33.1118 139.343 33.1712C139.284 33.2307 139.212 33.2762 139.132 33.3045C139.053 33.3327 138.969 33.343 138.885 33.3345H133.793V36.44H139.672C139.753 36.4351 139.834 36.4481 139.909 36.4781C139.985 36.5081 140.052 36.5544 140.108 36.6137C140.163 36.673 140.205 36.7438 140.23 36.8211C140.255 36.8984 140.262 36.9802 140.252 37.0607V39.6444C140.262 39.7249 140.255 39.8067 140.23 39.884C140.205 39.9613 140.163 40.0321 140.108 40.0914C140.052 40.1507 139.985 40.197 139.909 40.227C139.834 40.257 139.753 40.27 139.672 40.2651H130.443C130.36 40.2735 130.275 40.2633 130.196 40.2351C130.117 40.2069 130.045 40.1615 129.985 40.1021C129.926 40.0427 129.88 39.9708 129.852 39.8917C129.824 39.8125 129.814 39.7281 129.822 39.6444V23.4984C129.813 23.4147 129.824 23.3302 129.852 23.251C129.88 23.1717 129.926 23.0997 129.985 23.0402C130.045 22.9807 130.117 22.9352 130.196 22.907C130.275 22.8788 130.36 22.8685 130.443 22.877H139.51C139.594 22.8687 139.679 22.879 139.758 22.9073C139.837 22.9356 139.909 22.9811 139.968 23.0406C140.027 23.1001 140.073 23.172 140.101 23.2512C140.129 23.3304 140.14 23.4148 140.131 23.4984M127.463 40.2643H118.769C118.685 40.2735 118.6 40.2638 118.521 40.2359C118.441 40.208 118.369 40.1625 118.31 40.103C118.25 40.0434 118.205 39.9712 118.177 39.8917C118.149 39.8121 118.139 39.7274 118.148 39.6436V23.4984C118.14 23.4148 118.15 23.3304 118.178 23.2512C118.206 23.172 118.252 23.1001 118.311 23.0406C118.371 22.9811 118.442 22.9356 118.522 22.9073C118.601 22.879 118.685 22.8687 118.769 22.877H121.502C121.585 22.8685 121.67 22.8788 121.749 22.907C121.828 22.9352 121.9 22.9807 121.96 23.0402C122.019 23.0997 122.065 23.1717 122.093 23.251C122.121 23.3302 122.132 23.4147 122.123 23.4984V36.44H127.463C127.547 36.4316 127.631 36.4418 127.711 36.47C127.79 36.4982 127.862 36.5436 127.921 36.603C127.981 36.6624 128.026 36.7343 128.054 36.8134C128.083 36.8926 128.093 36.977 128.085 37.0607V39.6444C128.093 39.7281 128.083 39.8125 128.054 39.8917C128.026 39.9708 127.981 40.0427 127.921 40.1021C127.862 40.1615 127.79 40.2069 127.711 40.2351C127.631 40.2633 127.547 40.2735 127.463 40.2651M124.265 13.9419H120.022L118.726 17.1212H118.098L122.149 7.1345L126.188 17.1204H125.56L124.265 13.9419ZM122.15 8.69822L120.252 13.3643H124.034L122.15 8.69822Z" fill="black" fill-opacity="0.2"/>
</g>
</g>
<defs>
<clipPath id="clip0_335_17436">
<rect width="295" height="42" fill="white"/>
</clipPath>
</defs>
</svg>
