<svg width="179" height="247" viewBox="0 0 179 247" fill="none" xmlns="http://www.w3.org/2000/svg">
<path d="M2.2334 172.411V130.455C2.2334 124.824 4.017 120.383 7.50839 117.211C10.9989 113.959 15.4986 112.373 21.0062 112.373C26.5138 112.373 31.0131 114.276 34.6591 118.083C38.3047 121.89 40.1667 126.728 40.1667 132.518C40.1667 138.307 38.3047 143.066 34.5811 146.952C30.9355 150.759 26.3583 152.662 21.0062 152.662C19.8424 152.662 18.446 152.504 16.817 152.107C15.1885 151.71 14.1022 151.314 13.5591 150.838L11.9301 142.193H11.1544L3.03426 172.62M13.8087 132.575C13.8087 134.97 14.4221 136.853 15.7056 138.279C16.9887 139.705 18.774 140.39 21.0062 140.39C23.2375 140.39 24.9675 139.705 26.2505 138.279C27.5336 136.853 28.2028 134.971 28.2028 132.575C28.2028 130.179 27.5336 128.24 26.2505 126.814C24.9675 125.388 23.1821 124.646 21.0062 124.646C18.8303 124.646 17.045 125.388 15.7619 126.814C14.4784 128.24 13.8087 130.179 13.8087 132.575Z" fill="#1E1E28"/>
<path d="M2.2334 172.411V130.455C2.2334 124.824 4.017 120.383 7.50839 117.211C10.9989 113.959 15.4986 112.373 21.0062 112.373C26.5138 112.373 31.0131 114.276 34.6591 118.083C38.3047 121.89 40.1667 126.728 40.1667 132.518C40.1667 138.307 38.3047 143.066 34.5811 146.952C30.9355 150.759 26.3583 152.662 21.0062 152.662C19.8424 152.662 18.446 152.504 16.817 152.107C15.1885 151.71 14.1022 151.314 13.5591 150.838L11.9301 142.193H11.1544L3.03426 172.62M13.8087 132.575C13.8087 134.97 14.4221 136.853 15.7056 138.279C16.9887 139.705 18.774 140.39 21.0062 140.39C23.2375 140.39 24.9675 139.705 26.2505 138.279C27.5336 136.853 28.2028 134.971 28.2028 132.575C28.2028 130.179 27.5336 128.24 26.2505 126.814C24.9675 125.388 23.1821 124.646 21.0062 124.646C18.8303 124.646 17.045 125.388 15.7619 126.814C14.4784 128.24 13.8087 130.179 13.8087 132.575Z" fill="black" fill-opacity="0.2"/>
<path d="M50.7251 100.549C52.9844 98.4628 56.3742 98.4628 58.5529 100.549C60.8126 102.56 60.8126 105.688 58.5529 107.774C56.3738 109.785 52.9844 109.785 50.7251 107.774C48.5461 105.688 48.5461 102.56 50.7251 100.549ZM49.9992 113.211H59.2797V150.306H49.9992V113.211Z" fill="#1E1E28"/>
<path d="M50.7251 100.549C52.9844 98.4628 56.3742 98.4628 58.5529 100.549C60.8126 102.56 60.8126 105.688 58.5529 107.774C56.3738 109.785 52.9844 109.785 50.7251 107.774C48.5461 105.688 48.5461 102.56 50.7251 100.549ZM49.9992 113.211H59.2797V150.306H49.9992V113.211Z" fill="black" fill-opacity="0.2"/>
<path d="M85.7535 138.843H86.0647L86.2985 136.581L93.0705 112.373H102.644L94.549 137.787L94.004 139.522C93.2261 141.935 92.6811 143.67 92.2917 144.65C91.9805 145.63 91.5133 146.611 90.8127 147.742C89.5672 149.853 88.322 150.306 85.9091 150.306C83.7296 150.306 82.1728 149.627 81.2389 148.27C80.3827 146.837 79.2149 143.971 77.8137 139.521L77.2688 137.787L69.1738 112.373H78.7477L85.5197 136.58L85.7535 138.843Z" fill="#1E1E28"/>
<path d="M85.7535 138.843H86.0647L86.2985 136.581L93.0705 112.373H102.644L94.549 137.787L94.004 139.522C93.2261 141.935 92.6811 143.67 92.2917 144.65C91.9805 145.63 91.5133 146.611 90.8127 147.742C89.5672 149.853 88.322 150.306 85.9091 150.306C83.7296 150.306 82.1728 149.627 81.2389 148.27C80.3827 146.837 79.2149 143.971 77.8137 139.521L77.2688 137.787L69.1738 112.373H78.7477L85.5197 136.58L85.7535 138.843Z" fill="black" fill-opacity="0.2"/>
<path d="M149.504 131.339C149.504 136.79 147.583 141.345 143.743 144.929C139.983 148.514 135.182 150.306 129.421 150.306C123.66 150.306 118.86 148.514 115.019 144.929C111.259 141.345 109.339 136.79 109.339 131.339C109.339 125.888 111.259 121.334 115.019 117.749C118.86 114.165 123.66 112.373 129.421 112.373C135.182 112.373 139.982 114.165 143.743 117.749C147.583 121.334 149.504 125.888 149.504 131.339ZM120.186 131.339C120.186 133.931 121.019 136.07 122.686 137.755C124.422 139.44 126.644 140.283 129.422 140.283C132.199 140.283 134.421 139.44 136.088 137.755C137.824 136.07 138.657 133.931 138.657 131.339C138.657 128.747 137.824 126.609 136.088 124.923C134.421 123.238 132.199 122.396 129.422 122.396C126.644 122.396 124.422 123.238 122.686 124.923C121.019 126.609 120.186 128.747 120.186 131.339Z" fill="#1E1E28"/>
<path d="M149.504 131.339C149.504 136.79 147.583 141.345 143.743 144.929C139.983 148.514 135.182 150.306 129.421 150.306C123.66 150.306 118.86 148.514 115.019 144.929C111.259 141.345 109.339 136.79 109.339 131.339C109.339 125.888 111.259 121.334 115.019 117.749C118.86 114.165 123.66 112.373 129.421 112.373C135.182 112.373 139.982 114.165 143.743 117.749C147.583 121.334 149.504 125.888 149.504 131.339ZM120.186 131.339C120.186 133.931 121.019 136.07 122.686 137.755C124.422 139.44 126.644 140.283 129.422 140.283C132.199 140.283 134.421 139.44 136.088 137.755C137.824 136.07 138.657 133.931 138.657 131.339C138.657 128.747 137.824 126.609 136.088 124.923C134.421 123.238 132.199 122.396 129.422 122.396C126.644 122.396 124.422 123.238 122.686 124.923C121.019 126.609 120.186 128.747 120.186 131.339Z" fill="black" fill-opacity="0.2"/>
<path d="M160.66 137.336V103.447H169.866V112.594H177.311V120.991H169.866V136.361C169.866 140.559 171.627 142.134 175.71 142.059C176.43 142.059 177.311 141.983 178.191 141.834L178.511 149.931C177.631 150.156 176.51 150.306 175.069 150.306C165.463 150.306 160.66 145.957 160.66 137.336Z" fill="#1E1E28"/>
<path d="M160.66 137.336V103.447H169.866V112.594H177.311V120.991H169.866V136.361C169.866 140.559 171.627 142.134 175.71 142.059C176.43 142.059 177.311 141.983 178.191 141.834L178.511 149.931C177.631 150.156 176.51 150.306 175.069 150.306C165.463 150.306 160.66 145.957 160.66 137.336Z" fill="black" fill-opacity="0.2"/>
<path d="M27.2557 196.926C24.1838 200.064 20.328 201.632 15.8184 201.632C14.8379 201.632 13.6618 201.502 12.2888 201.175C10.9166 200.848 10.0016 200.521 9.54394 200.129L8.17175 193.005H7.51798L0.647158 211.959H0.00195312V183.332C0.00195312 178.692 1.50515 175.032 4.44648 172.417C7.38782 169.738 11.1786 168.43 15.8188 168.43C20.4594 168.43 24.2497 169.999 27.3221 173.137C30.394 176.274 31.9623 180.261 31.9623 185.032C31.9614 189.802 30.3932 193.724 27.2557 196.926ZM9.49385 185.08C9.49385 187.139 10.0329 188.757 11.1606 189.983C12.2883 191.208 13.857 191.797 15.8184 191.797C17.7797 191.797 19.2996 191.208 20.4273 189.983C21.555 188.757 22.1429 187.139 22.1429 185.08C22.1429 183.021 21.5546 181.354 20.4273 180.128C19.2996 178.902 17.7309 178.265 15.8184 178.265C13.9063 178.265 12.3376 178.902 11.2098 180.128C10.0821 181.354 9.49385 183.021 9.49385 185.08Z" fill="#1E1E28"/>
<path d="M27.2557 196.926C24.1838 200.064 20.328 201.632 15.8184 201.632C14.8379 201.632 13.6618 201.502 12.2888 201.175C10.9166 200.848 10.0016 200.521 9.54394 200.129L8.17175 193.005H7.51798L0.647158 211.959H0.00195312V183.332C0.00195312 178.692 1.50515 175.032 4.44648 172.417C7.38782 169.738 11.1786 168.43 15.8188 168.43C20.4594 168.43 24.2497 169.999 27.3221 173.137C30.394 176.274 31.9623 180.261 31.9623 185.032C31.9614 189.802 30.3932 193.724 27.2557 196.926ZM9.49385 185.08C9.49385 187.139 10.0329 188.757 11.1606 189.983C12.2883 191.208 13.857 191.797 15.8184 191.797C17.7797 191.797 19.2996 191.208 20.4273 189.983C21.555 188.757 22.1429 187.139 22.1429 185.08C22.1429 183.021 21.5546 181.354 20.4273 180.128C19.2996 178.902 17.7309 178.265 15.8184 178.265C13.9063 178.265 12.3376 178.902 11.2098 180.128C10.0821 181.354 9.49385 183.021 9.49385 185.08Z" fill="black" fill-opacity="0.2"/>
<path d="M64.1146 172.751C67.056 175.3 68.4937 178.96 68.4937 183.601V201.77H67.3912L62.8752 191.245L65.578 195.482L64.1134 196.877C61.2538 199.388 58.7432 200.643 56.2064 201.312C54.9032 201.656 53.7883 201.77 52.8074 201.77C48.2978 201.77 44.4415 200.202 41.37 197.129C38.2981 193.992 36.7949 190.071 36.7949 185.3C36.7949 180.529 38.2981 176.607 41.3045 173.535C44.311 170.463 48.1672 168.895 52.8074 168.895C57.448 168.895 61.1733 170.202 64.1146 172.751ZM60.3269 185.3C60.3269 182.872 59.6166 180.919 58.2551 179.497C56.8932 178.017 55.0577 177.306 52.8078 177.306C50.558 177.306 48.7225 178.017 47.3606 179.497C45.9987 180.919 45.2888 182.872 45.2888 185.3C45.2888 187.727 45.9991 189.681 47.3606 191.162C48.7225 192.583 50.558 193.293 52.8078 193.293C55.0582 193.293 56.8936 192.583 58.2551 191.162C59.6166 189.681 60.3269 187.727 60.3269 185.3Z" fill="#1E1E28"/>
<path d="M64.1146 172.751C67.056 175.3 68.4937 178.96 68.4937 183.601V201.77H67.3912L62.8752 191.245L65.578 195.482L64.1134 196.877C61.2538 199.388 58.7432 200.643 56.2064 201.312C54.9032 201.656 53.7883 201.77 52.8074 201.77C48.2978 201.77 44.4415 200.202 41.37 197.129C38.2981 193.992 36.7949 190.071 36.7949 185.3C36.7949 180.529 38.2981 176.607 41.3045 173.535C44.311 170.463 48.1672 168.895 52.8074 168.895C57.448 168.895 61.1733 170.202 64.1146 172.751ZM60.3269 185.3C60.3269 182.872 59.6166 180.919 58.2551 179.497C56.8932 178.017 55.0577 177.306 52.8078 177.306C50.558 177.306 48.7225 178.017 47.3606 179.497C45.9987 180.919 45.2888 182.872 45.2888 185.3C45.2888 187.727 45.9991 189.681 47.3606 191.162C48.7225 192.583 50.558 193.293 52.8078 193.293C55.0582 193.293 56.8936 192.583 58.2551 191.162C59.6166 189.681 60.3269 187.727 60.3269 185.3Z" fill="black" fill-opacity="0.2"/>
<path d="M174.621 172.751C177.562 175.3 179 178.96 179 183.601V201.77H177.897L173.381 191.245L176.084 195.482L174.619 196.877C171.76 199.388 169.249 200.643 166.712 201.312C165.409 201.656 164.294 201.77 163.313 201.77C158.804 201.77 154.947 200.202 151.876 197.129C148.804 193.992 147.301 190.071 147.301 185.3C147.301 180.529 148.804 176.607 151.81 173.535C154.817 170.463 158.673 168.895 163.313 168.895C167.954 168.895 171.679 170.202 174.621 172.751ZM170.833 185.3C170.833 182.872 170.122 180.919 168.761 179.497C167.399 178.017 165.564 177.306 163.313 177.306C161.063 177.306 159.228 178.017 157.866 179.497C156.505 180.919 155.795 182.872 155.795 185.3C155.795 187.727 156.505 189.681 157.866 191.162C159.228 192.583 161.064 193.293 163.313 193.293C165.564 193.293 167.399 192.583 168.761 191.162C170.122 189.681 170.833 187.727 170.833 185.3Z" fill="#1E1E28"/>
<path d="M174.621 172.751C177.562 175.3 179 178.96 179 183.601V201.77H177.897L173.381 191.245L176.084 195.482L174.619 196.877C171.76 199.388 169.249 200.643 166.712 201.312C165.409 201.656 164.294 201.77 163.313 201.77C158.804 201.77 154.947 200.202 151.876 197.129C148.804 193.992 147.301 190.071 147.301 185.3C147.301 180.529 148.804 176.607 151.81 173.535C154.817 170.463 158.673 168.895 163.313 168.895C167.954 168.895 171.679 170.202 174.621 172.751ZM170.833 185.3C170.833 182.872 170.122 180.919 168.761 179.497C167.399 178.017 165.564 177.306 163.313 177.306C161.063 177.306 159.228 178.017 157.866 179.497C156.505 180.919 155.795 182.872 155.795 185.3C155.795 187.727 156.505 189.681 157.866 191.162C159.228 192.583 161.064 193.293 163.313 193.293C165.564 193.293 167.399 192.583 168.761 191.162C170.122 189.681 170.833 187.727 170.833 185.3Z" fill="black" fill-opacity="0.2"/>
<path d="M103.797 201.77H94.9347V181.182C94.9347 178.045 93.2393 176.476 89.8488 176.476C86.4579 176.476 84.7625 178.045 84.7625 181.182V201.77H75.9004V178.699C75.9004 175.692 77.2876 173.339 80.0619 171.575C82.9134 169.81 86.1497 168.895 89.8492 168.895C93.548 168.895 96.7847 169.81 99.5591 171.575C102.41 173.339 103.798 175.692 103.798 178.699V201.77H103.797Z" fill="#1E1E28"/>
<path d="M103.797 201.77H94.9347V181.182C94.9347 178.045 93.2393 176.476 89.8488 176.476C86.4579 176.476 84.7625 178.045 84.7625 181.182V201.77H75.9004V178.699C75.9004 175.692 77.2876 173.339 80.0619 171.575C82.9134 169.81 86.1497 168.895 89.8492 168.895C93.548 168.895 96.7847 169.81 99.5591 171.575C102.41 173.339 103.798 175.692 103.798 178.699V201.77H103.797Z" fill="black" fill-opacity="0.2"/>
<path d="M114.143 173.667C117.281 170.464 121.137 168.895 125.646 168.895C126.627 168.895 127.738 169.026 129.11 169.353C130.483 169.68 133.437 170.655 134.414 171.422L137.971 173.235L133.947 177.523V157.065H141.463V187.195C141.463 191.836 139.96 195.495 137.019 198.175C134.077 200.789 130.287 202.097 125.646 202.097C121.006 202.097 117.15 200.528 114.078 197.391C111.006 194.254 109.503 190.267 109.503 185.496C109.503 180.725 111.072 176.804 114.143 173.667ZM132.892 185.44C132.892 183.081 132.218 181.228 130.926 179.823C129.634 178.419 127.893 177.745 125.646 177.745C123.4 177.745 121.602 178.419 120.31 179.823C119.018 181.227 118.401 183.081 118.401 185.44C118.401 187.799 119.074 189.709 120.366 191.113C121.658 192.518 123.456 193.248 125.646 193.248C127.837 193.248 129.634 192.518 130.926 191.113C132.218 189.709 132.892 187.799 132.892 185.44Z" fill="#1E1E28"/>
<path d="M114.143 173.667C117.281 170.464 121.137 168.895 125.646 168.895C126.627 168.895 127.738 169.026 129.11 169.353C130.483 169.68 133.437 170.655 134.414 171.422L137.971 173.235L133.947 177.523V157.065H141.463V187.195C141.463 191.836 139.96 195.495 137.019 198.175C134.077 200.789 130.287 202.097 125.646 202.097C121.006 202.097 117.15 200.528 114.078 197.391C111.006 194.254 109.503 190.267 109.503 185.496C109.503 180.725 111.072 176.804 114.143 173.667ZM132.892 185.44C132.892 183.081 132.218 181.228 130.926 179.823C129.634 178.419 127.893 177.745 125.646 177.745C123.4 177.745 121.602 178.419 120.31 179.823C119.018 181.227 118.401 183.081 118.401 185.44C118.401 187.799 119.074 189.709 120.366 191.113C121.658 192.518 123.456 193.248 125.646 193.248C127.837 193.248 129.634 192.518 130.926 191.113C132.218 189.709 132.892 187.799 132.892 185.44Z" fill="black" fill-opacity="0.2"/>
<path d="M76.612 41.3604C72.2403 45.8254 66.7519 48.0578 60.3341 48.0578C58.9383 48.0578 57.2643 47.872 55.3107 47.4066C53.3579 46.9412 52.0555 46.4762 51.4043 45.9183L49.4507 35.7795H48.5204L38.6581 62.755H37.8232V22.0126C37.8232 15.4081 39.9622 10.1993 44.1482 6.47836C48.3337 2.66448 53.7291 0.804199 60.3336 0.804199C66.9382 0.804199 72.3327 3.03696 76.7049 7.50162C81.0767 11.9667 83.3094 17.6404 83.3094 24.4308C83.3094 31.2211 81.0767 36.8028 76.612 41.3604ZM51.8171 24.4967C51.8171 27.2698 52.5432 29.4486 54.0618 31.0991C55.5804 32.7496 57.6929 33.5421 60.3341 33.5421C62.9749 33.5421 65.0214 32.7496 66.54 31.0991C68.0586 29.4486 68.8502 27.2698 68.8502 24.4967C68.8502 21.7241 68.0582 19.4793 66.54 17.8288C65.0214 16.1783 62.9089 15.3199 60.3341 15.3199C57.7592 15.3199 55.6468 16.1783 54.1282 17.8288C52.6095 19.4797 51.8171 21.7245 51.8171 24.4967Z" fill="#1E1E28"/>
<path d="M76.612 41.3604C72.2403 45.8254 66.7519 48.0578 60.3341 48.0578C58.9383 48.0578 57.2643 47.872 55.3107 47.4066C53.3579 46.9412 52.0555 46.4762 51.4043 45.9183L49.4507 35.7795H48.5204L38.6581 62.755H37.8232V22.0126C37.8232 15.4081 39.9622 10.1993 44.1482 6.47836C48.3337 2.66448 53.7291 0.804199 60.3336 0.804199C66.9382 0.804199 72.3327 3.03696 76.7049 7.50162C81.0767 11.9667 83.3094 17.6404 83.3094 24.4308C83.3094 31.2211 81.0767 36.8028 76.612 41.3604ZM51.8171 24.4967C51.8171 27.2698 52.5432 29.4486 54.0618 31.0991C55.5804 32.7496 57.6929 33.5421 60.3341 33.5421C62.9749 33.5421 65.0214 32.7496 66.54 31.0991C68.0586 29.4486 68.8502 27.2698 68.8502 24.4967C68.8502 21.7241 68.0582 19.4793 66.54 17.8288C65.0214 16.1783 62.9089 15.3199 60.3341 15.3199C57.7592 15.3199 55.6468 16.1783 54.1282 17.8288C52.6095 19.4797 51.8171 21.7245 51.8171 24.4967Z" fill="black" fill-opacity="0.2"/>
<path d="M80.5998 60.7662L80.3291 58.2815C80.426 53.5679 85.0002 49.8135 90.5451 49.8959C96.0901 49.9782 100.507 53.8666 100.41 58.5801L99.784 61.0514" fill="#1E1E28"/>
<path d="M80.5998 60.7662L80.3291 58.2815C80.426 53.5679 85.0002 49.8135 90.5451 49.8959C96.0901 49.9782 100.507 53.8666 100.41 58.5801L99.784 61.0514" fill="black" fill-opacity="0.2"/>
<path d="M97.2051 24.4313C97.2051 17.6409 99.4378 11.9672 103.81 7.50211C108.182 3.03702 113.576 0.804688 120.181 0.804688C126.785 0.804688 132.18 2.66497 136.366 6.47885C140.553 10.1998 142.691 15.4086 142.691 22.0131V62.7555H142.121L131.994 35.78H131.064L129.11 45.9188C128.459 46.4767 127.157 46.9421 125.204 47.4071C123.25 47.8724 121.576 48.0583 120.18 48.0583C113.763 48.0583 108.274 45.8255 103.903 41.3608C99.4378 36.8028 97.2051 31.2216 97.2051 24.4313ZM126.386 17.8293C124.868 16.1788 122.755 15.3204 120.18 15.3204C117.606 15.3204 115.493 16.1788 113.975 17.8293C112.456 19.4798 111.664 21.7245 111.664 24.4972C111.664 27.2703 112.456 29.4491 113.975 31.0996C115.493 32.75 117.54 33.5425 120.18 33.5425C122.821 33.5425 124.934 32.75 126.453 31.0996C127.971 29.4491 128.697 27.2703 128.697 24.4972C128.697 21.7245 127.905 19.4798 126.386 17.8293Z" fill="#1E1E28"/>
<path d="M97.2051 24.4313C97.2051 17.6409 99.4378 11.9672 103.81 7.50211C108.182 3.03702 113.576 0.804688 120.181 0.804688C126.785 0.804688 132.18 2.66497 136.366 6.47885C140.553 10.1998 142.691 15.4086 142.691 22.0131V62.7555H142.121L131.994 35.78H131.064L129.11 45.9188C128.459 46.4767 127.157 46.9421 125.204 47.4071C123.25 47.8724 121.576 48.0583 120.18 48.0583C113.763 48.0583 108.274 45.8255 103.903 41.3608C99.4378 36.8028 97.2051 31.2216 97.2051 24.4313ZM126.386 17.8293C124.868 16.1788 122.755 15.3204 120.18 15.3204C117.606 15.3204 115.493 16.1788 113.975 17.8293C112.456 19.4798 111.664 21.7245 111.664 24.4972C111.664 27.2703 112.456 29.4491 113.975 31.0996C115.493 32.75 117.54 33.5425 120.18 33.5425C122.821 33.5425 124.934 32.75 126.453 31.0996C127.971 29.4491 128.697 27.2703 128.697 24.4972C128.697 21.7245 127.905 19.4798 126.386 17.8293Z" fill="black" fill-opacity="0.2"/>
<path d="M18.6049 219.859H20.2392V230.251H18.575V223.038L15.9453 227.353H14.9276L12.2834 223.045V230.251H10.627V219.859H12.2762L15.4406 225.081L18.6049 219.859Z" fill="#1E1E28"/>
<path d="M18.6049 219.859H20.2392V230.251H18.575V223.038L15.9453 227.353H14.9276L12.2834 223.045V230.251H10.627V219.859H12.2762L15.4406 225.081L18.6049 219.859Z" fill="black" fill-opacity="0.2"/>
<path d="M34.4459 230.251L33.8216 228.46H29.2016L28.5778 230.251H26.8545L30.5541 219.859H32.5L36.1623 230.251H34.4459ZM29.759 226.886H33.2801L31.5268 221.835L29.759 226.886Z" fill="#1E1E28"/>
<path d="M34.4459 230.251L33.8216 228.46H29.2016L28.5778 230.251H26.8545L30.5541 219.859H32.5L36.1623 230.251H34.4459ZM29.759 226.886H33.2801L31.5268 221.835L29.759 226.886Z" fill="black" fill-opacity="0.2"/>
<path d="M49.9396 230.251H48.0306L45.8916 226.44H44.4731V230.251H42.7871V219.859H46.1741C48.2095 219.859 49.7543 221.144 49.7543 223.172C49.7543 224.687 48.8924 225.764 47.6076 226.21L49.9396 230.251ZM44.4727 221.456V224.843H46.181C47.2582 224.843 48.0751 224.263 48.0751 223.179C48.0751 222.109 47.2655 221.456 46.181 221.456H44.4727Z" fill="#1E1E28"/>
<path d="M49.9396 230.251H48.0306L45.8916 226.44H44.4731V230.251H42.7871V219.859H46.1741C48.2095 219.859 49.7543 221.144 49.7543 223.172C49.7543 224.687 48.8924 225.764 47.6076 226.21L49.9396 230.251ZM44.4727 221.456V224.843H46.181C47.2582 224.843 48.0751 224.263 48.0751 223.179C48.0751 222.109 47.2655 221.456 46.181 221.456H44.4727Z" fill="black" fill-opacity="0.2"/>
<path d="M60.4466 230.414C58.7974 230.414 57.4012 229.738 56.3467 228.698L57.483 227.48C58.2626 228.207 59.4143 228.824 60.4761 228.824C61.7019 228.824 62.452 228.03 62.452 227.264C62.452 226.15 61.3007 225.883 60.0004 225.578C58.3812 225.185 56.7842 224.412 56.7842 222.518C56.7842 220.877 58.2476 219.688 60.2603 219.688C61.3893 219.688 62.6524 220.067 63.6623 220.914L62.6151 222.11C61.9018 221.575 61.055 221.241 60.2976 221.241C59.3394 221.241 58.5002 221.657 58.5002 222.518C58.5002 223.514 59.696 223.833 60.825 224.122C62.3257 224.509 64.168 225.163 64.168 227.242C64.168 229.174 62.4665 230.414 60.4466 230.414Z" fill="#1E1E28"/>
<path d="M60.4466 230.414C58.7974 230.414 57.4012 229.738 56.3467 228.698L57.483 227.48C58.2626 228.207 59.4143 228.824 60.4761 228.824C61.7019 228.824 62.452 228.03 62.452 227.264C62.452 226.15 61.3007 225.883 60.0004 225.578C58.3812 225.185 56.7842 224.412 56.7842 222.518C56.7842 220.877 58.2476 219.688 60.2603 219.688C61.3893 219.688 62.6524 220.067 63.6623 220.914L62.6151 222.11C61.9018 221.575 61.055 221.241 60.2976 221.241C59.3394 221.241 58.5002 221.657 58.5002 222.518C58.5002 223.514 59.696 223.833 60.825 224.122C62.3257 224.509 64.168 225.163 64.168 227.242C64.168 229.174 62.4665 230.414 60.4466 230.414Z" fill="black" fill-opacity="0.2"/>
<path d="M77.751 221.448H72.8188V224.167H77.6025V225.712H72.8188V228.661H77.751V230.251H71.1328V219.859H77.751V221.448Z" fill="#1E1E28"/>
<path d="M77.751 221.448H72.8188V224.167H77.6025V225.712H72.8188V228.661H77.751V230.251H71.1328V219.859H77.751V221.448Z" fill="black" fill-opacity="0.2"/>
<path d="M86.7505 219.859V230.251H85.0645V219.859H86.7505Z" fill="#1E1E28"/>
<path d="M86.7505 219.859V230.251H85.0645V219.859H86.7505Z" fill="black" fill-opacity="0.2"/>
<path d="M94.2725 230.251V219.859H95.9585V228.624H100.779V230.251H94.2725V230.251Z" fill="#1E1E28"/>
<path d="M94.2725 230.251V219.859H95.9585V228.624H100.779V230.251H94.2725V230.251Z" fill="black" fill-opacity="0.2"/>
<path d="M107.573 230.251V219.859H109.259V228.624H114.08V230.251H107.573V230.251Z" fill="#1E1E28"/>
<path d="M107.573 230.251V219.859H109.259V228.624H114.08V230.251H107.573V230.251Z" fill="black" fill-opacity="0.2"/>
<path d="M127.492 221.448H122.56V224.167H127.344V225.712H122.56V228.661H127.492V230.251H120.874V219.859H127.492V221.448Z" fill="#1E1E28"/>
<path d="M127.492 221.448H122.56V224.167H127.344V225.712H122.56V228.661H127.492V230.251H120.874V219.859H127.492V221.448Z" fill="black" fill-opacity="0.2"/>
<path d="M145.012 226.818H134.628V225.266H145.012V226.818Z" fill="#1E1E28"/>
<path d="M145.012 226.818H134.628V225.266H145.012V226.818Z" fill="black" fill-opacity="0.2"/>
<path d="M103.561 242.66H93.1768V241.108H103.561V242.66Z" fill="#1E1E28"/>
<path d="M103.561 242.66H93.1768V241.108H103.561V242.66Z" fill="black" fill-opacity="0.2"/>
<path d="M110.897 246.092V235.7H114.284C116.32 235.7 117.865 236.985 117.865 239.013C117.865 241.04 116.32 242.281 114.284 242.281H112.583V246.092H110.897ZM112.583 240.684H114.292C115.369 240.684 116.186 240.105 116.186 239.02C116.186 237.951 115.376 237.297 114.292 237.297H112.583V240.684Z" fill="#1E1E28"/>
<path d="M110.897 246.092V235.7H114.284C116.32 235.7 117.865 236.985 117.865 239.013C117.865 241.04 116.32 242.281 114.284 242.281H112.583V246.092H110.897ZM112.583 240.684H114.292C115.369 240.684 116.186 240.105 116.186 239.02C116.186 237.951 115.376 237.297 114.292 237.297H112.583V240.684Z" fill="black" fill-opacity="0.2"/>
<path d="M130.231 246.092L129.607 244.301H124.987L124.363 246.092H122.64L126.339 235.7H128.285L131.947 246.092H130.231ZM125.544 242.727H129.065L127.312 237.676L125.544 242.727Z" fill="#1E1E28"/>
<path d="M130.231 246.092L129.607 244.301H124.987L124.363 246.092H122.64L126.339 235.7H128.285L131.947 246.092H130.231ZM125.544 242.727H129.065L127.312 237.676L125.544 242.727Z" fill="black" fill-opacity="0.2"/>
<path d="M145.721 246.092H143.812L141.673 242.281H140.254V246.092H138.568V235.7H141.955C143.991 235.7 145.536 236.985 145.536 239.013C145.536 240.528 144.674 241.606 143.389 242.051L145.721 246.092ZM140.254 237.297V240.684H141.963C143.04 240.684 143.857 240.105 143.857 239.02C143.857 237.951 143.047 237.297 141.963 237.297H140.254Z" fill="#1E1E28"/>
<path d="M145.721 246.092H143.812L141.673 242.281H140.254V246.092H138.568V235.7H141.955C143.991 235.7 145.536 236.985 145.536 239.013C145.536 240.528 144.674 241.606 143.389 242.051L145.721 246.092ZM140.254 237.297V240.684H141.963C143.04 240.684 143.857 240.105 143.857 239.02C143.857 237.951 143.047 237.297 141.963 237.297H140.254Z" fill="black" fill-opacity="0.2"/>
<path d="M154.469 235.7V246.092H152.783V235.7H154.469Z" fill="#1E1E28"/>
<path d="M154.469 235.7V246.092H152.783V235.7H154.469Z" fill="black" fill-opacity="0.2"/>
<path d="M165.458 246.255C163.809 246.255 162.413 245.579 161.358 244.539L162.495 243.321C163.274 244.048 164.426 244.665 165.488 244.665C166.714 244.665 167.464 243.871 167.464 243.105C167.464 241.991 166.312 241.724 165.012 241.419C163.393 241.026 161.796 240.253 161.796 238.359C161.796 236.718 163.259 235.529 165.272 235.529C166.401 235.529 167.664 235.908 168.674 236.755L167.627 237.951C166.914 237.416 166.067 237.082 165.309 237.082C164.351 237.082 163.512 237.498 163.512 238.359C163.512 239.355 164.708 239.674 165.837 239.964C167.337 240.35 169.18 241.004 169.18 243.083C169.18 245.015 167.479 246.255 165.458 246.255Z" fill="#1E1E28"/>
<path d="M165.458 246.255C163.809 246.255 162.413 245.579 161.358 244.539L162.495 243.321C163.274 244.048 164.426 244.665 165.488 244.665C166.714 244.665 167.464 243.871 167.464 243.105C167.464 241.991 166.312 241.724 165.012 241.419C163.393 241.026 161.796 240.253 161.796 238.359C161.796 236.718 163.259 235.529 165.272 235.529C166.401 235.529 167.664 235.908 168.674 236.755L167.627 237.951C166.914 237.416 166.067 237.082 165.309 237.082C164.351 237.082 163.512 237.498 163.512 238.359C163.512 239.355 164.708 239.674 165.837 239.964C167.337 240.35 169.18 241.004 169.18 243.083C169.18 245.015 167.479 246.255 165.458 246.255Z" fill="black" fill-opacity="0.2"/>
</svg>
